<?xml version="1.0" encoding="UTF-8" standalone="no"?>
<!-- Created with Inkscape (http://www.inkscape.org/) -->

<svg
   xmlns:dc="http://purl.org/dc/elements/1.1/"
   xmlns:cc="http://creativecommons.org/ns#"
   xmlns:rdf="http://www.w3.org/1999/02/22-rdf-syntax-ns#"
   xmlns:svg="http://www.w3.org/2000/svg"
   xmlns="http://www.w3.org/2000/svg"
   xmlns:sodipodi="http://sodipodi.sourceforge.net/DTD/sodipodi-0.dtd"
   xmlns:inkscape="http://www.inkscape.org/namespaces/inkscape"
   width="210mm"
   height="297mm"
   viewBox="0 0 210 297"
   version="1.1"
   id="svg6288"
   inkscape:version="0.91 r13725"
   sodipodi:docname="flying_santa_205x145.svg">
  <title
     id="title4135">Flying Santa</title>
  <defs
     id="defs6282" />
  <sodipodi:namedview
     id="base"
     pagecolor="#ffffff"
     bordercolor="#666666"
     borderopacity="1.0"
     inkscape:pageopacity="0.0"
     inkscape:pageshadow="2"
     inkscape:zoom="1.7986338"
     inkscape:cx="517.22797"
     inkscape:cy="794.47403"
     inkscape:document-units="mm"
     inkscape:current-layer="layer1"
     showgrid="false"
     inkscape:window-width="3840"
     inkscape:window-height="2097"
     inkscape:window-x="-8"
     inkscape:window-y="-8"
     inkscape:window-maximized="1" />
  <metadata
     id="metadata6285">
    <rdf:RDF>
      <cc:Work
         rdf:about="">
        <dc:format>image/svg+xml</dc:format>
        <dc:type
           rdf:resource="http://purl.org/dc/dcmitype/StillImage" />
        <dc:title>Flying Santa</dc:title>
        <cc:license
           rdf:resource="http://creativecommons.org/licenses/by/3.0/" />
      </cc:Work>
      <cc:License
         rdf:about="http://creativecommons.org/licenses/by/3.0/">
        <cc:permits
           rdf:resource="http://creativecommons.org/ns#Reproduction" />
        <cc:permits
           rdf:resource="http://creativecommons.org/ns#Distribution" />
        <cc:requires
           rdf:resource="http://creativecommons.org/ns#Notice" />
        <cc:requires
           rdf:resource="http://creativecommons.org/ns#Attribution" />
        <cc:permits
           rdf:resource="http://creativecommons.org/ns#DerivativeWorks" />
      </cc:License>
    </rdf:RDF>
  </metadata>
  <g
     inkscape:label="Calque 1"
     inkscape:groupmode="layer"
     id="layer1">
    <rect
       style="opacity:1;fill:none;fill-opacity:1;stroke:#ffff00;stroke-width:0.39849085;stroke-linecap:butt;stroke-linejoin:miter;stroke-miterlimit:4;stroke-dasharray:none;stroke-dashoffset:0;stroke-opacity:1"
       id="rect6848"
       width="204.6015"
       height="144.60152"
       x="-207.2702"
       y="-146.08905"
       transform="scale(-1,-1)" />
    <path
       style="fill:none;stroke:#0000ff;stroke-width:0.32431915"
       d="m 37.123687,19.275417 c -11.52166,-10e-6 -20.861764,8.798772 -20.86158,19.65251 9.8e-5,10.85355 9.34012,19.652038 20.86158,19.652028 2.172154,-0.0079 4.329665,-0.335418 6.39454,-0.970583 -9.608149,-1.945732 -16.471769,-9.944675 -16.4771,-19.202605 0.01153,-8.523958 5.854901,-16.069075 14.46799,-18.68146 -1.440823,-0.295547 -2.91085,-0.446354 -4.38543,-0.44989 z m 33.98652,2.81056 -0.934,3.15071 -3.15118,0.93399 2.70841,1.8623 -0.0855,3.28517 2.6077,-2.00008 3.09798,1.09648 -1.09648,-3.09846 2.00007,-2.60769 -3.28515,0.0855 z m 97.531843,3.18063 -0.048,3.93982 -3.93696,0.16532 3.05047,2.49463 -2.3255,3.18064 3.85191,-0.82948 1.0371,3.80109 1.75303,-3.5284 3.61866,1.55873 -1.66609,-3.57068 3.47518,-1.8566 -3.83006,-0.92403 0.71451,-3.87472 -3.11032,2.41861 z m -43.25052,14.18247 -0.56249,3.33647 -3.10368,1.34684 2.99916,1.56585 0.32211,3.368295 2.41575,-2.369205 3.30274,0.73542 -1.50599,-3.03004 1.71931,-2.91412 -3.34693,0.49646 z m 59.46965,24.940592 c -0.98196,-0.0083 -1.11322,0.502754 -0.75585,2.158752 0.15971,0.74018 0.24536,1.892726 0.19003,2.561609 -0.085,1.02774 -0.21754,1.2162 -0.85467,1.2162 -0.85272,0 -1.61819,-0.98556 -2.0452,-2.633354 -0.36695,-1.416089 -1.18199,-1.445784 -1.31692,-0.04799 -0.0991,1.026588 -0.11716,1.037869 -0.87746,0.539693 -0.80772,-0.529212 -1.45374,-0.386725 -1.45374,0.320671 0,0.64976 1.36315,1.7309 2.47991,1.96682 1.3948,0.29467 1.94844,1.03558 2.14307,2.86757 0.18957,1.78501 0.69492,2.44275 3.10938,4.0467 0.95291,0.63303 1.80869,1.34899 1.90173,1.5915 0.18873,0.49182 -0.49911,2.37539 -0.86749,2.37539 -0.12965,0 -0.49413,0.57325 -0.81001,1.27368 -0.83705,1.85628 -2.03337,2.83129 -3.77781,3.07993 -0.82322,0.11731 -1.77169,0.42194 -2.10791,0.67651 -0.77412,0.58608 -7.9114,0.62177 -11.47596,0.0575 l -2.4324,-0.38482 -0.48647,-1.51834 c -0.55892,-1.74408 -1.7741,-3.18444 -2.68609,-3.18444 -0.4724,0 -0.56751,0.13998 -0.38624,0.56771 0.75015,1.76993 1.14635,3.1818 1.06085,3.78019 -0.0953,0.66685 -0.26715,0.68233 -9.66401,0.85752 -6.50921,0.12135 -8.62349,0.22127 -8.7856,-0.0105 l -0.008,0.9492 c 0.1991,-0.52236 -0.21525,-0.3069 8.33474,-0.3069 l 9.29108,0 -0.13444,2.10744 c -0.0738,1.15896 -0.30133,2.27384 -0.50549,2.478 -0.20415,0.20417 -1.36476,0.47306 -2.57919,0.59718 -1.49712,0.15299 -2.69405,0.50702 -3.71795,1.09979 -1.08326,0.62714 -2.27514,0.96215 -4.2163,1.18532 -3.56199,0.40955 -3.51649,0.4128 -4.71942,-0.32067 -0.57231,-0.34897 -1.81299,-0.73442 -2.75687,-0.85609 -2.24979,-0.28999 -3.17542,-0.65231 -3.17542,-1.24328 0,-0.26504 0.62754,-1.25383 1.39483,-2.19723 0.76727,-0.9434 1.49246,-1.97059 1.61146,-2.28274 l 0.03,-1.29696 c -0.42062,-0.60114 -0.13378,-2.74464 0.36296,-3.15689 0.26424,-0.21931 1.24935,-0.49293 2.18916,-0.60762 1.43541,-0.17521 1.72529,-0.32258 1.81052,-0.92165 0.0805,-0.56589 -0.22082,-0.88089 -1.45944,-1.52547 -1.49744,-0.77922 -1.52154,-0.81263 -0.58814,-0.83139 2.00856,-0.0403 2.39207,-0.30184 2.37396,-1.61621 -0.009,-0.66881 0.14634,-1.52034 0.34538,-1.89223 0.49359,-0.92229 0.46116,-1.04279 -0.27698,-1.04279 -0.4137,0 -0.57697,-0.1597 -0.46415,-0.4537 0.35533,-0.92599 -0.5671,-0.8604 -1.46845,0.10452 -0.98164,1.0508 -1.07748,1.62542 -1.07748,0.79337 l -0.11021,0.91358 c -0.22299,-0.09 0.43102,0.30293 0.92117,0.28884 0.12081,-0.004 0.22674,-0.006 0.31924,-0.006 0.64758,-0.004 0.63202,0.0976 0.3758,0.76535 -0.24463,0.63751 -0.77629,0.67426 -0.77629,0.0537 0,-0.2527 -0.66019,0.59596 -0.88316,0.50596 -0.44038,0.56537 -0.31508,-0.19589 -1.258,0.23374 -0.97089,0.44241 -1.42619,0.46828 -1.42619,0.0813 0,-0.38803 1.17586,-1.44329 1.78249,-1.44329 l 0.0774,-0.87129 c 0,-0.26756 -0.38412,-1.28983 -0.56249,-1.28983 -0.17838,0 -0.32448,0.26279 -0.32448,0.58387 0,0.86542 -0.6534,1.36382 -1.76776,1.34874 -0.79889,-0.0108 -1.15437,-0.27215 -1.84804,-1.35824 -0.60306,-0.94421 -0.78658,-1.54429 -0.61617,-2.01386 0.33904,-0.93433 2.15955,-2.10023 3.65144,-2.3388 1.28655,-0.20574 1.52105,-0.82964 0.11876,-1.07605 l -3.75453,0.92687 c -0.61532,0.17044 -0.84988,0.49531 -0.97295,1.34638 -0.11092,0.76708 -0.33436,1.1227 -0.70692,1.12545 -0.98651,0.007 -0.9376,0.36721 0.21616,1.59056 0.62663,0.66441 1.13971,1.27082 1.13971,1.34731 0,0.0765 -0.25556,0.13725 -0.56772,0.1354 -0.85052,-0.006 -2.57436,-1.49513 -2.80818,-2.42669 -0.44639,-1.77856 1.40467,-3.91902 3.6885,-3.8315 l 2.75829,-1.042793 c 0,-0.999293 -0.64719,-1.663003 -1.31691,-0.640874 -0.43116,0.658029 -0.79586,0.810957 -1.93451,0.810957 -1.8579,0 -2.12068,-0.53776 -0.7929,-1.621438 1.14797,-0.936935 0.94244,-1.465145 -0.43565,-1.119284 -0.86834,0.217945 -1.4753,-0.32194 -0.69742,-0.620447 0.26654,-0.102284 0.48458,-0.409524 0.48458,-0.682685 0,-0.363209 -0.34821,-0.496934 -1.29695,-0.496934 -1.43369,0 -1.6967,0.579996 -0.80051,1.764911 0.6555,0.866661 0.64504,3.938617 -0.0142,4.191607 -0.92548,0.35515 -2.06543,-0.48777 -2.52551,-1.868001 -0.51912,-1.557363 -1.41686,-1.841795 -1.26275,-0.400019 0.0974,0.91098 0.0726,0.92652 -1.11074,0.704538 -1.19489,-0.22417 -1.2039,-0.217964 -0.72924,0.496932 0.28942,0.43587 1.09385,0.87938 2.02193,1.115 1.9401,0.49263 2.15776,0.7197 2.51411,2.62718 0.30511,1.63318 1.48739,3.19788 2.69368,3.56498 0.98782,0.30059 3.40344,1.8626 3.41723,2.20958 0.006,0.1643 -0.18274,0.52936 -0.42092,0.81096 -0.23818,0.28163 -0.63271,1.02279 -0.87651,1.64709 -1.15419,2.95552 -2.59456,4.53717 -4.13793,4.54268 -0.30376,9.2e-4 -0.95988,0.2143 -1.45801,0.47413 -0.49813,0.25983 -1.66599,0.54405 -2.59486,0.63138 -1.3324,0.12526 -9.99652,0.27564 -11.80092,0.20476 -0.21046,-0.008 -0.71856,-0.68794 -1.12925,-1.51028 -0.7845,-1.57079 -1.96737,-2.72123 -2.79821,-2.72123 -0.43345,0 -0.43125,0.0688 0.02,0.56771 0.4965,0.54899 1.68725,3.61671 1.47559,3.80157 -0.0574,0.0502 -3.82608,0.26091 -8.37466,0.46843 -4.54857,0.2075 -9.037787,0.4587 -9.976127,0.55821 l -1.07652,0.11592 0.0186,0.48268 7.466767,-0.50026 c 5.18364,-0.34725 8.04507,-0.40631 9.60606,-0.42425 2.00698,-0.0231 1.87265,0.16701 1.80053,0.60525 -0.0588,0.35677 -0.15494,1.5073 -0.21378,2.55639 -0.13739,2.4484 -0.77653,3.15021 -2.96115,3.25238 -1.6287,0.0762 -2.94923,0.59946 -3.54265,1.40385 -0.67518,0.91521 -5.39241,0.76693 -7.44588,-0.23422 -1.61048,-0.78515 -2.771377,-1.06703 -5.188777,-1.25894 l -2.59487,-0.20619 -0.0983,-1.01333 c -0.0583,-0.59945 0.10712,-1.21879 0.40524,-1.51693 0.27719,-0.2772 0.50902,-0.62404 0.51546,-0.77058 0.006,-0.14651 0.33478,-0.65224 0.72971,-1.12355 l 0.71832,-0.85656 -0.0404,-0.52639 -0.30547,-1.00384 c -0.77638,-1.8581 -0.51415,-3.04051 0.83233,-3.75311 0.62431,-0.33037 1.53663,-0.6815 2.02716,-0.78055 0.58377,-0.11789 0.89171,-0.38598 0.89171,-0.7758 0,-0.44271 -0.4305,-0.71131 -1.67701,-1.04754 -2.24129,-0.60462 -2.30867,-1.10043 -0.19906,-1.46181 1.42233,-0.24365 1.70422,-0.40234 1.65659,-0.93258 -0.0315,-0.35141 0.0612,-1.27387 0.20619,-2.04995 0.260047,-1.39204 0.252697,-1.40842 -0.55109,-1.2067 -0.64862,0.1628 -0.77552,0.10202 -0.62188,-0.29835 0.32559,-0.84849 -0.37502,-0.55864 -1.13543,0.46985 l 0.14062,0.79576 c 0.35126,-0.11803 0.21234,0.36122 0.44895,0.35013 0.70985,-0.0333 0.89443,0.40715 0.49788,1.27748 -0.39427,0.86533 -1.20704,1.09696 -1.45089,0.4138 -0.1018,-0.28524 -0.37405,-0.19979 -0.91879,0.28741 -0.42582,0.38085 -1.10276,0.79187 -1.5041,0.91358 -0.59525,0.18051 -0.72972,0.0958 -0.72972,-0.4594 0,-0.37437 0.25556,-0.77105 0.56772,-0.88175 0.31216,-0.11069 0.78615,-0.37769 1.05372,-0.59289 0.26757,-0.2152 0.98797,-0.55938 1.60101,-0.76535 l -0.3582,-0.83946 c -0.80697,1.09148 -1.04567,0.75666 -1.54116,-0.0941 -0.30697,-0.5271 -0.33096,-0.5231 -0.34015,0.0556 -0.0142,0.8948 -0.95538,1.80956 -1.86183,1.80956 -1.03298,0 -2.62864,-1.53839 -2.87184,-2.76874 -0.26499,-1.34069 0.65411,-2.41289 2.63668,-3.07613 1.73182,-0.57935 2.28557,-1.2903 1.00527,-1.2903 -1.30326,0 -1.83713,-0.33985 -1.83713,-1.16964 0,-1.003742 -0.57887,-1.006233 -0.83044,-0.004 -0.15553,0.61968 -0.67603,0.5012 -0.67603,0.5012 l 0.22756,0.96916 c 0.28533,-0.015 0.22436,0.39779 0.34776,0.52116 0.2487,0.24869 -0.065,0.498 -0.39289,0.59907 -1.42183,0.43826 -1.62046,0.55569 -1.57155,0.92925 0.15865,1.212 -0.0678,1.83095 -0.70502,1.92786 -0.58168,0.0884 -0.46271,0.26706 0.81096,1.2181 0.82079,0.61287 1.49221,1.23298 1.49221,1.3782 0,0.85992 -3.17311,-0.37559 -4.13506,-1.61003 -0.67956,-0.87206 -0.47502,-2.15554 0.48647,-3.05285 0.84243,-0.78619 1.39638,-1.23909 2.25235,-1.28414 l -0.0508,-0.9663 c -0.87437,0.17285 -1.53504,0.19522 -1.62761,0.10262 -0.39136,-0.39134 -0.12062,-1.38205 0.4803,-1.75731 0.35674,-0.222806 0.64848,-0.588672 0.64848,-0.813329 0,-0.500317 -0.17774,-0.509777 -1.02901,-0.05415 -0.91675,0.4906 -1.4277,-0.06454 -0.87463,-0.950155 0.53253,-0.852724 0.37282,-0.987176 -0.934,-0.78816 -1.23001,0.187341 -1.31821,0.636489 -0.36295,1.850905 0.92594,1.177139 1.18594,3.457869 0.46272,4.058109 -0.85603,0.71043 -2.60882,-0.28003 -3.09323,-1.74781 -0.52449,-1.589204 -1.32914,-1.563895 -1.06987,0.0337 0.20419,1.25825 0.2803,1.22712 -1.36917,0.55964 -0.31084,-0.12578 -0.48648,-0.0108 -0.48648,0.3183 0,0.3012 0.37054,0.59081 0.8922,0.69789 3.22548,0.66215 4.29706,1.38261 4.29706,2.88799 0,0.71541 2.16636,3.10368 2.81531,3.10368 0.22741,0 1.21935,0.39484 2.20436,0.87794 1.66971,0.81891 2.1766,1.43949 1.51169,1.85042 -0.15351,0.0949 -0.53338,1.07898 -0.84421,2.18678 -0.78818,2.809 -1.82337,4.34981 -3.09418,4.60397 -0.56314,0.11261 -1.39679,0.49777 -1.85232,0.85608 -0.59368,0.46701 -1.3441,0.65847 -2.6495,0.67604 -1.00161,0.0134 -3.499,0.22596 -5.550316,0.4727 l -2.73122,0.38387 4.028166,-0.0898 c 6.49259,-0.1998 5.85027,0.3485 -0.972946,0.83043 -2.73353,0.19311 -5.09851,0.43015 -5.25577,0.52734 -0.15727,0.0972 -0.52268,-0.0182 -0.81191,-0.25654 -0.46219,-0.38084 -0.37205,-0.4571 0.74397,-0.63043 l 1.04184,-0.25132 -1.27511,0.008 c -1.22847,-0.0376 -1.60323,-0.19808 -2.04901,-0.87842 -0.88658,-1.35309 -1.75456,-2.08653 -2.46991,-2.08653 l -0.67081,0 0.67081,0.94208 c 0.66824,0.93846 0.88996,1.96829 0.42756,1.98629 -1.65802,0.0645 -15.02377,1.0231 -17.59447,1.26181 -1.87294,0.17392 -5.92978,0.47582 -9.01553,0.67127 -5.93001,0.37566 -9.04133,0.81598 -9.72008,1.37536 -0.29371,0.24205 -0.57217,0.19788 -0.97295,-0.15392 -0.30882,-0.2711 -0.88303,-0.59089 -1.27654,-0.71072 -0.81395,-0.24783 -2.36588,-1.96033 -2.36588,-2.61103 0,-0.23785 -0.39224,-1.03201 -0.87176,-1.76443 -1.23226,-1.88211 -2.7116,-2.30063 -4.66716,-1.32072 -0.78848,0.39512 -1.90789,1.16854 -2.48703,1.71884 -1.20757,1.14751 -0.97207,1.51102 0.98246,1.51929 2.42654,0.01 1.85471,2.11373 -0.65987,2.42812 -3.37201,0.42156 -4.96121,0.82441 -6.05866,1.53544 -0.63164,0.40923 -1.1507,0.92112 -1.15254,1.13781 -0.006,0.50042 -1.04672,1.06561 -1.96396,1.06561 -0.60665,0 -0.67362,0.12385 -0.48173,0.88838 0.26144,1.04167 0.68086,1.36642 1.79294,1.38676 0.70778,0.013 0.73868,0.0568 0.24323,0.34538 -1.25453,0.73069 -0.5012,1.91978 1.2162,1.91978 1.68767,0 2.44903,0.88899 2.90271,3.39015 0.48217,2.65809 1.9221,4.69601 3.82723,5.41683 0.49054,0.18559 0.635315,1.95379 0.635315,1.95379 0,0 1.958645,0.33405 2.681675,-0.37557 0.72302,-0.70959 1.77699,-1.38249 2.34212,-1.49553 0.24706,-0.0494 0.43491,-0.0841 0.5815,-0.0893 0.43976,-0.0157 0.5048,0.23294 0.65751,1.13639 0.11644,0.68886 0.12763,1.05646 0.15677,1.32402 l 0.97676,-1.153 c -0.17904,-0.90539 -0.15769,-1.41434 -0.0651,-1.50694 0.33731,-0.3373 1.03329,-0.15684 1.03329,0.26794 0,0.56713 1.04717,1.50932 1.6775,1.50932 0.72375,0 1.56538,-1.06831 1.56538,-1.98724 0,-0.61359 0.24696,-0.88585 1.05419,-1.16252 1.30945,-0.44879 1.94083,-0.6501 2.24284,-0.63565 0.2349,0.0112 0.2708,0.15299 0.2708,0.41094 l 0.68648,0.35868 c 0.43794,-1.57711 1.34079,-1.52574 2.47563,-1.51929 1.30794,0.007 1.70551,0.38532 1.89746,1.80481 0.13675,1.01141 0.0983,1.15585 -0.18766,0.70739 -0.19767,-0.30996 -0.63553,-0.71114 -0.97296,-0.89171 -1.338,-0.7161 -3.20345,0.98827 -2.28844,2.0908 0.20178,0.24313 0.25029,0.50533 0.10784,0.58293 -1.46143,0.79578 -1.66996,0.43593 -1.04707,-1.8072 l -0.85561,-0.57389 c 0,0.57977 -1.32818,2.62195 -1.64187,2.62195 -0.0973,0 -0.0752,-0.60112 0.0489,-1.33592 0.17415,-1.0308 0.12832,-1.30332 -0.20001,-1.19387 -0.23405,0.078 -0.54627,0.60675 -0.69361,1.17535 -0.17217,0.66445 -0.7006,1.32079 -1.47939,1.83617 -0.66645,0.44104 -1.66167,0.89152 -2.21149,1.00147 -0.98274,0.19656 -1.27938,-1.15444 -1.27938,-1.15444 l -1.06844,1.18341 c 0,0 -0.43274,0.27434 -3.02577,0.28695 -1.72733,0.008 -2.398144,-0.52063 -2.398144,-0.52063 l -1.423574,-0.2377 c 0,0 -1.535462,1.45966 -2.404642,1.62582 -1.68308,0.32172 -3.44336,-1.03067 -3.44336,-2.64524 0,-0.99435 0.58885,-0.81169 0.70787,0.2195 0.0649,0.56249 0.32636,0.93114 0.71166,1.00431 0.51399,0.0976 0.58589,-0.0421 0.46036,-0.89743 -0.0937,-0.63821 -0.0188,-0.9712 0.2019,-0.89884 0.19278,0.0632 0.3972,0.5136 0.45465,1.00098 0.13143,1.1147 1.14185,1.04029 1.30314,-0.096 0.29181,-2.05583 -1.95749,-3.26133 -4.0163,-2.15257 -0.90278,0.48616 -1.07517,0.78783 -1.26371,2.2091 -0.19298,1.45472 -0.12983,1.73437 0.54254,2.40676 0.42128,0.42126 1.40654,0.88001 2.20768,1.02805 l 0,4.9e-4 c 0.79577,0.14689 2.24945,0.21317 3.23053,0.14679 5.11853,-0.34652 9.23649,-0.83672 11.99996,-1.42857 3.13188,-0.67073 9.30112,-2.47758 9.89158,-2.89701 0.17837,-0.1267 0.8858,-0.41162 1.57203,-0.6328 2.89394,-0.9327 6.04963,-4.31943 6.04963,-6.49288 0,-1.42876 -1.57404,-3.83646 -3.088,-4.72368 l -1.90506,-0.51404 0.56059,0.7473 c 1.57137,0.31429 2.78306,1.93826 3.1222,3.14976 0.4906,1.75256 0.0781,2.80569 -1.79008,4.57261 -0.94927,0.8978 -1.84422,1.63039 -1.98868,1.62762 -0.47278,-0.009 -3.68053,-3.60366 -3.49039,-3.91131 0.27075,-0.4381 0.77441,-0.36768 1.32831,0.18623 0.26756,0.26756 0.97688,0.48647 1.57631,0.48647 0.83282,0 1.2481,-0.2218 1.76064,-0.94159 0.8472,-1.18975 0.85587,-2.35784 0.0228,-3.11176 -0.5125,-0.46378 -0.80124,-0.51547 -1.37867,-0.24751 l -0.7302,0.33873 0.8922,0.35155 c 0.69267,0.27302 0.89171,0.56584 0.89171,1.31074 0,1.09324 -0.72264,1.4836 -2.10411,1.13685 -0.7613,-0.19106 -1.46324,-1.19366 -1.46324,-2.08985 0,-0.16054 0.4639,-0.82068 1.0314,-1.46704 0.66317,-0.75529 0.70863,-1.13187 1.18674,-1.14731 l -0.58482,-0.65466 c -1.61147,0.69323 -3.14296,0.87168 -3.74883,0.4366 -0.50313,-0.36128 -1.52533,-2.05676 -1.34732,-2.23477 0.0861,-0.0861 0.45886,0.0324 0.82853,0.2632 0.52317,0.32677 0.75853,0.33318 1.0618,0.03 0.56793,-0.56793 -0.55824,-1.7022 -1.68985,-1.7022 -0.63857,0 -1.16465,0.3413 -1.85659,1.20384 l -0.96584,1.20384 -1.33592,-0.88412 c -0.73477,-0.48626 -1.33591,-1.07374 -1.33591,-1.30598 0,-0.86318 3.587,-2.1164 7.13471,-2.49225 1.87294,-0.19844 4.13539,-0.49253 5.02726,-0.65371 0.89188,-0.16119 3.95669,-0.44415 6.8107,-0.62852 7.99533,-0.51652 9.94712,-0.68484 11.35101,-0.97866 0.7135,-0.14936 2.53402,-0.32099 4.04576,-0.38149 l 2.74879,-0.10974 0.0223,3.22909 c 0.0257,3.72548 -0.25261,4.24253 -2.47135,4.59732 -0.73649,0.11778 -1.94231,0.67333 -2.6799,1.23426 -1.3008,0.98928 -3.9941,2.21564 -5.78739,2.63525 -1.31474,0.30762 -1.7538,0.98455 -0.92592,1.4276 0.36826,0.1971 0.66938,0.64529 0.66938,0.99576 0,1.32845 2.61206,0.31078 5.81019,-2.26374 1.41972,-1.14293 1.46045,-1.15307 4.70279,-1.18579 4.68902,-0.0474 4.57989,-0.0248 5.89285,-1.2276 1.67262,-1.5323 3.25808,-2.00947 5.119896,-1.54067 1.79221,0.4513 4.55445,0.47941 5.31612,0.0541 1.02367,-0.57152 4.41512,-1.36161 7.04966,-1.64234 1.427,-0.15205 3.27893,-0.37554 4.11559,-0.49694 2.16317,-0.31383 2.8355,-0.0576 5.589267,2.13073 2.21563,1.76069 3.75406,2.43563 3.75406,1.64662 0,-0.16405 0.76621,-0.54797 1.70268,-0.85277 0.93648,-0.30483 1.9216,-0.73587 2.18915,-0.95775 1.02667,-0.8514 2.9382,-1.52854 3.81058,-1.35018 3.89818,0.79704 4.77851,0.90727 5.76792,0.72165 0.6184,-0.11603 1.12402,-0.35225 1.12402,-0.52449 0,-0.17223 0.78984,-0.70012 1.75494,-1.17344 l 1.75446,-0.86084 2.66566,0.75917 2.66565,0.75918 4.09326,-0.55347 c 2.31931,-0.31355 4.73393,-0.46358 5.57218,-0.34585 0.81364,0.11424 2.29274,0.0387 3.28706,-0.1677 1.64174,-0.34081 1.92328,-0.31166 3.06139,0.31402 0.68932,0.37898 2.15589,1.62644 3.25904,2.77207 1.80497,1.87448 3.02101,2.59418 3.02101,1.78772 0,-0.44799 -1.69894,-2.94833 -2.00341,-2.94833 -0.14667,0 -0.26651,-0.24609 -0.26651,-0.54729 0,-0.46094 0.10472,-0.43544 0.66131,0.16201 0.3845,0.41269 1.05186,0.70976 1.59482,0.70976 0.5136,0 1.1733,0.0919 1.4661,0.20428 0.35924,0.13784 0.58565,-2e-5 0.69645,-0.42377 0.10312,-0.39426 0.94103,-0.96601 2.2514,-1.53687 2.25649,-0.98307 2.50232,-0.98421 6.62685,-0.0276 2.60293,0.60377 3.0008,0.53189 5.51326,-0.99719 1.0113,-0.61544 3.76288,-0.42324 5.27098,0.36819 0.89295,0.46854 2.26293,0.56689 8.99939,0.64512 4.37018,0.0508 8.24953,0.21383 8.62075,0.36248 0.63228,0.25316 3.01076,2.73997 4.07711,4.26239 0.26202,0.37408 0.86912,0.82908 1.34874,1.01144 0.7502,0.28524 0.87177,0.24852 0.87177,-0.26367 0,-0.32744 -0.37188,-1.14372 -0.82663,-1.81384 -0.45477,-0.67013 -0.76295,-1.28228 -0.68507,-1.36015 0.0779,-0.0779 0.63205,0.15783 1.23188,0.52354 1.10946,0.67638 3.19869,0.91459 3.19869,0.36485 0,-0.42475 -1.42711,-1.37453 -3.89183,-2.59059 -1.15945,-0.57208 -2.61856,-1.30876 -3.24287,-1.63711 -0.62433,-0.32835 -2.0111,-0.85001 -3.08135,-1.15919 -1.07025,-0.30918 -2.06326,-0.62867 -2.20673,-0.70976 -0.37649,-0.21282 0.61639,-1.68095 2.07894,-3.07423 1.18847,-1.13213 1.26322,-1.31579 1.26322,-3.11175 0,-2.33364 0.49915,-2.89548 2.91317,-3.27708 0.93402,-0.14764 1.81804,-0.46194 1.96444,-0.69884 0.38809,-0.62795 -0.16949,-1.45285 -1.29791,-1.92026 -0.93596,-0.38767 -1.46354,-1.23093 -0.55108,-0.88079 0.75536,0.28987 2.64755,-0.25477 2.63762,-0.75917 -0.006,-0.26025 0.17713,-1.0389 0.40524,-1.73024 0.54046,-1.63789 0.52335,-2.1483 -0.0717,-2.1483 -0.26756,0 -0.48648,-0.21891 -0.48648,-0.48647 0,-0.70641 -0.60239,-0.59844 -1.81241,0.32448 l -0.0152,0.76107 c 0.23594,0.1262 0.53019,1.47442 0.53019,1.63094 0,0.15652 -0.21892,0.46634 -0.48649,0.68839 -0.4064,0.33733 -1.15184,0.42389 -1.61621,0.0846 -1.05657,-0.77202 -0.15116,-1.87462 1.05135,-1.23141 l -0.50643,-1.21667 c -1.28533,0.98039 -0.58442,0.29332 -0.80621,-0.55488 -0.2461,-0.94105 -0.76453,-0.79533 -1.15491,0.32447 -0.73128,2.09779 -3.61581,0.60188 -3.61581,-1.87513 0,-1.27165 0.52633,-1.65379 2.78537,-2.02145 1.03426,-0.16834 2.0949,-0.52048 2.35686,-0.78245 0.49297,-0.493 0.24287,-0.68643 -1.66372,-1.28745 -0.43121,-0.13593 -0.52427,-0.38571 -0.37103,-0.996245 0.2858,-1.138747 -0.76149,-1.546663 -1.42095,-0.553465 -0.36231,0.545632 -0.48333,0.72074 -1.6471,1.07747 0.29011,0.71238 -1.70339,3.7652 -2.21196,3.72366 -0.84666,-0.0691 -0.82548,0.62509 0.0508,1.66657 0.45333,0.53872 0.82427,1.06779 0.82427,1.17581 0,0.42363 -0.55006,0.15439 -1.54923,-0.75822 -1.06972,-0.97701 -1.17512,-1.28586 -0.85039,-2.49605 0.16146,-0.60173 1.85627,-3.18253 2.63906,-3.52982 -1.46405,-0.307334 -1.13529,-0.925786 0.24704,-1.451367 0.51029,-0.193997 0.81095,-0.561012 0.81095,-0.990532 0,-0.589538 -0.13244,-0.653496 -0.97296,-0.468904 -0.94102,0.206684 -1.35826,-0.210085 -0.64895,-0.648477 0.71858,-0.444082 0.27894,-1.06941 -0.84421,-1.200516 -0.17606,-0.02059 -0.33385,-0.03254 -0.47413,-0.03374 z M 39.374607,108.67158 c 0.31552,0.006 0.4923,0.37518 0.20238,0.9169 -0.18514,0.34594 -0.55063,0.62853 -0.81191,0.62853 -0.59153,0 -0.60306,-0.34925 -0.0375,-1.12261 0.21866,-0.29906 0.45775,-0.42632 0.64705,-0.42282 z m 73.091023,10.89731 -1.14778,2.5469 -2.60579,-1.00765 1.27606,2.48513 -2.41292,1.40908 2.73882,0.55203 -0.40287,2.76449 2.13927,-1.79675 1.91028,2.03856 -0.0708,-2.79297 2.78491,-0.22234 -2.22812,-1.68605 1.56253,-2.316 -2.70698,0.69124 z"
       id="path5948"
       inkscape:connector-curvature="0"
       sodipodi:nodetypes="cscccccccccccccccccccccccccccccccccccccccccccccscscsscscsccccccsccsccsccccsccssscccccccccssccccccsccsccsscscsccscssccccssscsssscsccccscccscsscssccscccsccccsccccccccccccscscccccccscssscsccccscsssccccsccssssccccscscscsscscssscsccccccccccccsscscsssccsscccsscssccsscccccscccsssscccccccscccscccscccccccscccccscsccccsccscccssccsssccccscsccccsccscccsssscccsccccsccsccscsscsccsccccccccsssscsccccccccssscccsccsccsscccccssccsccccccscsscccccscsccsccccccsscccccccccccccccccc" />
  </g>
</svg>
