<?xml version="1.0" encoding="UTF-8" standalone="no"?>
<!-- Created with Inkscape (http://www.inkscape.org/) -->

<svg
   xmlns:dc="http://purl.org/dc/elements/1.1/"
   xmlns:cc="http://creativecommons.org/ns#"
   xmlns:rdf="http://www.w3.org/1999/02/22-rdf-syntax-ns#"
   xmlns:svg="http://www.w3.org/2000/svg"
   xmlns="http://www.w3.org/2000/svg"
   xmlns:sodipodi="http://sodipodi.sourceforge.net/DTD/sodipodi-0.dtd"
   xmlns:inkscape="http://www.inkscape.org/namespaces/inkscape"
   width="210mm"
   height="297mm"
   viewBox="0 0 744.09448819 1052.3622047"
   id="svg4730"
   version="1.1"
   inkscape:version="0.91 r13725"
   sodipodi:docname="merry_christmas.svg">
  <defs
     id="defs4732" />
  <sodipodi:namedview
     id="base"
     pagecolor="#ffffff"
     bordercolor="#666666"
     borderopacity="1.0"
     inkscape:pageopacity="0.0"
     inkscape:pageshadow="2"
     inkscape:zoom="0.35"
     inkscape:cx="-97.857143"
     inkscape:cy="520"
     inkscape:document-units="px"
     inkscape:current-layer="layer1"
     showgrid="false"
     inkscape:window-width="1920"
     inkscape:window-height="1018"
     inkscape:window-x="-8"
     inkscape:window-y="-8"
     inkscape:window-maximized="1" />
  <metadata
     id="metadata4735">
    <rdf:RDF>
      <cc:Work
         rdf:about="">
        <dc:format>image/svg+xml</dc:format>
        <dc:type
           rdf:resource="http://purl.org/dc/dcmitype/StillImage" />
        <dc:title></dc:title>
      </cc:Work>
    </rdf:RDF>
  </metadata>
  <g
     inkscape:label="Layer 1"
     inkscape:groupmode="layer"
     id="layer1">
    <rect
       style="color:#000000;clip-rule:nonzero;display:inline;overflow:visible;visibility:visible;opacity:0.98999999;isolation:auto;mix-blend-mode:normal;color-interpolation:sRGB;color-interpolation-filters:linearRGB;solid-color:#000000;solid-opacity:1;fill:none;fill-opacity:1;fill-rule:nonzero;stroke:#0000ff;stroke-width:1.06269133;stroke-linecap:round;stroke-linejoin:round;stroke-miterlimit:4;stroke-dasharray:none;stroke-dashoffset:0;stroke-opacity:1;color-rendering:auto;image-rendering:auto;shape-rendering:auto;text-rendering:auto;enable-background:accumulate"
       id="rect5278"
       width="1061.9294"
       height="530.43335"
       x="29.349676"
       y="-580.84155"
       transform="matrix(0,1,-1,0,0,0)" />
    <path
       style="fill:none;stroke:#ff0000;stroke-width:0.6764648;stroke-miterlimit:4;stroke-dasharray:none;stroke-opacity:1"
       d="m 129.78423,229.60193 c 15.46617,0.78395 18.02754,0.61835 17.00731,-1.09915 -0.66062,-1.11209 -2.67207,-4.38719 -4.46988,-7.27794 -8.7257,-14.03017 -11.51939,-33.96507 -6.28547,-44.85105 2.98913,-6.21705 4.52883,-8.20151 10.47055,-13.49498 l 3.89898,-3.47359 -0.91673,10.84475 c -0.79396,9.39262 -0.4974,11.71106 2.21466,17.31342 1.72226,3.55776 4.65174,7.46473 6.50992,8.6823 3.35493,2.19818 3.39056,2.16153 5.1008,-5.25006 0.94724,-4.10499 3.3794,-10.358 5.40481,-13.89538 l 3.68253,-6.43167 1.70887,10.14199 c 2.06568,12.25966 4.9627,18.70736 11.06121,24.61827 l 4.59752,4.45603 0,-12.74699 c 0,-17.82182 1.87583,-18.87916 8.6195,-4.85848 3.4559,7.18505 8.05896,13.84418 12.95173,18.73702 8.95356,8.95351 11.13927,9.558 9.85762,2.72628 -0.64675,-3.44748 -0.0114,-6.88739 2.17942,-11.81093 l 3.09194,-6.94683 3.42198,7.15883 c 1.88209,3.93743 6.34812,10.03067 9.92453,13.54067 5.69869,5.59286 6.50257,5.99452 6.50257,3.24945 0,-3.88978 4.20555,-14.64337 5.72675,-14.64337 0.61655,0 1.48806,1.46255 1.93673,3.25014 1.28402,5.11595 9.35456,16.48273 14.10428,19.86481 l 4.32198,3.07754 -1.01347,-4.61431 -1.01348,-4.61431 4.72169,2.44167 4.72169,2.44167 4.55548,-5.4261 4.5555,-5.42609 0.99717,7.25044 c 1.18774,8.63581 1.78487,8.90782 19.6159,8.93588 13.51834,0.0218 16.12067,-1.54032 10.25514,-6.15417 -4.90347,-3.85714 -4.16911,-4.90487 4.18043,-5.96427 4.13381,-0.52455 8.64344,-1.27266 10.02139,-1.66252 3.37751,-0.95541 3.16597,-5.20059 -0.42094,-8.44672 -2.99568,-2.71104 -4.35876,-2.57704 -17.4744,1.71796 -1.84014,0.60265 -2.50535,0.039 -2.50535,-2.12523 0,-1.62014 0.69272,-3.37394 1.5394,-3.89723 0.97992,-0.60552 0.41508,-1.99878 -1.55417,-3.83344 -1.85527,-1.72849 -2.81164,-3.96011 -2.38923,-5.57544 0.48885,-1.86937 -0.0526,-2.6933 -1.76988,-2.6933 -9.4278,0 -25.19148,-10.36223 -31.64241,-20.80005 l -3.07118,-4.96924 -15.27323,0 c -12.69988,0 -16.05717,0.48331 -19.92602,2.84229 -3.80441,2.31958 -4.65279,3.73884 -4.65279,7.78405 0,6.72281 -1.662,7.24793 -6.58118,2.07918 -3.83499,-4.02951 -4.68583,-4.29763 -11.01445,-3.47118 l -6.85841,0.89574 3.07254,-6.02269 c 2.90783,-5.69982 2.94932,-6.28106 0.77401,-10.8428 -3.28083,-6.87994 -2.99869,-7.33222 3.78586,-6.06804 5.5362,1.03158 6.47754,0.75625 10.44746,-3.05545 5.53775,-5.31717 6.36914,-5.25693 6.39609,0.46364 0.0431,9.15428 4.05641,11.09511 22.94317,11.09511 12.86888,0 14.45943,-0.27144 13.66877,-2.33184 -3.0059,-7.83318 -4.02719,-16.32903 -3.2636,-27.14905 l 0.84941,-12.03632 -37.93953,0 c -44.51257,0 -45.4504,0.21646 -47.04605,10.85689 l -0.9994,6.66463 -4.79166,-4.64432 c -4.43511,-4.29866 -5.27887,-4.57113 -11.33966,-3.66233 -7.31695,1.09731 -7.53284,0.73448 -3.76957,-6.33466 2.59493,-4.87453 2.5935,-5.12088 -0.06,-10.32227 -1.49516,-2.93071 -2.71844,-5.5972 -2.71844,-5.92556 0,-0.32825 2.93842,-0.26571 6.52981,0.13904 5.88717,0.66359 6.99461,0.28553 11.25286,-3.8418 l 4.72307,-4.577779 0.82578,6.156689 c 1.50519,11.2219 1.39797,11.19658 47.33718,11.19658 l 40.28734,0 3.57662,-6.80023 c 1.96712,-3.74009 7.23389,-10.545019 11.70389,-15.121869 7.53397,-7.71418 8.06632,-8.69719 7.29242,-13.46624 l -0.83484,-5.14458 4.87639,1.27999 c 2.68202,0.70391 12.32349,1.08987 21.42544,0.85761 14.21667,-0.36284 17.73741,0.0218 24.98106,2.73245 10.19082,3.81283 20.37863,12.91729 26.40681,23.598609 5.1148,9.06289 9.97621,12.76175 15.08706,11.47902 4.46661,-1.12102 4.71218,1.36199 0.878,8.87758 l -2.7115,5.315 4.81953,3.57564 c 2.65074,1.96659 4.83727,3.91761 4.85895,4.33553 0.0216,0.41804 -2.65153,1.70651 -5.94044,2.86326 -3.28892,1.15687 -6.22906,2.87081 -6.53364,3.80893 -1.37341,4.22983 19.07143,9.03163 38.45472,9.03163 7.32644,0 9.03935,-0.52306 11.93152,-3.64378 l 3.37699,-3.6439 6.36162,4.48409 c 6.14481,4.33131 7.08575,4.52945 27.60875,5.81321 22.30235,1.3951 31.97191,0.10308 40.56389,-5.42014 2.81697,-1.81084 3.60602,-1.85505 4.59323,-0.25769 1.45721,2.35783 0.18792,8.40125 -2.32929,11.09042 -1.53506,1.63996 -1.16262,2.56112 2.16891,5.36436 3.59761,3.02726 6.82719,9.96746 5.33339,11.46127 -0.31478,0.31484 -3.40623,-0.71341 -6.8699,-2.28488 -3.46367,-1.57158 -8.43923,-2.87138 -11.05679,-2.88868 -4.15602,-0.0275 -39.07836,12.99299 -42.22007,15.74126 -0.64196,0.56166 1.29074,2.01928 4.29488,3.23926 3.00415,1.21998 12.48476,5.56273 21.06804,9.65066 15.81856,7.53379 17.52567,7.83386 27.70077,4.86937 2.74623,-0.80023 3.22116,-0.398 3.22116,2.72764 0,2.01642 -1.48831,5.39644 -3.30736,7.51124 -3.29045,3.82542 -3.29389,3.87227 -0.67085,9.17398 2.14768,4.34081 2.34296,6.09805 1.05324,9.47726 l -1.58329,4.14852 -2.87109,-3.93022 c -3.25496,-4.4558 -12.26528,-7.45477 -26.83628,-8.93198 -6.83371,-0.69291 -9.46591,-0.44999 -10.35738,0.95586 -1.79715,2.83417 -1.44092,10.74797 0.98707,21.92772 1.19703,5.51177 2.57456,11.89157 3.06116,14.17747 l 0.88474,4.15596 -8.97812,-0.81408 c -11.55682,-1.04796 -12.97313,-2.48279 -8.13107,-8.23724 7.32931,-8.71037 3.19914,-17.15605 -8.38982,-17.15605 -3.54328,0 -6.44232,0.3981 -6.44232,0.88474 0,0.48652 1.99924,3.16173 4.44276,5.94469 5.17443,5.89338 4.4502,6.77824 -6.76539,8.26611 l -7.1817,0.95266 0.0994,-6.90915 c 0.0805,-5.59458 -0.39887,-7.00925 -2.51921,-7.43507 -4.44575,-0.89288 -9.31492,1.02573 -10.27425,4.04829 -1.27902,4.02987 1.57328,11.81265 5.77624,15.76119 4.4903,4.21838 4.44476,5.41339 -0.27467,7.20773 -6.02457,2.29049 -1.89371,4.68348 8.08496,4.68348 6.7953,0 9.08315,-0.57448 10.61137,-2.66442 1.84716,-2.5262 2.14041,-2.53857 5.65053,-0.23869 4.71199,3.08751 10.11772,3.08602 15.34899,0 2.2626,-1.33656 4.47523,-2.06864 4.91694,-1.62701 2.00302,2.00302 3.45271,17.82376 2.09521,22.86515 -3.34165,12.40992 -18.65188,17.1091 -27.36247,8.3985 -4.15199,-4.15195 -4.50339,-4.23727 -10.98498,-2.66856 -9.25811,2.24079 -10.35112,3.67081 -5.67932,7.43073 2.77443,2.23288 3.5151,3.71238 2.59981,5.19336 -1.98158,3.20628 -0.38843,4.35513 6.03941,4.35513 3.95845,0 6.92419,-0.95495 8.98853,-2.89429 l 3.08087,-2.89441 3.67953,2.89441 c 4.43763,3.49054 5.66792,3.55685 11.36295,0.61182 3.64719,-1.88609 4.6256,-1.94816 5.63349,-0.3579 2.30601,3.6385 1.36861,19.44745 -1.59968,26.97804 -1.57479,3.99527 -2.86326,8.81287 -2.86326,10.7057 0,1.89284 -0.60037,3.8126 -1.33415,4.26613 -0.77463,0.47874 -0.47814,2.46549 0.707,4.73732 2.38372,4.56941 2.49463,6.01741 0.68064,8.88583 -1.12416,1.77773 -1.91673,1.56287 -5.03234,-1.36418 l -3.69805,-3.47404 -5.05871,5.05868 -5.05872,5.05869 4.6195,7.43118 4.61951,7.43129 3.42144,-3.21429 c 2.89904,-2.72353 3.62517,-2.89212 4.75574,-1.1043 1.79512,2.83863 1.71782,6.20822 -0.18611,8.11217 -1.09845,1.09846 -1.12033,2.3938 -0.0735,4.34974 1.46435,2.73613 0.74502,8.97585 -1.03456,8.97402 -2.8289,0 -17.78119,-13.79058 -21.10379,-19.46017 -3.41363,-5.82489 -4.12972,-6.37567 -5.62706,-4.32787 -1.57167,2.14939 -1.87543,2.15386 -3.61866,0.0539 -1.52397,-1.83627 -3.45947,-2.09843 -9.71848,-1.31642 -11.4905,1.43564 -12.0448,1.80156 -11.01805,7.27462 0.87615,4.67019 0.8289,4.7199 -3.81516,4.00764 -4.13916,-0.63484 -5.10367,-0.12014 -8.05409,4.2982 l -3.35182,5.0194 4.66514,5.80508 c 4.67466,5.81699 5.61236,6.3539 10.27035,5.8801 2.79448,-0.28427 3.35123,2.8014 0.94044,5.21226 -1.13212,1.13214 -0.88862,2.59698 0.88047,5.29703 1.34496,2.05261 1.88811,3.77927 1.20699,3.83687 -0.68109,0.0573 -5.97741,0.0126 -11.7696,-0.0974 -12.77662,-0.24589 -13.148,1.71303 -1.39811,7.37449 8.64311,4.16455 12.08517,9.40591 10.45148,15.915 -1.43111,5.702 -5.64854,8.54716 -15.37453,10.37174 -4.90428,0.92002 -8.81248,2.25716 -8.68487,2.97137 0.12761,0.71433 0.69568,3.78488 1.26237,6.8236 0.97511,5.22876 0.86122,5.47133 -2.12414,4.52383 -6.69359,-2.12454 -12.03571,8.81092 -5.90669,12.09106 5.89759,3.15634 14.93765,0.0836 12.3017,-4.18173 -0.50795,-0.82198 0.0677,-1.49438 1.27928,-1.49438 1.21156,0 3.48643,-2.51601 5.05525,-5.59114 5.84647,-11.46012 16.68605,-15.14433 23.75597,-8.07438 2.79937,2.79935 3.51399,4.97829 3.51399,10.71464 0,5.9471 -0.73099,8.01449 -4.19916,11.87598 -2.7724,3.08682 -4.6729,4.18894 -5.59347,3.24373 -2.21639,-2.27572 -4.45726,-12.04091 -2.97351,-12.95783 2.71048,-1.67524 1.35049,-5.14206 -1.83555,-4.67913 -4.39531,0.63861 -9.22999,9.0701 -6.84718,11.94126 1.42205,1.71348 1.3326,2.11663 -0.46959,2.11663 -1.22444,0 -2.5992,1.17508 -3.05502,2.61117 -1.19977,3.78018 -8.08666,9.92828 -12.24883,10.93477 -4.53871,1.09766 -15.25008,-4.23544 -19.08516,-9.50234 -1.53399,-2.10666 -3.09633,-7.02814 -3.4719,-10.9366 l -0.68283,-7.10637 -13.07562,-0.17454 c -16.64824,-0.22231 -21.46962,2.17183 -22.94415,11.393 l -0.97576,6.10205 -4.78462,-4.63744 c -4.46352,-4.32615 -5.23733,-4.56952 -11.53046,-3.62579 l -6.74585,1.01164 2.27841,-4.40598 c 1.25314,-2.42334 2.27842,-4.68222 2.27842,-5.01962 0,-0.33753 -4.9928,-0.69669 -11.09511,-0.79805 -14.32526,-0.23799 -20.40069,2.87998 -20.40069,10.46955 0,6.69039 -1.65648,7.24827 -6.50281,2.18981 -3.77284,-3.938 -4.604,-4.18641 -11.11748,-3.3224 l -7.03978,0.93388 3.38236,-5.93392 3.38236,-5.93393 -3.2031,-5.90907 -3.20309,-5.90907 6.78217,0.78831 c 6.14972,0.71478 7.21177,0.37612 11.38915,-3.63141 4.9372,-4.7364 5.6177,-4.32408 6.42657,3.89403 0.58739,5.96794 5.24115,7.86078 19.38853,7.88609 6.496,0.0114 11.81092,-0.32367 11.81092,-0.74513 0,-0.42136 -1.10562,-2.45359 -2.45694,-4.51593 l -2.45695,-3.74984 7.10973,0.82531 c 6.52801,0.75762 7.48605,0.46419 11.709,-3.58697 l 4.59926,-4.41216 0.96078,6.00836 c 1.4524,9.08282 4.04886,10.20648 23.4446,10.14601 15.29531,-0.0481 16.81328,-0.30511 20.742,-3.51574 5.21085,-4.25857 3.59843,-6.59132 -2.23988,-3.24063 l -4.25843,2.44396 0.13773,-5.33413 c 0.0757,-2.9338 -0.0601,-6.62259 -0.30194,-8.19738 -0.29952,-1.95022 0.24501,-2.6949 1.70771,-2.33538 1.18109,0.29033 4.93288,0.86264 8.33734,1.27185 l 6.1899,0.74388 -0.46339,-4.85082 c -0.44343,-4.64202 -0.70997,-4.84783 -6.18989,-4.77842 -3.14959,0.0401 -7.01498,0.36191 -8.58977,0.71581 -2.94171,0.66095 -3.39004,-1.16237 -3.62596,-14.74668 l -0.0685,-3.93698 -19.65959,0 -19.6596,0 -2.75491,5.11561 c -3.74931,6.96206 -12.77535,12.06392 -21.34298,12.06392 -7.78184,0 -9.2314,-0.68225 -40.97646,-19.28734 l -23.62185,-13.84418 -16.05848,0.45995 c -18.35817,0.52581 -20.18367,1.46839 -21.47381,11.08698 l -0.80614,6.01043 -4.72308,-4.57777 c -4.25824,-4.12732 -5.36567,-4.50539 -11.25285,-3.8418 -3.5914,0.40475 -6.5028,0.33191 -6.4698,-0.16183 0.0329,-0.49385 1.25628,-3.14511 2.71842,-5.89166 2.59493,-4.87453 2.59351,-5.12087 -0.06,-10.32227 -1.49513,-2.93071 -2.71842,-5.66398 -2.71842,-6.07399 0,-0.41002 2.93413,-0.34325 6.52029,0.14832 5.97379,0.81877 6.91874,0.50748 11.27432,-3.71411 l 4.75404,-4.60789 0.98363,6.55937 c 1.27109,8.47615 5.45415,10.85323 18.98755,10.79001 11.69439,-0.055 12.50575,0.7496 -15.83414,-15.6966 -20.04148,-11.63042 -20.95909,-12.36204 -20.95909,-16.71178 0,-4.96248 5.44691,-12.62214 10.00443,-14.06866 1.90813,-0.60563 16.95919,7.43805 50.40199,26.93624 26.2248,15.28978 49.83336,28.89723 52.46347,30.23884 9.61691,4.90544 12.22333,-1.20051 3.09194,-7.24346 -4.4313,-2.93244 -5.72651,-4.70273 -5.72651,-7.82688 0,-5.97687 2.89835,-11.2747 7.45823,-13.63277 3.75262,-1.94059 4.51593,-1.81518 10.81639,1.77694 13.41624,7.64879 17.64824,13.60264 17.73615,24.95212 l 0.0549,7.06938 17.75792,0 c 14.43092,0 17.75785,-0.38299 17.75785,-2.04402 0,-1.62049 1.62377,-1.87635 7.83681,-1.23509 7.47847,0.77182 20.79574,-1.65153 20.79574,-3.7842 0,-0.53061 -2.22489,-3.12117 -4.94422,-5.75686 l -4.94421,-4.79217 3.51258,-5.99382 c 1.93193,-3.29652 3.5126,-6.46936 3.5126,-7.05071 0,-1.3061 -20.9868,-0.27453 -25.41139,1.24906 -2.67527,0.92129 -3.22116,0.59568 -3.22116,-1.92101 0,-2.4269 -0.87381,-3.03024 -4.38901,-3.03024 -6.52885,0 -9.48453,2.20184 -10.54519,7.85563 l -0.95113,5.06991 -4.66099,-3.55514 c -3.82843,-2.92006 -5.65596,-3.39364 -10.23128,-2.65114 l -5.57031,0.90399 3.02433,-5.12592 3.02431,-5.1258 -2.85601,-5.32875 -2.85601,-5.32863 5.88269,0.94064 c 5.10194,0.81591 6.3259,0.46247 9.22214,-2.6626 1.8367,-1.98183 3.71955,-3.60335 4.18413,-3.60335 0.46459,0 1.27096,2.27228 1.79197,5.04953 0.52102,2.77724 2.11844,5.67623 3.54983,6.44232 3.84692,2.0588 9.52825,1.69069 10.43652,-0.67618 0.59815,-1.55876 1.82864,-1.77236 4.98949,-0.86574 4.95808,1.42189 36.04009,1.55315 36.04009,0.15209 0,-0.53072 -0.88825,-2.17974 -1.97387,-3.66439 -1.24,-1.69585 -1.70287,-4.72002 -1.24497,-8.13393 0.43976,-3.27866 0.0174,-6.29172 -1.06467,-7.59553 -2.08574,-2.51325 -7.33913,-2.85054 -9.57481,-0.61491 -1.06786,1.06788 -3.12795,1.10968 -6.65814,0.13491 -3.33622,-0.92116 -7.00114,-0.92643 -10.55095,-0.0149 -12.33405,3.16641 -11.88141,3.1726 -11.88141,-0.16172 0,-1.71841 0.64597,-4.3313 1.43548,-5.80656 0.95959,-1.79297 0.95959,-2.97641 0,-3.56944 -1.65487,-1.02275 -1.97289,-7.90167 -0.36177,-7.82562 0.59054,0.0275 2.6843,0.97144 4.65279,2.09671 5.08212,2.90528 11.39477,2.60865 16.98216,-0.79771 4.40168,-2.68356 5.02679,-2.74139 7.30902,-0.67596 5.80751,5.2558 10.35223,-2.38531 6.66604,-11.20758 -1.85743,-4.44549 -1.87805,-5.2141 -0.13997,-5.2141 1.4677,0 1.81479,-1.11908 1.23941,-3.99596 -0.43957,-2.19783 -0.19557,-7.31699 0.54219,-11.37617 1.42914,-7.86296 0.40995,-10.39716 -4.18149,-10.39716 -3.8806,0 -5.58442,4.28411 -3.16958,7.96958 1.84321,2.81309 1.77841,3.19517 -0.64962,3.83012 -1.84631,0.48286 -2.98466,2.50363 -3.60872,6.40636 -2.47831,15.49846 -17.61182,19.93478 -31.08056,9.11099 -5.2819,-4.24472 -6.01115,-4.41101 -19.33794,-4.41101 l -13.84906,0 2.40056,3.6637 c 3.7093,5.66111 2.44179,9.84673 -3.14498,10.38537 -3.23016,0.31141 -4.65443,1.18688 -4.65815,2.86326 -0.008,3.83584 -5.2304,11.37146 -8.62699,12.44954 -2.77228,0.87993 -3.00258,1.65725 -2.15851,7.28595 1.05385,7.02745 0.75749,7.29717 -4.34484,3.95404 -3.38845,-2.22017 -3.75806,-2.18157 -6.84213,0.71581 -4.5951,4.31688 -5.2231,3.91052 -5.2231,-3.37956 0,-3.54322 -0.56927,-6.44232 -1.26504,-6.44232 -2.56724,0 -12.03908,12.04526 -15.33851,19.50587 -2.96373,6.7015 -3.92828,7.69506 -7.47062,7.69506 -7.96535,0 -21.78927,-11.57615 -29.46514,-24.67405 -4.37912,-7.47228 -8.54978,-22.94211 -7.27124,-26.97048 1.21871,-3.83974 6.18612,-5.59777 16.16539,-5.72124 4.47627,-0.055 9.42713,-0.6542 11.00192,-1.33095 1.76829,-0.75991 -5.78675,-1.26888 -19.75597,-1.33096 -27.60586,-0.12289 -30.22771,0.76666 -31.7269,10.76401 l -1.00058,6.6723 -5.25407,-4.95046 c -4.79787,-4.52051 -5.75133,-4.85985 -10.9806,-3.90868 -3.14958,0.57287 -5.9325,0.84993 -6.18428,0.61548 -0.25179,-0.23433 0.88873,-3.0654 2.53443,-6.29137 l 2.99223,-5.8652 -2.97231,-5.82627 -2.97232,-5.82615 6.62797,0.99389 c 6.15531,0.92311 6.96969,0.66278 11.41963,-3.65031 l 4.79166,-4.6442 0.99768,6.65307 c 0.63357,4.2249 1.94684,7.16111 3.59831,8.04494 1.46385,0.78338 14.37533,1.29797 29.53776,1.17725 14.81542,-0.11796 25.00443,-0.47908 22.64224,-0.80251 -9.55684,-1.30862 -14.87884,-3.40292 -15.76824,-6.20524 -4.11731,-12.9725 24.35559,-45.74795 39.74247,-45.74795 3.94945,0 7.38514,3.29091 8.96757,8.58977 1.66282,5.56811 5.90811,13.20842 9.77344,17.58954 l 3.51944,3.98898 1.0253,-8.83394 1.02528,-8.83395 2.96547,4.84486 c 1.63101,2.66477 3.16558,5.11068 3.41015,5.43548 0.24457,0.3247 2.15111,-0.18713 4.23675,-1.13739 l 3.79206,-1.72781 -0.82197,6.94031 c -0.68517,5.78514 -0.37505,7.21941 1.86323,8.61725 2.85988,1.78609 5.68182,9.92404 5.695,16.4234 0.008,3.89403 0.11041,3.93698 9.40128,3.93698 l 9.39331,0 -0.93782,-6.25381 c -1.11525,-7.43702 1.75769,-14.15044 7.29762,-17.05309 1.99978,-1.04784 4.80765,-3.69119 6.23968,-5.87414 l 2.60368,-3.96916 3.76372,6.73404 c 2.07004,3.70367 3.76371,6.90513 3.76371,7.11427 0,0.20924 -1.76803,0.82404 -3.92897,1.36646 -2.16093,0.5423 -4.73786,1.65736 -5.72651,2.47785 -2.86214,2.37548 -2.12273,9.31658 1.33567,12.53854 6.58577,6.13561 16.71234,1.45408 12.28952,-5.68138 -1.46818,-2.36872 -1.47041,-3.15909 -0.0114,-4.06766 0.99589,-0.62018 3.25071,-3.98267 5.0107,-7.47229 4.1156,-8.16028 9.39068,-10.88129 16.79437,-8.66318 6.90652,2.06933 12.89063,8.07575 12.89063,12.93894 0,2.08318 0.93121,7.31023 2.06936,11.61565 1.60003,6.05257 1.68055,8.15272 0.35501,9.25965 -0.97889,0.8174 -1.77254,5.42369 -1.85001,10.7372 -0.0746,5.11813 -0.27612,10.91622 -0.44778,12.88465 -0.17164,1.96855 0.51267,6.60598 1.52068,10.30554 1.73013,6.34978 2.15624,6.77503 7.60879,7.59266 3.17682,0.47645 7.50288,1.19524 9.61346,1.59724 2.94961,0.562 4.23528,-0.0126 5.55706,-2.4821 1.62065,-3.02818 1.8269,-3.06643 3.58337,-0.66427 2.32388,3.1781 3.76847,2.30057 9.19385,-5.58496 4.97926,-7.23716 5.14536,-7.90086 1.9771,-7.90086 -1.28497,0 -4.42136,-2.21077 -6.96976,-4.91288 l -4.63344,-4.91289 -5.19907,3.53292 c -5.86006,3.98199 -6.07488,4.74143 -3.01489,10.65885 2.43134,4.7017 1.93262,4.97554 -6.12528,3.36399 -3.82687,-0.76541 -4.39552,-1.56415 -5.17812,-7.27382 -1.14034,-8.31969 0.52177,-11.13164 9.1706,-15.51425 6.83766,-3.46499 9.07032,-6.23033 5.3172,-6.58583 -2.74411,-0.25998 -2.83113,-0.25334 -9.14483,0.6944 l -5.92367,0.88921 -0.0535,-9.27866 c -0.0294,-5.10312 0.5583,-9.65662 1.30609,-10.11886 0.75831,-0.46866 0.96627,-3.8055 0.4702,-7.54502 -1.03732,-7.81978 0.90518,-10.38892 10.14312,-13.41538 3.11843,-1.02173 5.67843,-2.5018 5.6889,-3.2892 0.0348,-2.6193 -6.22839,-2.36756 -12.73779,0.51184 l -6.42817,2.84344 0.23915,-8.62825 c 0.1693,-6.10812 -0.37409,-9.10698 -1.86051,-10.2674 -1.32594,-1.03512 -2.12557,-4.2769 -2.16997,-8.79729 -0.1462,-14.88756 -2.50388,-33.6468 -4.42959,-35.24507 -2.28298,-1.89467 -2.56491,-7.22445 -0.49183,-9.29756 0.97969,-0.97969 0.2826,-2.54784 -2.14744,-4.83065 -3.8075,-3.57701 -4.76661,-9.72968 -1.955,-12.54129 1.2363,-1.23624 2.58731,-0.63221 5.45745,2.44029 4.77226,5.10874 17.03361,7.11554 27.33842,4.47447 5.83092,-1.49439 7.78129,-1.3431 15.2891,1.18608 4.73308,1.59448 11.42528,3.33065 14.87157,3.85817 l 6.26599,0.95908 -3.57907,-2.81996 c -1.96849,-1.55108 -10.21112,-7.22422 -18.31697,-12.60703 l -14.73789,-9.78695 15.99374,-8.54807 c 13.08707,-6.99448 15.54249,-8.8005 13.51074,-9.93756 -4.30517,-2.40926 -20.2307,-0.59384 -24.8683,2.83485 l -4.14265,3.06277 -8.42535,-3.40315 c -4.63394,-1.87177 -14.21874,-4.11347 -21.29956,-4.98172 -16.57308,-2.03223 -22.89289,-3.71823 -30.54317,-8.14825 -6.84167,-3.96195 -11.59339,-12.14113 -11.64796,-20.0499 -0.0219,-3.17409 -0.84271,-4.81382 -2.70589,-5.40514 -1.47093,-0.46682 -3.7792,-2.06956 -5.12946,-3.56154 -2.32919,-2.57372 -2.30385,-2.79374 0.4942,-4.29122 4.92343,-2.63488 6.26862,-6.62614 3.82552,-11.35063 -5.08832,-9.83974 -18.85103,-16.763209 -31.00163,-15.59569 -8.34148,0.80148 -9.84182,2.36848 -9.87271,10.3115 l -0.0219,5.63637 -4.01531,-3.84684 c -4.62647,-4.43243 -10.26943,-4.97336 -13.59127,-1.30278 -3.27127,3.61469 -9.60888,17.91057 -10.57247,23.84839 -1.8821,11.59813 6.76282,29.25228 15.78188,32.22881 8.53344,2.8163 15.26042,-1.66584 15.26042,-10.16787 0,-6.25451 0.0587,-6.28818 5.7976,-3.32047 3.09647,1.60125 4.22964,3.22518 4.24571,6.08442 0.0274,4.86846 1.28731,6.83207 5.15788,8.03865 4.25797,1.3274 7.16145,5.08548 8.20534,10.62061 l 0.89351,4.73778 -6.43651,-0.96527 c -7.20582,-1.08059 -9.57088,0.17535 -13.06906,6.94007 -1.41759,2.74128 -1.68726,4.69334 -0.77447,5.60614 1.75736,1.75735 14.02938,-0.56635 29.43107,-5.57269 8.92969,-2.90266 11.74519,-4.51181 13.60046,-7.77339 1.2868,-2.2622 2.80013,-4.11714 3.36297,-4.12218 1.68007,-0.0149 4.20574,5.68219 3.67867,8.29783 -0.26933,1.33668 0.97839,3.6045 2.77273,5.03955 5.50775,4.40507 4.0767,6.20376 -5.68522,7.14589 -4.92121,0.47484 -12.32989,1.8815 -16.46372,3.12564 -7.98219,2.40262 -9.34226,4.83306 -5.58203,9.97547 1.61689,2.21124 3.084,2.48759 8.94767,1.6852 7.19478,-0.9845 18.8346,-4.75312 21.25836,-6.88269 3.11664,-2.73842 5.45135,-1.25079 4.6133,2.93941 -0.60338,3.01685 -0.0713,4.81828 1.96848,6.66417 1.53746,1.39143 2.79538,2.9787 2.79538,3.52742 0,0.5486 -4.99281,1.38627 -11.09512,1.86134 -28.99635,2.25762 -55.64672,12.4452 -32.55617,12.4452 5.82428,0 8.08684,-0.6148 9.22003,-2.50535 1.43021,-2.38601 1.59449,-2.38601 3.45014,0 3.52458,4.53208 15.44569,2.60499 22.02781,-3.56074 1.76853,-1.65669 3.51342,-2.71426 3.87752,-2.35016 0.36412,0.36408 1.65512,4.4748 2.8689,9.13481 5.19466,19.9436 1.07316,27.91399 -14.43433,27.91399 -5.31122,0 -7.27034,-0.78522 -10.82335,-4.33829 l -4.33828,-4.33829 -3.20204,3.45503 c -1.76111,1.90029 -4.59108,3.89597 -6.28879,4.43484 -3.84846,1.22146 -4.03686,5.90403 -0.31764,7.89445 4.31006,2.30664 16.62124,1.84565 18.73525,-0.7015 1.61942,-1.95136 2.08759,-1.93441 4.4011,0.15931 2.24803,2.0344 3.53827,2.11515 9.79952,0.61308 3.96584,-0.95128 8.83042,-3.00389 10.81018,-4.56116 3.24126,-2.54956 3.68914,-2.59789 4.49968,-0.48572 0.49507,1.29018 0.2475,3.77812 -0.55016,5.52872 -1.13277,2.48621 -0.86054,3.91143 1.24343,6.50966 1.48153,1.82962 2.69371,4.50745 2.69371,5.95076 0,2.52115 -0.24656,2.51509 -6.27944,-0.15359 -8.03255,-3.55318 -19.48986,-2.55276 -19.48986,1.7017 0,3.28346 -1.87818,3.43315 -4.43416,0.35344 -3.10987,-3.74721 -16.88834,-1.77373 -20.67309,2.96094 -1.60438,2.00703 -3.32606,3.64917 -3.82595,3.64917 -1.52571,0 -4.3239,-10.03777 -3.58543,-12.86163 0.46042,-1.76067 -0.93447,-4.09228 -4.15263,-6.94145 -2.66526,-2.35966 -4.84593,-5.58689 -4.84593,-7.17176 0,-3.09862 5.45289,-8.10714 10.49734,-9.64196 4.48371,-1.36428 8.11382,-4.93693 8.11382,-7.9855 0,-2.13106 -1.11618,-2.64141 -5.77688,-2.64141 -3.17728,0 -7.28857,0.99046 -9.1362,2.20116 -3.2753,2.14606 -3.38306,2.07437 -4.30937,-2.86326 l -0.95009,-5.06441 -18.90418,0.0218 c -10.39731,0.0114 -19.6675,0.50737 -20.60043,1.10052 -1.60182,1.01864 -2.90746,6.08121 -3.21804,12.47806 -0.11511,2.37021 -0.95028,1.90441 -4.84996,-2.70474 -4.1482,-4.90292 -5.07498,-5.37319 -7.75853,-3.93698 -4.94267,2.6452 -6.51352,2.04552 -5.47548,-2.0904 l 0.93401,-3.72143 -4.52809,3.22437 c -4.79401,3.41357 -12.34103,14.21136 -13.70525,19.60849 -0.44782,1.77167 -1.27975,3.22115 -1.84873,3.22115 -1.94129,0 -4.88382,-7.18252 -4.99072,-12.182 -0.0587,-2.74403 -0.43543,-4.99099 -0.83722,-4.99329 -2.42702,-0.0149 -13.83442,13.30945 -16.54388,19.32274 l -3.22531,7.15813 -3.12453,-6.94682 c -2.22436,-4.94542 -2.86163,-8.34811 -2.212,-11.81093 1.31116,-6.98898 -1.28259,-6.25965 -10.09539,2.83909 -4.55613,4.70399 -9.54452,12.03472 -12.812,18.82808 l -5.35086,11.12489 -1.99571,-3.80893 c -2.24169,-4.27839 -2.77075,-13.62143 -1.19127,-21.0376 l 1.05121,-4.93568 -4.55468,4.29489 c -7.27859,6.86345 -10.16118,12.78386 -12.01031,24.66751 l -1.73075,11.12317 -3.73587,-6.44232 c -2.05474,-3.54334 -4.50932,-9.7944 -5.45464,-13.89137 -1.5064,-6.52879 -2.02451,-7.25812 -4.19375,-5.90334 -7.90305,4.93544 -12.19645,20.05115 -8.99185,31.65718 0.80745,2.92441 0.98317,5.31706 0.39047,5.31706 -2.30864,0 -12.08952,-11.03201 -14.59666,-16.46371 -5.33315,-11.55439 -2.19879,-31.17341 7.51502,-47.03905 l 4.25727,-6.95347 -17.61848,0.51115 -17.61845,0.51115 -0.44281,-5.34318 -0.44282,-5.34306 18.20841,0.92277 z m 62.29344,150.69722 c 6.79886,3.82118 9.06392,2.39895 7.73106,-4.85437 -1.9749,-10.74705 -7.86126,-13.04247 -11.57421,-4.51329 -2.62218,6.02349 -2.77654,5.64714 3.84315,9.36766 z m 33.07708,19.26719 c 4.4449,2.65068 6.32697,3.14407 7.13623,1.87073 3.25665,-5.1242 -0.84951,-16.21576 -7.44566,-20.11219 l -4.24749,-2.50901 0.16391,7.27518 c 0.0902,4.00135 -0.24289,7.682 -0.74008,8.17918 -1.38165,1.38157 -1.3136,1.45178 5.13309,5.29611 z m 9.91088,-53.39695 c 3.05295,7.09674 3.07249,7.11094 5.78227,4.20234 2.92705,-3.1418 9.64949,-3.89357 12.18092,-1.36211 2.32043,2.3205 3.77301,-0.88165 1.9474,-4.29282 -1.92816,-3.60278 -12.74835,-12.3806 -16.78322,-13.61535 -2.18968,-0.67012 -3.55879,-0.19035 -4.60926,1.61488 -2.14664,3.68913 -1.94984,5.4758 1.48189,13.45306 z m 18.0532,-36.56915 c 5.03879,-1.2044 19.40287,-9.97627 20.18659,-12.32746 0.43806,-1.31424 -0.66688,-1.53986 -4.13947,-0.84523 -3.70445,0.74078 -5.43802,0.28884 -7.95277,-2.07369 l -3.21574,-3.02096 -4.40779,6.08476 c -2.4243,3.34657 -4.4078,7.66848 -4.4078,9.60428 0,3.11315 0.45452,3.41082 3.93698,2.5783 z m 4.70166,64.72868 c 2.62141,1.78953 5.45444,3.00859 6.29564,2.70898 2.29009,-0.81568 1.1568,-11.36713 -2.01587,-18.76864 -3.20344,-7.47331 -5.76027,-8.47614 -5.76027,-2.25922 0,2.98054 -1.08977,4.97588 -3.62457,6.63679 -3.27828,2.14802 -3.43525,2.66409 -1.64285,5.4016 1.08995,1.66469 4.12652,4.49084 6.74792,6.28049 z m 1.09016,44.73709 c 5.84232,3.55296 7.03143,3.54506 8.17366,-0.0538 1.45462,-4.58304 -1.97531,-12.57977 -7.05873,-16.45708 -2.5694,-1.95984 -4.93298,-3.56315 -5.25236,-3.56303 -0.31938,1.1e-4 -0.56686,3.8796 -0.54997,8.62114 0.0291,8.17929 0.26921,8.76592 4.6874,11.45279 z m 15.74449,-129.38567 c -0.44603,3.82061 -0.0524,4.80271 1.92539,4.80271 2.9571,0 11.80822,-16.92034 10.97621,-20.98285 -0.80067,-3.90937 -8.72058,-3.04238 -14.83936,1.62462 l -5.02636,3.83389 3.7624,2.95946 c 3.021,2.37627 3.65193,3.90594 3.20172,7.76217 z m 10.78366,50.6148 c 2.20607,0 7.29647,-5.30791 8.58105,-8.94768 1.31522,-3.72658 -1.86196,-3.06712 -6.46363,1.34161 -4.27124,4.09205 -5.24949,7.60607 -2.11742,7.60607 z m 3.14727,87.61547 c -0.19112,0.23627 -0.74919,2.10838 -1.24018,4.1602 -0.78626,3.28587 -0.2278,4.03043 4.68494,6.24578 6.73466,3.03689 8.68961,2.10519 8.68961,-4.14129 0,-5.41945 -4.13086,-11.37869 -9.98652,-14.40676 l -4.00718,-2.07231 1.10342,4.89239 c 0.60686,2.69089 0.94703,5.08571 0.75591,5.32199 z m 14.64155,-27.03818 c 3.61601,-3.67607 4.9618,-6.04421 4.1196,-7.24918 -1.74474,-2.49608 -3.3107,-2.24239 -6.62678,1.07372 -1.61712,1.61717 -2.86325,4.77213 -2.86325,7.24919 l 0,4.38605 5.37043,-5.45978 z m 9.92949,-70.31912 c 4.08508,4.26396 7.60611,5.25063 7.60611,2.13152 0,-1.03615 -2.57693,-3.33214 -5.72651,-5.10232 -6.65716,-3.74147 -7.31469,-2.70223 -1.8796,2.9708 z m 6.47358,96.94419 1.48421,3.70597 2.67798,-5.72651 c 3.9407,-8.42668 3.12063,-11.35842 -3.32696,-11.89373 -2.91939,-0.24235 -6.63748,0.27075 -8.2624,1.14049 -2.87657,1.5394 -2.83719,1.6797 1.49427,5.32439 2.44678,2.05891 5.11658,5.4111 5.9329,7.44939 z m -7.65244,-117.26654 c 2.06,0 8.79626,-7.41331 7.96232,-8.7626 -1.25843,-2.03623 -3.16722,-1.46644 -6.27971,1.87441 -2.99134,3.21085 -3.88963,6.88819 -1.68261,6.88819 z m 56.08446,-60.3983 c 4.00013,4.29362 9.58651,4.09995 11.63842,-0.4035 2.08516,-4.57639 -0.45718,-7.91632 -6.02591,-7.91632 -8.7266,0 -10.67407,2.88684 -5.61251,8.31982 z m 13.73306,185.54749 c 2.05211,0.61824 3.32686,0.20204 3.89203,-1.27071 0.66019,-1.72047 -0.28584,-2.19015 -4.41166,-2.19015 -5.40523,0 -5.14172,1.75516 0.51963,3.46086 z m 13.85427,18.01354 c 1.818,0 4.46637,-0.84889 5.88527,-1.88642 2.41745,-1.76766 2.42824,-2.03795 0.17138,-4.29489 -1.32466,-1.32465 -3.97304,-2.40845 -5.88529,-2.40845 -2.90869,0 -3.4768,0.70184 -3.4768,4.29488 0,3.532 0.58715,4.29488 3.30544,4.29488 z m 30.44303,-222.90118 c 9.46293,2.0754 30.67477,-0.20145 30.67477,-3.29263 0,-1.34871 -17.49173,-2.34535 -29.06417,-1.65611 -9.55727,0.56922 -10.35819,3.03013 -1.6106,4.94874 z M 447.7444,334.6607 c 3.89224,6.58904 9.36222,7.02758 11.01025,0.88257 1.65072,-6.15485 1.13866,-6.70116 -6.2817,-6.70116 -3.93697,0 -7.15814,0.3838 -7.15814,0.8528 0,0.46911 1.09332,2.70371 2.42959,4.96579 z m 3.95979,-41.71167 c 1.92866,3.72957 4.81384,5.8289 8.01099,5.8289 2.43147,0 5.8961,-6.96675 4.94885,-9.95129 -0.74675,-2.3528 -2.1397,-2.93335 -7.03825,-2.93335 -5.43894,0 -8.01608,0.78991 -8.01608,2.45713 0,0.30156 0.94252,2.371 2.09449,4.59861 z"
       id="path4434"
       inkscape:connector-curvature="0" />
  </g>
</svg>
