<?xml version="1.0" encoding="UTF-8" standalone="no"?>
<!-- Created with Inkscape (http://www.inkscape.org/) -->

<svg
   xmlns:dc="http://purl.org/dc/elements/1.1/"
   xmlns:cc="http://creativecommons.org/ns#"
   xmlns:rdf="http://www.w3.org/1999/02/22-rdf-syntax-ns#"
   xmlns:svg="http://www.w3.org/2000/svg"
   xmlns="http://www.w3.org/2000/svg"
   xmlns:sodipodi="http://sodipodi.sourceforge.net/DTD/sodipodi-0.dtd"
   xmlns:inkscape="http://www.inkscape.org/namespaces/inkscape"
   width="210mm"
   height="297mm"
   viewBox="0 0 744.09448819 1052.3622047"
   id="svg4730"
   version="1.1"
   inkscape:version="0.91 r13725"
   sodipodi:docname="sapin_105x150.svg">
  <defs
     id="defs4732" />
  <sodipodi:namedview
     id="base"
     pagecolor="#ffffff"
     bordercolor="#666666"
     borderopacity="1.0"
     inkscape:pageopacity="0.0"
     inkscape:pageshadow="2"
     inkscape:zoom="0.35"
     inkscape:cx="-646.70698"
     inkscape:cy="492.42444"
     inkscape:document-units="px"
     inkscape:current-layer="layer1"
     showgrid="false"
     inkscape:window-width="1920"
     inkscape:window-height="1018"
     inkscape:window-x="-8"
     inkscape:window-y="-8"
     inkscape:window-maximized="1" />
  <metadata
     id="metadata4735">
    <rdf:RDF>
      <cc:Work
         rdf:about="">
        <dc:format>image/svg+xml</dc:format>
        <dc:type
           rdf:resource="http://purl.org/dc/dcmitype/StillImage" />
        <dc:title></dc:title>
      </cc:Work>
    </rdf:RDF>
  </metadata>
  <g
     inkscape:label="Layer 1"
     inkscape:groupmode="layer"
     id="layer1">
    <rect
       style="color:#000000;clip-rule:nonzero;display:inline;overflow:visible;visibility:visible;opacity:0.98999999;isolation:auto;mix-blend-mode:normal;color-interpolation:sRGB;color-interpolation-filters:linearRGB;solid-color:#000000;solid-opacity:1;fill:none;fill-opacity:1;fill-rule:nonzero;stroke:#0000ff;stroke-width:0.88916987;stroke-linecap:round;stroke-linejoin:round;stroke-miterlimit:4;stroke-dasharray:none;stroke-dashoffset:0;stroke-opacity:1;color-rendering:auto;image-rendering:auto;shape-rendering:auto;text-rendering:auto;enable-background:accumulate"
       id="rect5278"
       width="530.60687"
       height="743.20532"
       x="35.044716"
       y="-776.38385"
       transform="matrix(0,1,-1,0,0,0)" />
    <circle
       style="color:#000000;clip-rule:nonzero;display:inline;overflow:visible;visibility:visible;opacity:0.98999999;isolation:auto;mix-blend-mode:normal;color-interpolation:sRGB;color-interpolation-filters:linearRGB;solid-color:#000000;solid-opacity:1;fill:none;fill-opacity:1;fill-rule:nonzero;stroke:#ff0000;stroke-width:0.5;stroke-linecap:round;stroke-linejoin:round;stroke-miterlimit:4;stroke-dasharray:none;stroke-dashoffset:0;stroke-opacity:1;color-rendering:auto;image-rendering:auto;shape-rendering:auto;text-rendering:auto;enable-background:accumulate"
       id="path4166"
       cx="365.50021"
       cy="341.67261"
       r="7.347918" />
    <path
       style="fill:none;stroke:#ff0000;stroke-width:0.5;stroke-miterlimit:4;stroke-dasharray:none;stroke-opacity:1"
       d="m 211.99303,87.815674 c -0.39269,0.031 -6.66879,15.557176 -7.38014,16.448926 0,0 -3.66197,0.35811 -8.60665,0.6128 -8.74589,0.45047 -10.29657,0.62361 -10.88252,1.21556 -0.61306,0.61933 2.58295,2.76528 8.65504,5.81115 3.20438,1.60736 5.83998,3.25253 5.85775,3.65674 0.0178,0.4042 -0.75713,4.28249 -1.72154,8.61762 -0.96442,4.33514 -1.75348,8.17801 -1.75348,8.54 0,0.36199 0.85481,0.0201 1.8996,-0.75893 1.04479,-0.77907 4.2668,-3.10267 7.16004,-5.16364 2.89325,-2.06096 5.46315,-4.09402 6.48882,-4.47137 0,0 1.5504,0.18591 6.7783,4.38096 6.01331,4.82529 8.42311,6.37093 9.01214,5.78192 0.19905,-0.19907 -0.27696,-4.07452 -1.05756,-8.61214 l -1.41924,-8.24958 1.20461,-0.63473 c 0.6624,-0.34904 3.75208,-2.43616 6.86598,-4.63759 3.1139,-2.20143 5.41638,-3.89974 5.63031,-4.12068 0,0 1.8585,-1.18023 1.8585,-1.91238 0,-0.60916 -3.07345,-1.0199 -10.98483,-1.46763 -4.92583,-0.27876 -9.15158,0.0555 -9.53454,-0.26668 -0.38291,-0.32218 -2.39277,-4.455276 -4.3216,-8.174686 -3.21219,-6.19418 -3.74899,-6.59564 -3.74899,-6.59564 z m 1.17815,43.948426 c -1.25339,0.0228 -3.04806,1.31452 -8.28246,5.43305 -8.17856,6.43498 -14.34529,12.40817 -13.40772,12.98763 1.42107,0.87826 24.43291,5.83205 40.62684,8.74548 5.98338,1.07646 10.40847,1.21023 11.27801,0.34065 0.75282,-0.75281 -25.3947,-25.21673 -29.0338,-27.16433 -0.40471,-0.21658 -0.76307,-0.35008 -1.18087,-0.34248 z m -10.85334,26.02275 c -0.0789,0 -0.3132,1.83325 -0.52146,4.0741 -0.62995,6.77773 -0.21832,7.4591 -3.29692,11.51452 -4.45029,3.47812 -4.86677,4.25135 -11.24051,4.66408 -4.53455,0.29364 -6.20671,0.13702 -10.2652,-0.96259 -2.6666,-0.72249 -4.9285,-1.21541 -5.02665,-1.09593 -0.0982,0.11949 -2.36107,3.24212 -5.02847,6.93904 -2.66739,3.69692 -6.25861,8.56283 -7.98015,10.81313 -1.72155,2.2503 -3.33045,4.35447 -3.57547,4.67595 -1.06205,1.39351 -4.65561,6.48282 -4.97002,7.03857 -0.62662,1.10754 3.03694,0.90108 5.72257,-0.32238 1.44173,-0.65677 4.65916,-1.94898 7.14999,-2.87133 2.49083,-0.92234 8.02641,-3.28232 12.30176,-5.24491 4.27532,-1.9626 7.91119,-3.56815 8.07972,-3.56815 0.16847,0 3.08084,-1.31511 6.47146,-2.92247 3.39067,-1.60735 6.29037,-2.92246 6.44402,-2.92246 0.1537,0 1.10852,-0.38181 2.12152,-0.84752 1.013,-0.4657 6.05045,-2.70977 11.19399,-4.98737 10.41997,-4.61404 20.14403,-9.79829 20.59792,-10.98117 0.41831,-1.09004 -1.11423,-2.17733 -7.15457,-5.07414 -3.93841,-1.88876 -19.94792,-7.91897 -21.02353,-7.91897 z m 42.75023,24.09757 c -0.0817,-0.01 -0.13841,0.001 -0.16988,0.0329 -0.19097,0.19098 -0.0173,3.13243 0.38633,6.53719 1.15379,9.73565 -0.26798,12.88287 -6.71345,14.86348 -5.72294,1.75861 -9.20568,2.03281 -12.75201,1.00186 -4.64546,-1.35048 -7.69502,-3.80172 -8.93635,-7.18287 -0.56934,-1.55083 -1.32184,-3.13131 -1.67221,-3.51244 -0.48517,-0.52776 -3.28396,0.18946 -11.74191,3.00922 -6.10796,2.03631 -16.49731,5.44204 -23.08749,7.56828 -6.59014,2.12624 -13.03421,4.28388 -14.32009,4.79468 -5.49971,2.1847 -9.04174,3.98223 -8.62769,4.37913 0.61246,0.58713 13.09485,1.71763 44.28179,4.01017 18.16334,1.33519 37.40267,-0.21601 51.14318,-4.12342 7.10655,-2.08694 14.39827,-5.35332 20.74952,-8.71625 1.33592,-0.64947 0.77405,-1.49574 -11.10538,-10.60856 -9.42503,-7.23 -16.20847,-11.91129 -17.43436,-12.05335 z m -89.82019,39.13914 c 8.37527,11.58447 24.56761,30.0241 37.00755,32.61473 1.35883,-9.28572 9.31734,-16.17317 18.70197,-16.18498 10.45177,2.2e-4 18.92459,8.473 18.92482,18.92481 0,4.41919 -1.55077,8.69829 -4.37734,12.09536 0,0.67474 0.0868,1.15239 0.27219,1.44936 1.53006,2.45146 27.95801,7.3237 53.96792,9.94915 8.66631,0.87483 24.61854,0.74259 30.8375,-0.25568 5.75549,-0.92387 13.97075,-3.34437 15.04524,-4.43303 1.09426,-1.10867 -5.17539,-5.92859 -13.5155,-10.39028 -16.18336,-8.65757 -16.00413,-8.50508 -42.96574,-36.42217 -2.4755,-2.5632 -3.91518,-2.73224 -9.92545,-1.1626 l -3.86589,1.01008 1.12335,5.5326 c 0.27859,1.37316 0.5866,2.66711 0.87398,3.74624 7.73351,1.43326 13.34609,8.17643 13.35203,16.04159 10e-5,9.01742 -7.31005,16.32757 -16.32747,16.32747 -9.01743,5e-5 -16.32752,-7.31005 -16.32743,-16.32747 0.008,-6.37288 3.72434,-12.15839 9.51625,-14.8169 -0.052,-1.21113 -0.27971,-2.81123 -0.65023,-5.05495 -0.64538,-3.90779 -0.7893,-4.17367 -2.68867,-4.96729 -25.9892,2.42763 -59.09861,-4.18416 -88.97908,-7.67604 z m -9.45786,10.35558 c -0.8765,0.034 -1.46764,0.41565 -2.24754,0.82377 -1.96801,1.07376 -20.11555,12.99299 -29.50139,20.63261 -4.27396,3.06004 -3.75451,4.52436 3.21471,9.05783 9.37485,6.09832 22.62789,12.73672 43.16209,21.62079 20.10035,8.69642 32.5474,11.4852 61.17,13.70361 6.7509,0.52324 12.38336,1.05873 12.51728,1.19092 0.13396,0.13214 4.37458,0.2402 9.42311,0.2402 11.85208,0 30.37177,-1.96913 30.37177,-3.22935 0,-0.63448 -4.92634,-2.27293 -11.39762,-3.79186 -27.23688,-7.66243 -53.60291,-15.03547 -75.32204,-29.7489 l -4.47778,-3.02113 -0.61278,0.68316 c -1.51295,7.76315 -8.31229,13.36741 -16.22152,13.37026 -9.13096,9e-5 -16.53303,-7.40198 -16.53298,-16.53293 0.007,-7.28844 4.78522,-13.71274 11.76384,-15.81512 -2.66234,-2.76901 -8.45154,-6.70621 -12.52275,-8.48155 -1.25081,-0.54545 -2.10469,-0.72871 -2.7864,-0.70231 z m -24.38343,48.60793 c -1.37407,0.49429 -6.6347,9.18735 -9.60669,12.94564 -4.41732,5.80571 -3.91751,5.17688 -10.56469,13.31547 -10.250327,12.55019 -14.957557,18.81409 -14.957557,19.90476 0,1.37253 2.65626,3.10174 11.23415,7.31164 7.449297,3.65598 7.515087,3.64775 10.825887,-1.33064 1.46928,-2.20934 3.06658,-3.76713 4.82666,-4.70882 2.45459,-1.31328 3.00102,-1.37954 8.1829,-0.98452 6.93579,0.52871 8.47862,0.44398 10.45327,-0.57715 1.81684,-0.93954 4.96871,-4.14191 7.79846,-7.92171 3.18216,-4.25114 5.68899,-4.87491 13.15292,-3.27316 6.16688,1.32315 7.81851,3.10726 8.85966,9.57105 0.68437,4.24955 1.66356,6.24866 4.2531,8.6788 2.54779,2.3909 3.72229,2.95627 8.38108,4.0367 6.54955,1.51893 9.4636,1.28116 14.17485,-1.15716 6.47825,-3.35228 8.41278,-2.30538 10.9803,5.93901 1.06265,3.41218 1.9531,5.16449 3.07406,6.05227 1.29463,1.02529 2.10273,1.1941 4.5006,0.94248 3.72294,-0.39072 11.21246,-3.82399 13.21409,-5.81571 -9.22214,-1.67183 -15.92993,-9.69843 -15.93746,-19.0709 0.009,-5.50995 2.36042,-10.75608 6.46778,-14.4288 -0.12354,-0.0672 -0.25349,-0.13168 -0.39638,-0.19088 -0.89096,-0.36902 -5.42808,-1.03782 -10.08252,-1.48587 -14.55435,-1.40101 -17.78613,-2.26194 -46.45442,-12.37574 -4.05114,-1.42916 -13.78212,-6.16472 -25.19531,-12.26249 -3.9999,-2.137 -6.19998,-3.11203 -7.18474,-3.11427 z m 188.40418,15.83977 c -1.17586,0.0966 -4.15621,2.16174 -8.10982,5.63307 -0.88502,0.77705 -1.37744,1.27013 -1.59824,1.72332 4.23304,3.1169 6.73528,8.05792 6.74267,13.31462 -2.3e-4,9.14779 -7.41619,16.56333 -16.56398,16.56305 -6.12152,-0.005 -11.74112,-3.38613 -14.61328,-8.79204 -1.0079,-0.0975 -1.65126,0.54811 -2.99644,1.83386 -1.92999,1.84471 -4.48461,3.91316 -8.72354,7.06232 -7.63699,5.6736 -8.66575,6.39838 -9.07335,6.39838 -0.2193,0 -2.14317,1.13691 -4.27597,2.52608 -11.61945,7.56821 -17.27482,10.3396 -37.77833,18.51475 -7.42462,2.96029 -17.28236,7.5884 -18.74036,8.79845 -1.41883,1.17759 -0.132,3.47165 3.46497,6.17557 7.14779,5.37308 13.08447,7.59874 25.50402,9.56283 9.84549,1.55699 16.77118,1.48971 23.45007,-0.2274 3.01486,-0.77513 6.4687,-1.83016 7.67421,-2.34526 0.91045,-0.38904 1.49728,-0.6984 1.82928,-1.23843 -1.38801,-2.48765 -2.11998,-5.28765 -2.127,-8.13629 0,-9.26978 7.5143,-16.78455 16.78408,-16.78413 8.55769,0.0103 15.73728,6.45753 16.66447,14.96486 1.82152,3.34223 4.66875,2.1817 16.67724,-4.02478 12.53837,-6.48034 13.45135,-6.99535 26.65014,-15.02054 11.55151,-7.0236 17.29386,-11.17524 19.39972,-14.02513 l 1.14616,-1.55074 -1.92882,-2.40095 c -1.06107,-1.3204 -3.81913,-3.96352 -6.129,-5.87416 -4.19653,-3.47124 -9.60117,-8.87276 -24.29207,-24.27659 -4.29228,-4.5006 -8.26394,-8.26577 -8.82585,-8.36738 -0.0621,-0.0112 -0.13256,-0.0136 -0.21098,-0.007 z m -41.1748,9.9291 c -0.51988,0.005 -1.04489,0.0262 -1.56626,0.0685 -4.83479,0.39432 -24.66202,1.17371 -30.65032,3.44028 4.2062,3.67866 6.62165,8.99241 6.62764,14.5804 -0.005,3.15416 -0.77757,6.25988 -2.25306,9.04778 0.0679,-0.0122 0.12288,-0.0201 0.19545,-0.0337 1.18774,-0.22281 3.4892,-1.07809 5.11432,-1.90143 9.16996,-4.64574 29.5498,-20.69649 29.5498,-23.27289 0,-1.08782 -3.37856,-1.95619 -7.01757,-1.92883 z M 148.5399,320.85962 c -3.64574,0 -3.83563,0.0759 -5.93537,2.34527 -1.19306,1.28949 -2.88122,3.59108 -3.7517,5.11526 -1.57275,2.7538 -1.61918,2.78116 -7.35274,4.37271 -5.10347,1.41667 -6.17407,1.53483 -9.2761,1.02469 -1.92882,-0.31722 -3.97165,-0.57992 -4.53898,-0.57992 -1.32358,-0.005 -5.33012,3.67521 -6.07598,4.69877 -1.005,1.56336 -2.44337,4.46745 -1.95165,7.07331 0,1.80412 0.19546,2.04474 6.25408,7.66509 2.50575,2.32446 3.09782,3.96773 3.09782,8.60206 0,3.37992 1.71832,6.18684 4.87136,7.95552 1.89787,1.06439 3.00107,1.21495 7.87331,1.07767 10.91801,-0.30759 18.02564,-3.00757 24.35879,-9.25511 2.31282,-2.28158 5.20293,-5.65752 6.42302,-7.50157 1.90176,-2.87436 2.2612,-3.94407 2.51515,-7.4934 0,0 -0.006,-3.29977 -0.99836,-4.93308 -0.99247,-1.63335 -3.1205,-3.40329 -3.1205,-3.40329 l -4.41564,-4.19737 -0.26119,-4.63578 c -0.2432,-4.3144 -0.38932,-4.75025 -2.10512,-6.2833 -1.61787,-1.44562 -2.305,-1.64753 -5.6102,-1.64753 z m 38.08611,19.87278 -6.77554,6.62671 c -3.72668,3.64481 -9.01948,8.47562 -11.76108,10.73457 -2.74165,2.25891 -5.61937,5.03432 -6.39567,6.1673 -2.47087,3.60595 -11.95953,9.27848 -16.85441,10.07615 -1.38474,0.22566 -5.50406,0.46011 -9.15373,0.52146 l -6.63582,0.11232 -4.52066,3.04119 c -2.48644,1.67273 -5.60029,3.50336 -6.91989,4.06863 -1.31965,0.56528 -4.76634,2.21107 -7.65958,3.65767 -5.79046,2.89525 -7.22462,4.65785 -7.27877,8.94822 -0.0112,2.308 0.13294,3.50551 0.79412,5.15832 1.14692,1.21827 1.19887,1.78355 4.43892,2.4602 1.61629,0.33756 2.13401,0.16843 13.44335,-4.38828 4.33989,-1.74862 9.07429,-3.52487 10.52089,-3.94715 1.44664,-0.42234 4.6744,-1.57734 7.17374,-2.5663 l 4.54442,-1.79823 4.99288,0.96259 c 5.26675,1.01533 18.58633,4.49153 40.86157,10.66518 14.24597,3.94828 16.89092,4.38309 17.47177,2.86949 0.92869,-2.42018 1.10352,-2.19802 -14.02055,-17.80512 -3.59609,-3.71098 -7.22425,-7.75843 -8.06325,-8.9948 -2.85186,-4.20241 -1.96296,-7.76661 3.68595,-14.7795 4.89829,-6.08102 7.64775,-12.01195 7.64775,-16.49824 0,-2.72542 -0.15744,-3.06756 -1.8996,-4.1298 -1.21028,-0.73791 -2.94075,-1.16075 -4.76821,-1.16075 z m 97.99492,50.26644 c -0.77364,0 -2.38478,0.43187 -3.58,0.95895 -1.19517,0.52707 -5.18717,2.07439 -8.87154,3.43845 -6.25894,2.31731 -7.24332,2.90877 -5.90871,3.53502 0.54807,0.25718 0.99897,0.54559 1.5844,0.85963 0.54362,0.35579 4.5301,2.28981 9.32267,4.34353 4.79256,2.05368 9.44873,3.75208 10.34642,3.77452 0.89769,0.0224 5.21214,-1.15529 9.58845,-2.61741 8.30944,-2.77616 10.11356,-3.53207 10.11356,-4.23482 0,-1.39189 -19.46868,-10.05787 -22.59525,-10.05787 z m -139.50214,6.49976 c -3.61811,-0.0593 -6.84676,0.75067 -11.14465,2.48498 -2.85963,1.15398 -5.88333,2.54606 -6.71985,3.09417 l -1.52062,0.99729 2.92064,0.77447 c 1.60661,0.42622 6.65663,1.56518 11.22228,2.53067 4.56559,0.96554 8.90543,2.00052 9.64414,2.30052 1.88473,0.76546 3.82193,0.54873 10.56044,-2.39834 2.58543,-0.87052 6.7696,-2.78845 7.94294,-4.07415 -0.0677,-0.80062 -3.07584,-1.44852 -4.75773,-1.84373 -0.7135,-0.15669 -4.45309,-1.13574 -8.31075,-2.17632 -3.97255,-1.07159 -7.02281,-1.6435 -9.83684,-1.68956 z m 104.18321,4.92616 c -1.49663,-0.0327 -5.21602,0.50995 -9.72724,1.43476 -10.56596,2.16604 -12.23981,2.69503 -12.56843,3.96909 -0.98232,1.48555 -1.22061,27.64116 0.0229,40.23414 0.0609,0.0411 0.96624,0.41775 2.01103,0.83747 1.0448,0.41966 4.66136,2.06237 8.03679,3.64943 3.37547,1.58707 7.45229,3.36023 9.05965,3.94075 1.60735,0.58052 3.25128,1.0744 3.65308,1.09777 0.57033,0.0332 0.73183,-4.15687 0.73885,-19.09923 0.005,-10.52818 0.20728,-19.45377 0.44931,-19.83444 0.24207,-0.38062 2.93383,-1.61077 5.98194,-2.7343 8.14681,-3.00299 9.34184,-3.50874 9.34184,-3.95539 0,-1.41171 -12.26515,-8.46735 -16.49824,-9.49072 -0.11891,-0.029 -0.28757,-0.0444 -0.5014,-0.0493 z m 66.28979,3.93256 c -2.03264,0.0416 -4.45866,0.85046 -9.54459,2.7864 -2.73249,1.04007 -5.82979,2.18268 -6.88244,2.53979 -1.16337,0.39465 -1.8491,0.98629 -1.7489,1.5078 0.094,0.48934 4.7352,2.87468 10.8049,5.55269 5.85242,2.58211 10.76441,4.99859 10.91544,5.37005 0.15104,0.3715 0.4452,8.3937 0.65295,17.82705 0.20776,9.43339 0.48013,17.48005 0.60554,17.88185 0.49476,1.58585 4.49185,0.36313 16.33018,-4.9956 5.99864,-2.71532 6.44893,-3.03604 6.83493,-4.87322 0.75096,-3.57439 0.66057,-31.43832 -0.10502,-32.36083 -0.38006,-0.45792 -2.04853,-1.35318 -3.707,-1.99004 -1.65842,-0.63686 -6.19114,-2.59216 -10.07335,-4.34442 -3.88225,-1.75232 -8.54464,-3.65435 -10.36017,-4.22664 -1.42527,-0.44926 -2.50289,-0.6999 -3.72247,-0.67488 z m -136.67557,0.0512 c -2.63125,-0.0332 -4.63663,0.69409 -7.02945,2.29593 -1.54063,1.03133 -3.4386,2.30637 -4.21752,2.83297 -0.77892,0.52656 -1.1796,1.10353 -0.89044,1.28224 0.28921,0.17872 3.0079,0.85079 6.04133,1.49322 7.39244,1.5656 20.53208,5.46712 22.28926,6.61848 l 1.41466,0.92696 0.15711,18.26177 c 0.18433,2.6694 -0.55008,19.50609 1.09773,19.07366 4.05577,-0.46269 14.05262,-7.217 14.24335,-9.62315 0.50145,-6.32637 -0.6579,-31.80439 -1.55344,-34.13807 -0.56387,-1.46946 -6.39412,-3.72696 -14.01414,-5.42573 -3.85766,-0.85996 -9.21592,-2.09384 -11.90726,-2.74259 -2.24838,-0.54194 -4.05245,-0.83587 -5.63119,-0.85569 z m -62.53716,3.0777 c -3.46904,-0.006 -5.02473,0.37113 -10.22592,2.47587 -6.357277,2.57252 -8.711057,4.45693 -8.770117,5.99106 -0.29837,2.22996 -3.03333,31.95571 -1.02277,37.55918 1.24717,0.78733 20.632337,5.29125 24.987097,5.8057 2.45931,0.009 8.2154,1.47676 8.84226,0.22122 0.3268,-0.85958 0.41298,-6.89113 0.21098,-14.74111 -0.34705,-13.48614 0.48766,-21.29703 1.6731,-22.48678 0.36884,0 2.90699,-1.44772 5.63948,-3.21106 2.73253,-1.76335 5.23121,-3.32245 5.55268,-3.46497 2.9589,-1.31184 -19.56234,-8.13788 -26.8867,-8.14911 z m 163.78419,7.87603 c -2.73646,0.0602 -5.94836,1.09515 -10.98024,3.23576 l -6.68058,2.84208 -0.29225,20.25359 -0.29224,20.25364 1.75348,1.1781 c 2.5324,1.70195 14.03476,7.17297 18.99604,9.03502 3.11633,1.16957 9.56441,-0.95712 19.40153,-6.39839 2.51795,-1.39278 4.9473,-2.53249 5.39834,-2.53249 0.45099,0 0.90751,-0.26041 1.01463,-0.57903 0.18821,-0.55952 -0.3722,-20.60409 -0.84022,-30.05119 -0.28013,-5.65383 -0.25685,-5.63064 -10.36195,-10.41858 -4.01837,-1.90395 -8.95102,-4.2668 -10.96107,-5.25132 -2.18643,-1.07084 -4.02712,-1.61395 -6.15547,-1.56719 z m -121.80386,2.95992 c -2.37575,-0.0397 -4.88622,1.04251 -9.83319,3.90788 l -5.84493,3.38553 c 0,0 -2.27466,36.5358 -0.14613,40.07708 0.40185,0.51314 3.09782,1.64266 5.99106,2.50967 2.89324,0.86683 7.23313,2.19537 9.64414,2.95166 2.41078,0.75648 6.09234,1.89772 8.18198,2.53702 2.08935,0.6392 4.35592,1.1773 5.0367,1.1955 1.40998,0.037 9.52743,-3.98712 14.10457,-6.99288 l 3.06859,-2.01468 0.0402,-8.77746 c 0.15076,-32.96646 0.3009,-30.43883 -1.87313,-31.52337 -1.00814,-0.50294 -6.72888,-2.10432 -12.71274,-3.55811 -5.98381,-1.4538 -11.94176,-2.9423 -13.2406,-3.30786 -0.84691,-0.23834 -1.62386,-0.37642 -2.41559,-0.38998 z"
       id="path4223"
       inkscape:connector-curvature="0"
       sodipodi:nodetypes="ccscsssscscscsccscsscscssssccssscsssssccsssssssscsscccssssssscsccsccscccsssssscccccccccccsccssscsscccccccsscccsssssscccsscsscccccssscccccccssssscssssccccsscccssccccscccsscssssscccsscssscccczcsccsssccscsccsccscsscscsscccscsccsssssscccccsssscccsccccccccssccccccccscsscsssccscccccsccsccccssccsccccccccccsssscsscccsccscccccscscccccccc" />
    <circle
       style="color:#000000;clip-rule:nonzero;display:inline;overflow:visible;visibility:visible;opacity:0.98999999;isolation:auto;mix-blend-mode:normal;color-interpolation:sRGB;color-interpolation-filters:linearRGB;solid-color:#000000;solid-opacity:1;fill:none;fill-opacity:1;fill-rule:nonzero;stroke:#ff0000;stroke-width:0.5;stroke-linecap:round;stroke-linejoin:round;stroke-miterlimit:4;stroke-dasharray:none;stroke-dashoffset:0;stroke-opacity:1;color-rendering:auto;image-rendering:auto;shape-rendering:auto;text-rendering:auto;enable-background:accumulate"
       id="path4166-0"
       cx="283.4346"
       cy="217.46761"
       r="7.347918" />
    <circle
       style="color:#000000;clip-rule:nonzero;display:inline;overflow:visible;visibility:visible;opacity:0.98999999;isolation:auto;mix-blend-mode:normal;color-interpolation:sRGB;color-interpolation-filters:linearRGB;solid-color:#000000;solid-opacity:1;fill:none;fill-opacity:1;fill-rule:nonzero;stroke:#ff0000;stroke-width:0.5;stroke-linecap:round;stroke-linejoin:round;stroke-miterlimit:4;stroke-dasharray:none;stroke-dashoffset:0;stroke-opacity:1;color-rendering:auto;image-rendering:auto;shape-rendering:auto;text-rendering:auto;enable-background:accumulate"
       id="path4166-0-1"
       cx="142.15419"
       cy="219.47157"
       r="7.347918" />
    <circle
       style="color:#000000;clip-rule:nonzero;display:inline;overflow:visible;visibility:visible;opacity:0.98999999;isolation:auto;mix-blend-mode:normal;color-interpolation:sRGB;color-interpolation-filters:linearRGB;solid-color:#000000;solid-opacity:1;fill:none;fill-opacity:1;fill-rule:nonzero;stroke:#ff0000;stroke-width:0.5;stroke-linecap:round;stroke-linejoin:round;stroke-miterlimit:4;stroke-dasharray:none;stroke-dashoffset:0;stroke-opacity:1;color-rendering:auto;image-rendering:auto;shape-rendering:auto;text-rendering:auto;enable-background:accumulate"
       id="path4166-0-6"
       cx="72.014961"
       cy="328.68835"
       r="7.347918" />
    <circle
       style="color:#000000;clip-rule:nonzero;display:inline;overflow:visible;visibility:visible;opacity:0.98999999;isolation:auto;mix-blend-mode:normal;color-interpolation:sRGB;color-interpolation-filters:linearRGB;solid-color:#000000;solid-opacity:1;fill:none;fill-opacity:1;fill-rule:nonzero;stroke:#ff0000;stroke-width:0.5;stroke-linecap:round;stroke-linejoin:round;stroke-miterlimit:4;stroke-dasharray:none;stroke-dashoffset:0;stroke-opacity:1;color-rendering:auto;image-rendering:auto;shape-rendering:auto;text-rendering:auto;enable-background:accumulate"
       id="path4166-0-1-5"
       cx="165.86797"
       cy="256.37817"
       r="10.186887" />
    <circle
       style="color:#000000;clip-rule:nonzero;display:inline;overflow:visible;visibility:visible;opacity:0.98999999;isolation:auto;mix-blend-mode:normal;color-interpolation:sRGB;color-interpolation-filters:linearRGB;solid-color:#000000;solid-opacity:1;fill:none;fill-opacity:1;fill-rule:nonzero;stroke:#ff0000;stroke-width:0.5;stroke-linecap:round;stroke-linejoin:round;stroke-miterlimit:4;stroke-dasharray:none;stroke-dashoffset:0;stroke-opacity:1;color-rendering:auto;image-rendering:auto;shape-rendering:auto;text-rendering:auto;enable-background:accumulate"
       id="path4166-0-1-5-0"
       cx="210.95741"
       cy="256.37817"
       r="10.186887" />
    <circle
       style="color:#000000;clip-rule:nonzero;display:inline;overflow:visible;visibility:visible;opacity:0.98999999;isolation:auto;mix-blend-mode:normal;color-interpolation:sRGB;color-interpolation-filters:linearRGB;solid-color:#000000;solid-opacity:1;fill:none;fill-opacity:1;fill-rule:nonzero;stroke:#ff0000;stroke-width:0.5;stroke-linecap:round;stroke-linejoin:round;stroke-miterlimit:4;stroke-dasharray:none;stroke-dashoffset:0;stroke-opacity:1;color-rendering:auto;image-rendering:auto;shape-rendering:auto;text-rendering:auto;enable-background:accumulate"
       id="path4166-0-1-5-8"
       cx="254.37683"
       cy="253.5392"
       r="10.186887" />
    <circle
       style="color:#000000;clip-rule:nonzero;display:inline;overflow:visible;visibility:visible;opacity:0.98999999;isolation:auto;mix-blend-mode:normal;color-interpolation:sRGB;color-interpolation-filters:linearRGB;solid-color:#000000;solid-opacity:1;fill:none;fill-opacity:1;fill-rule:nonzero;stroke:#ff0000;stroke-width:0.5;stroke-linecap:round;stroke-linejoin:round;stroke-miterlimit:4;stroke-dasharray:none;stroke-dashoffset:0;stroke-opacity:1;color-rendering:auto;image-rendering:auto;shape-rendering:auto;text-rendering:auto;enable-background:accumulate"
       id="path4166-0-1-5-5"
       cx="230.49615"
       cy="191.74989"
       r="10.186887" />
    <circle
       style="color:#000000;clip-rule:nonzero;display:inline;overflow:visible;visibility:visible;opacity:0.98999999;isolation:auto;mix-blend-mode:normal;color-interpolation:sRGB;color-interpolation-filters:linearRGB;solid-color:#000000;solid-opacity:1;fill:none;fill-opacity:1;fill-rule:nonzero;stroke:#ff0000;stroke-width:0.5;stroke-linecap:round;stroke-linejoin:round;stroke-miterlimit:4;stroke-dasharray:none;stroke-dashoffset:0;stroke-opacity:1;color-rendering:auto;image-rendering:auto;shape-rendering:auto;text-rendering:auto;enable-background:accumulate"
       id="path4166-0-1-5-9"
       cx="185.74062"
       cy="163.0262"
       r="10.186887" />
    <circle
       style="color:#000000;clip-rule:nonzero;display:inline;overflow:visible;visibility:visible;opacity:0.98999999;isolation:auto;mix-blend-mode:normal;color-interpolation:sRGB;color-interpolation-filters:linearRGB;solid-color:#000000;solid-opacity:1;fill:none;fill-opacity:1;fill-rule:nonzero;stroke:#ff0000;stroke-width:0.5;stroke-linecap:round;stroke-linejoin:round;stroke-miterlimit:4;stroke-dasharray:none;stroke-dashoffset:0;stroke-opacity:1;color-rendering:auto;image-rendering:auto;shape-rendering:auto;text-rendering:auto;enable-background:accumulate"
       id="path4166-0-1-5-3"
       cx="290.28162"
       cy="316.49744"
       r="10.186887" />
    <circle
       style="color:#000000;clip-rule:nonzero;display:inline;overflow:visible;visibility:visible;opacity:0.98999999;isolation:auto;mix-blend-mode:normal;color-interpolation:sRGB;color-interpolation-filters:linearRGB;solid-color:#000000;solid-opacity:1;fill:none;fill-opacity:1;fill-rule:nonzero;stroke:#ff0000;stroke-width:0.5;stroke-linecap:round;stroke-linejoin:round;stroke-miterlimit:4;stroke-dasharray:none;stroke-dashoffset:0;stroke-opacity:1;color-rendering:auto;image-rendering:auto;shape-rendering:auto;text-rendering:auto;enable-background:accumulate"
       id="path4166-0-1-5-4"
       cx="223.64937"
       cy="323.8454"
       r="10.186887" />
    <circle
       style="color:#000000;clip-rule:nonzero;display:inline;overflow:visible;visibility:visible;opacity:0.98999999;isolation:auto;mix-blend-mode:normal;color-interpolation:sRGB;color-interpolation-filters:linearRGB;solid-color:#000000;solid-opacity:1;fill:none;fill-opacity:1;fill-rule:nonzero;stroke:#ff0000;stroke-width:0.5;stroke-linecap:round;stroke-linejoin:round;stroke-miterlimit:4;stroke-dasharray:none;stroke-dashoffset:0;stroke-opacity:1;color-rendering:auto;image-rendering:auto;shape-rendering:auto;text-rendering:auto;enable-background:accumulate"
       id="path4166-0-1-5-90"
       cx="270.6593"
       cy="373.19336"
       r="10.186887" />
  </g>
</svg>
