<?xml version="1.0" encoding="UTF-8" standalone="no"?>
<!-- Created with Inkscape (http://www.inkscape.org/) -->
<svg id="svg2" xmlns:rdf="http://www.w3.org/1999/02/22-rdf-syntax-ns#" xmlns="http://www.w3.org/2000/svg" height="200mm" width="210mm" version="1.1" xmlns:cc="http://creativecommons.org/ns#" xmlns:dc="http://purl.org/dc/elements/1.1/" viewBox="0 0 744.09449 708.66141">
 <metadata id="metadata7">
  <rdf:RDF>
   <cc:Work rdf:about="">
    <dc:format>image/svg+xml</dc:format>
    <dc:type rdf:resource="http://purl.org/dc/dcmitype/StillImage"/>
    <dc:title/>
   </cc:Work>
  </rdf:RDF>
 </metadata>
 <g id="layer1" stroke-linejoin="round" transform="translate(0 -343.7)" fill="none">
  <rect id="rect4642" opacity="0.99" style="color-rendering:auto;color:#000000;isolation:auto;mix-blend-mode:normal;shape-rendering:auto;solid-color:#000000;image-rendering:auto" height="703.6" width="742.58" stroke="#00f" stroke-linecap="round" y="348" x=".75751"/>
  <g stroke="#f00" stroke-width=".65981">
   <path id="path4306" opacity="0.99" style="color-rendering:auto;color:#000000;isolation:auto;mix-blend-mode:normal;shape-rendering:auto;solid-color:#000000;image-rendering:auto" d="m167.7 958.69c-0.43092-0.00011-0.8416 0.0873-1.215 0.2448-0.3734 0.15785-0.71006 0.38651-0.99246 0.66894-0.28241 0.28233-0.51091 0.61844-0.66887 0.99175-0.15796 0.37341-0.24481 0.78414-0.24485 1.215 0.00004 0.4308 0.0868 0.84163 0.24485 1.2149 0.15796 0.37331 0.38646 0.70942 0.66887 0.99185 0.2824 0.28233 0.61906 0.51098 0.99246 0.66884 0.37339 0.15785 0.78407 0.2449 1.215 0.24479 0.43084 0 0.84101-0.0873 1.2143-0.24545 0.37334-0.15796 0.70948-0.38651 0.99181-0.66894 0.28235-0.28233 0.51095-0.61844 0.66888-0.99175 0.1579-0.3733 0.24545-0.78348 0.24549-1.2143-0.00004-0.43091-0.0876-0.84109-0.24549-1.2144-0.15793-0.37331-0.38653-0.71007-0.66888-0.9924-0.28233-0.28243-0.61847-0.51032-0.99181-0.66829-0.37331-0.15785-0.78348-0.24545-1.2143-0.24545z"/>
   <path id="path4304" opacity="0.99" style="color-rendering:auto;color:#000000;isolation:auto;mix-blend-mode:normal;shape-rendering:auto;solid-color:#000000;image-rendering:auto" d="m169.2 949.98c-0.43084 0.00011-0.84166 0.0873-1.215 0.24557-0.37332 0.15785-0.70948 0.38585-0.99182 0.66818-0.28233 0.28232-0.51095 0.61909-0.66886 0.9925-0.15792 0.37331-0.2448 0.78349-0.24483 1.2143 0.00003 0.4308 0.087 0.84098 0.24483 1.2144 0.15791 0.3733 0.38653 0.70942 0.66886 0.99174 0.28234 0.28233 0.6185 0.51098 0.99182 0.66895 0.37332 0.15785 0.78414 0.24545 1.215 0.24545 0.43085 0 0.84101-0.0873 1.2143-0.24545 0.37331-0.15797 0.70947-0.38662 0.99182-0.66895 0.28233-0.28232 0.51095-0.61844 0.66886-0.99174 0.15791-0.37342 0.24547-0.7836 0.24549-1.2144-0.00002-0.4308-0.0876-0.84098-0.24549-1.2143-0.15791-0.37341-0.38653-0.71018-0.66886-0.9925-0.28235-0.28233-0.61851-0.51033-0.99182-0.66818-0.37332-0.15797-0.78348-0.24546-1.2143-0.24557z"/>
   <path id="path4302" opacity="0.99" style="color-rendering:auto;color:#000000;isolation:auto;mix-blend-mode:normal;shape-rendering:auto;solid-color:#000000;image-rendering:auto" d="m170.55 941.24c-0.43085 0.00011-0.84167 0.0873-1.215 0.24557-0.37332 0.15785-0.70946 0.38585-0.99181 0.66818-0.28234 0.28232-0.51096 0.61909-0.66885 0.9925-0.15792 0.37331-0.24482 0.78349-0.24485 1.2143 0.00003 0.4308 0.087 0.84098 0.24485 1.2144 0.15789 0.3733 0.38651 0.70941 0.66885 0.99174 0.28235 0.28233 0.61849 0.51098 0.99181 0.66894 0.37332 0.15786 0.78414 0.24546 1.215 0.24546 0.43084 0 0.84101-0.0873 1.2143-0.24546 0.37332-0.15796 0.70946-0.38661 0.99181-0.66894s0.51096-0.61844 0.66886-0.99174c0.15793-0.37342 0.24547-0.7836 0.2455-1.2144-0.00003-0.4308-0.0876-0.84098-0.2455-1.2143-0.1579-0.37341-0.38651-0.71018-0.66886-0.9925-0.28235-0.28233-0.61849-0.51033-0.99181-0.66818-0.37332-0.15797-0.78349-0.24546-1.2143-0.24557z"/>
   <path id="path4215-8" opacity="0.99" style="color-rendering:auto;color:#000000;isolation:auto;mix-blend-mode:normal;shape-rendering:auto;solid-color:#000000;image-rendering:auto" d="m154.22 832.22a91.26 91.26 0 0 0 -91.26 91.26 91.26 91.26 0 0 0 91.26 91.26 91.26 91.26 0 0 0 26.47 -4.01c-0.24079-0.015-0.48907-0.011-0.7286-0.028-1.3235-0.1037-2.6274-0.259-3.9088-0.462-1.2814-0.2032-2.5402-0.4541-3.773-0.751-1.2328-0.2968-2.4392-0.6396-3.6167-1.0252-1.1775-0.3858-2.3258-0.8146-3.4415-1.2839-1.1156-0.4694-2.1986-0.979-3.2459-1.5269-1.0472-0.5478-2.0591-1.1338-3.0312-1.7551-0.97218-0.6214-1.905-1.2783-2.7956-1.9679-0.89053-0.6897-1.7386-1.412-2.5409-2.1648-0.80231-0.75283-1.5584-1.5363-2.2659-2.3473-0.70748-0.81098-1.3664-1.6493-1.9725-2.5133-0.60605-0.864-1.1593-1.7531-1.6574-2.665-0.49804-0.91177-0.94053-1.8461-1.324-2.8008-0.38343-0.95465-0.70795-1.9299-0.97015-2.9223-0.26221-0.99228-0.46228-2.0017-0.59667-3.0266-0.13445-1.0249-0.20284-2.0649-0.20282-3.1173 0.002-1.1249 0.084-2.2429 0.24352-3.3489 0.15967-1.1061 0.39686-2.2 0.7089-3.2781 0.31205-1.078 0.69887-2.1404 1.1579-3.1815 0.45903-1.0413 0.98983-2.0615 1.5904-3.0568 0.60062-0.99545 1.2711-1.9659 2.0079-2.9065 0.73681-0.9408 1.54-1.8516 2.4076-2.7287 0.86764-0.87708 1.7992-1.72 2.7923-2.5245 0.99307-0.80454 2.0481-1.5706 3.1612-2.2935-0.57432-0.84142-1.0809-1.7065-1.5169-2.5908-0.43601-0.88418-0.80169-1.7874-1.0962-2.7044-0.29449-0.91679-0.51722-1.8477-0.6669-2.787-0.1497-0.93927-0.22614-1.8872-0.22778-2.8389 0.002-1.1474 0.1115-2.2813 0.3236-3.3949 0.21218-1.1136 0.52694-2.2067 0.93734-3.2722 0.41041-1.0654 0.91697-2.1032 1.5136-3.106 0.59668-1.0029 1.2835-1.9706 2.0545-2.8967 0.77102-0.92596 1.6259-1.8098 2.5593-2.6446 0.93339-0.83477 1.9448-1.6201 3.0286-2.3493 1.0838-0.72916 2.2402-1.402 3.4625-2.0112 1.2222-0.60915 2.5108-1.1549 3.8596-1.6298-0.69545-0.90884-1.312-1.8722-1.8451-2.8783-0.53315-1.0062-0.98313-2.0551-1.3463-3.1356-0.36314-1.0806-0.63964-2.1926-0.82508-3.3246s-0.2796-2.2842-0.27963-3.4448c0.006-0.48362 0.0305-0.96676 0.0703-1.4487-1.8593-0.5157-5.4363-1.528-8.5128-2.5258-1.5382-0.49891-2.951-0.99434-3.962-1.4224-0.50547-0.21402-0.91046-0.41115-1.1802-0.58353-0.26973-0.17241-0.4042-0.31974-0.3689-0.43454 0.0849-0.27582 0.23324-0.47767 0.40829-0.6249 0.17504-0.14719 0.37617-0.23963 0.56714-0.298 0.3819-0.11668 0.72202-0.0958 0.72202-0.0958l13.117 1.4572c0.1926-0.65623 0.41522-1.299 0.66753-1.9265 0.25232-0.62753 0.53386-1.2396 0.84282-1.8346 0.30895-0.595 0.64566-1.1729 1.0082-1.7316 0.36255-0.55863 0.75132-1.0982 1.1644-1.6167 0.41312-0.51849 0.85021-1.0162 1.3108-1.4907 0.46063-0.47449 0.94487-0.92615 1.45-1.3528 0.50508-0.42672 1.0314-0.82812 1.578-1.2032 0.54652-0.37506 1.1132-0.72339 1.6981-1.043l-1.9383-0.88353 1.423-4.8396 6.7386 2.9196s0.31046-1.3235 0.81655-3.3122 1.2077-4.6424 1.9876-7.3037c0.38994-1.3307 0.79949-2.6634 1.2143-3.9154 0.41484-1.2521 0.83447-2.424 1.2452-3.433 0.41069-1.0089 0.81251-1.8549 1.19-2.4562 0.18876-0.30069 0.3711-0.54033 0.54612-0.70828 0.17502-0.16791 0.34251-0.26436 0.50018-0.27893 0.31532-0.0292 0.94279 0.12061 1.7992 0.40826 0.8564 0.28757 1.9421 0.71308 3.1743 1.236 2.4645 1.0459 5.5151 2.4808 8.4918 3.9791s5.8795 3.0601 8.0468 4.3591c1.0836 0.64949 1.9836 1.2331 2.617 1.7106 0.31674 0.23874 0.56655 0.451 0.73977 0.63145 0.17321 0.18043 0.26992 0.32914 0.27896 0.44109 0.0181 0.22396-0.16346 0.66916-0.49492 1.2774-0.33144 0.60819-0.81307 1.3794-1.3948 2.254-1.1635 1.7494-2.7286 3.9139-4.2981 6.0224-3.1389 4.2171-6.2955 8.2102-6.2955 8.2102l6.7215 2.8803-2.4004 4.8015-2.3387-1.066c0.21926 0.855 0.3843 1.7226 0.49557 2.598 0.11133 0.87538 0.16879 1.7585 0.17067 2.6433-0.0003 0.68831-0.034 1.3731-0.0999 2.0519-0.0659 0.67874-0.16447 1.3512-0.29408 2.0158-0.12957 0.66461-0.29032 1.3214-0.48179 1.9672-0.19147 0.64586-0.41348 1.2811-0.66493 1.9036-0.25146 0.62244-0.53258 1.2323-0.84216 1.8267-0.30957 0.5945-0.64763 1.1737-1.0135 1.7355-0.36583 0.56185-0.75931 1.1059-1.1796 1.6305-0.42023 0.52458-0.86695 1.0296-1.3397 1.5123 1.0455 0.54392 2.0384 1.134 2.9761 1.7651 0.9377 0.63098 1.8199 1.3032 2.6433 2.0118 0.82338 0.70854 1.5883 1.4536 2.2908 2.2304 0.70256 0.77684 1.3428 1.5854 1.918 2.4208 0.5752 0.83542 1.0848 1.6976 1.5261 2.5823 0.44131 0.88461 0.81432 1.7912 1.1152 2.7155 0.3009 0.92432 0.52997 1.8665 0.68395 2.8212 0.15395 0.95465 0.23315 1.922 0.2337 2.8973-0.003 1.0824-0.10379 2.1594-0.29801 3.2235-0.19427 1.0642-0.48278 2.1156-0.8625 3.1468-0.37974 1.0311-0.85085 2.0418-1.4106 3.0253-0.55977 0.98345-1.2079 1.9395-1.9423 2.8606 0.96868 0.71749 1.8846 1.4694 2.7464 2.2521 0.86173 0.78262 1.6686 1.5959 2.4195 2.4365 0.75083 0.84065 1.4455 1.7086 2.0814 2.6 0.63595 0.89149 1.2138 1.8061 1.7309 2.7411 0.51713 0.93513 0.97363 1.8903 1.3679 2.8619 0.39431 0.97156 0.72624 1.9595 0.99378 2.9604 0.26756 1.0009 0.47034 2.0147 0.60717 3.0377 0.13681 1.023 0.20792 2.0556 0.21004 3.0936 0.00001 0.94821-0.0737 1.8827-0.18314 2.8088a91.26 91.26 0 0 0 22.308 -59.701 91.26 91.26 0 0 0 -91.26 -91.26z"/>
  </g>
  <g id="g4938" transform="matrix(0 -1.5725 1.5725 0 -899.29 1080.8)" stroke="#f00" stroke-width=".41959">
   <path id="path4352" opacity="0.99" style="color-rendering:auto;color:#000000;isolation:auto;mix-blend-mode:normal;shape-rendering:auto;solid-color:#000000;image-rendering:auto" d="m81.966 925.54-17.62-12.64 2.4407 5.694-4.2743 3.3585 2.7474 4.8846-3.9688 1.832 1.653 2.4799 19.022-5.6092z"/>
   <path id="path4350" opacity="0.99" style="color-rendering:auto;color:#000000;isolation:auto;mix-blend-mode:normal;shape-rendering:auto;solid-color:#000000;image-rendering:auto" d="m99.201 966.18-22.929-18.964-3.9896 2.8158 2.4427 6.1064-3.0534 5.1901 4.885 7.0222-2.638 6.7162 25.282-8.8872z"/>
   <path id="path4215-0-7-4" opacity="0.99" style="color-rendering:auto;color:#000000;isolation:auto;mix-blend-mode:normal;shape-rendering:auto;solid-color:#000000;image-rendering:auto" d="m158.1 945.15a58.034 58.034 0 0 0 -58.034 -58.034 58.034 58.034 0 0 0 -41.313 17.348 1.8061 1.8061 0 0 1 0.08096 0.0416 1.8061 1.8061 0 0 1 0.15193 0.0977l28.088 20.15a1.8061 1.8061 0 0 1 0.04648 0.0347 1.8061 1.8061 0 0 1 0.13777 0.1169 1.8061 1.8061 0 0 1 0.12522 0.12979 1.8061 1.8061 0 0 1 0.11148 0.14194 1.8061 1.8061 0 0 1 0.09684 0.15234 1.8061 1.8061 0 0 1 0.08096 0.1615 1.8061 1.8061 0 0 1 0.06452 0.16865 1.8061 1.8061 0 0 1 0.04717 0.17405 1.8061 1.8061 0 0 1 0.02983 0.17787 1.8061 1.8061 0 0 1 0.01179 0.1803 1.8061 1.8061 0 0 1 -0.0069 0.1803 1.8061 1.8061 0 0 1 -0.02428 0.17913 1.8061 1.8061 0 0 1 -0.04162 0.17565 1.8061 1.8061 0 0 1 -0.05897 0.17038 1.8061 1.8061 0 0 1 -0.07596 0.16399 1.8061 1.8061 0 0 1 -0.09185 0.15533 1.8061 1.8061 0 0 1 -0.10683 0.14561 1.8061 1.8061 0 0 1 -0.12064 0.13403 1.8061 1.8061 0 0 1 -0.13403 0.12106 1.8061 1.8061 0 0 1 -0.14485 0.10766 1.8061 1.8061 0 0 1 -0.15526 0.0923 1.8061 1.8061 0 0 1 -0.16365 0.0764 1.8061 1.8061 0 0 1 -0.17031 0.0597l-20.558 6.0621 37.99 31.42a1.8061 1.8061 0 0 1 0.0166 0.0139 1.8061 1.8061 0 0 1 0.13149 0.12356 1.8061 1.8061 0 0 1 0.11895 0.13604 1.8061 1.8061 0 0 1 0.10436 0.14741 1.8061 1.8061 0 0 1 0.0893 0.15651 1.8061 1.8061 0 0 1 0.073 0.16531 1.8061 1.8061 0 0 1 0.0563 0.17156 1.8061 1.8061 0 0 1 0.0393 0.17614 1.8061 1.8061 0 0 1 0.021 0.17947 1.8061 1.8061 0 0 1 0.003 0.1803 1.8061 1.8061 0 0 1 -0.015 0.17995 1.8061 1.8061 0 0 1 -0.0325 0.1778 1.8061 1.8061 0 0 1 -0.0505 0.17323 1.8061 1.8061 0 0 1 -0.0672 0.16739 1.8061 1.8061 0 0 1 -0.0839 0.15984 1.8061 1.8061 0 0 1 -0.0993 0.15068 1.8061 1.8061 0 0 1 -0.11396 0.14027 1.8061 1.8061 0 0 1 -0.12731 0.1282 1.8061 1.8061 0 0 1 -0.13942 0.11432 1.8061 1.8061 0 0 1 -0.15027 0.10018 1.8061 1.8061 0 0 1 -0.15946 0.0848 1.8061 1.8061 0 0 1 -0.16695 0.0687l-45.811 16.11a58.034 58.034 0 0 0 42.464 18.55 58.034 58.034 0 0 0 58.034 -58.034z"/>
  </g>
  <path id="path4215-0-78" opacity="0.99" style="color-rendering:auto;color:#000000;isolation:auto;mix-blend-mode:normal;shape-rendering:auto;solid-color:#000000;image-rendering:auto" d="m370.61 832.22a91.26 91.26 0 0 0 -91.26 91.26 91.26 91.26 0 0 0 82.372 90.815c0.0198-0.048 0.0212-0.094 0.0447-0.1417 0.1129-0.2317 0.26706-0.469 0.46473-0.7149 0.19768-0.2459 0.43868-0.5007 0.72399-0.7666 0.57062-0.5319 1.3191-1.1096 2.2574-1.7565 0.66205-0.4565 1.1741-0.8171 1.574-1.1277 0.39999-0.3106 0.68794-0.571 0.90189-0.8264 0.21396-0.2555 0.3542-0.5064 0.45818-0.7975 0.10394-0.2912 0.17151-0.6222 0.24154-1.0398 0.0797-0.4752 0.0539-2.1894-0.0182-3.8137-0.0723-1.6241-0.19127-3.1588-0.29735-3.276-0.0385-0.0425-1.4714 1.3007-3.1848 2.9846-1.0739 1.0555-2.0001 1.9296-2.8146 2.6472-0.81457 0.7177-1.5179 1.2786-2.1458 1.7081-0.62782 0.4294-1.1805 0.7273-1.6942 0.9182-0.51369 0.191-0.98832 0.2749-1.4605 0.277-0.28752 0-0.55689-0.029-0.80867-0.093-0.25176-0.063-0.4859-0.1599-0.70366-0.2894-0.21776-0.1296-0.41902-0.2919-0.60453-0.4884-0.18552-0.1965-0.355-0.4273-0.51001-0.6918-0.25482-0.4349-0.46343-0.8416-0.46343-0.9038 0-0.062 3.0659-2.6434 6.8134-5.7357 2.1159-1.7459 3.6614-2.9926 4.7884-3.9692 0.56352-0.48829 1.022-0.90927 1.3955-1.2912 0.37354-0.38181 0.66177-0.72468 0.88351-1.0574 0.22171-0.33273 0.37698-0.65553 0.48508-0.99643 0.10803-0.34091 0.1689-0.70026 0.2015-1.1067 0.0653-0.81261 0.0176-1.8133 0.009-3.2314-0.011-2.1769-0.0708-4.0078-0.1313-4.0683-0.0607-0.0611-0.55569 0.18535-1.1001 0.54676-0.49158 0.3263-0.97344 0.58604-1.4388 0.77848-0.46538 0.19254-0.9143 0.31789-1.3404 0.37483-0.42606 0.0567-0.82952 0.0458-1.2032-0.0349s-0.71776-0.23018-1.026-0.44967c-0.2837-0.20204-0.53609-0.49418-0.75026-0.85265-0.21416-0.35837-0.38984-0.78262-0.52052-1.2478-0.13067-0.46516-0.21619-0.97167-0.24943-1.494-0.0333-0.52221-0.0141-1.0607 0.0637-1.5904 0.0981-0.66491 0.1804-1.2662 0.18247-1.3364 0.002-0.0698-0.94514 0.41662-2.088 1.0456-1.1429 0.62891-2.4814 1.4002-3.2623 1.899-0.42136 0.26912-0.80817 0.54981-1.1631 0.85003-0.35497 0.30011-0.67849 0.61952-0.97345 0.96687-0.29494 0.34723-0.56145 0.72174-0.80276 1.1322-0.2413 0.41051-0.4571 0.85723-0.65115 1.3469-0.19403 0.48971-0.36605 1.023-0.5192 1.6081-0.15316 0.58516-0.28768 1.2221-0.40631 1.9187-0.23725 1.3932-0.412 3.0249-0.54941 4.9604-0.083 1.1699-0.18877 2.1768-0.32425 3.0398-0.13556 0.86302-0.30037 1.582-0.50148 2.1772s-0.43819 1.0666-0.7181 1.4329c-0.27992 0.3663-0.60284 0.6277-0.97475 0.8041-0.29549 0.1403-0.65747 0.2158-1.0345 0.2376-0.37702 0.022-0.76908-0.011-1.1238-0.085-0.35467-0.074-0.67213-0.1921-0.90057-0.3413-0.11416-0.074-0.20594-0.1569-0.26912-0.2461-0.0632-0.089-0.098-0.1853-0.0972-0.2863 0.002-0.2137 0.53285-3.5516 1.1802-7.4178 0.42579-2.5431 0.70303-4.2941 0.85201-5.4008 0.14892-1.1067 0.17005-1.569 0.0821-1.5354-0.13383 0.0513-1.1046 0.62029-2.1569 1.2643-0.58928 0.36065-1.1554 0.75043-1.6843 1.1553-0.52889 0.40473-1.0203 0.82462-1.4598 1.2458-0.43957 0.4212-0.82737 0.84382-1.1487 1.2537-0.32132 0.40996-0.57613 0.80738-0.75027 1.1783-0.25329 0.53945-0.5495 1.4439-0.8369 2.5205-0.2874 1.0767-0.56595 2.3254-0.78439 3.5531-0.13382 0.75169-0.34547 1.4062-0.46998 1.454-0.11653 0.045-0.2897 0.044-0.49362 0.011-0.20391-0.035-0.43825-0.1047-0.67674-0.1982-0.47696-0.1875-0.97045-0.4716-1.2688-0.77-0.2892-0.28916-0.44284-0.46229-0.52379-0.71287-0.081-0.25047-0.0896-0.5784-0.0873-1.1769 0.002-0.42218 0.0404-0.85004 0.11558-1.2806 0.075-0.43058 0.18636-0.86367 0.33346-1.2951 0.24412-0.71596 0.42534-1.3202 0.40302-1.3429-0.0223-0.0229-0.9981 0.45992-2.1687 1.0731l-2.128 1.1152-0.57631-0.6216c-0.19136-0.2065-0.36673-0.44476-0.51922-0.69905-0.15254-0.25429-0.28202-0.52472-0.38332-0.79429-0.10143-0.26945-0.17416-0.53825-0.21202-0.79025-0.0379-0.252-0.041-0.48676-0.003-0.68858 0.0322-0.17203 0.12958-0.39851 0.25992-0.62421 0.13037-0.22571 0.29389-0.4512 0.45948-0.6216 0.2977-0.30633 0.8647-0.67691 1.4342-0.97342 0.56952-0.29662 1.142-0.51894 1.4519-0.52909 0.17609-0.0109-0.30736-0.246-1.0745-0.53421-1.2141-0.45622-4.6747-1.868-4.7805-1.9502-0.0208-0.0164 0.17048-0.61232 0.42469-1.3246 0.2542-0.71225 0.49607-1.3928 0.53759-1.5123 0.0256-0.0742 0.26764-0.0545 0.73975 0.06 0.47212 0.1151 1.1739 0.32586 2.1202 0.63676 1.294 0.42502 2.3573 0.74095 3.2872 0.9432 0.92994 0.20226 1.7267 0.29095 2.4884 0.26324 0.38085-0.0141 0.75284-0.0567 1.1283-0.12928 0.37551-0.0731 0.75474-0.17487 1.1494-0.3072 0.78922-0.26476 1.6406-0.64974 2.6531-1.1585 1.2357-0.62105 2.4435-1.2786 2.6834-1.4612l0.43585-0.33218-1.366-0.39185c-0.75132-0.21535-2.5793-0.72938-4.0624-1.1421-1.3138-0.36567-2.4312-0.71586-3.3785-1.0654-0.94723-0.34953-1.7246-0.69818-2.3571-1.0613-0.63249-0.36328-1.1205-0.74084-1.49-1.1474-0.36953-0.40658-0.62014-0.84218-0.77849-1.322-0.1203-0.36447-0.15726-0.68563-0.0939-1.0621 0.0634-0.37647 0.22707-0.80825 0.50739-1.3948 0.16898-0.35356 0.27864-0.55145 0.39777-0.64789 0.1192-0.096 0.2477-0.0916 0.45226-0.0404 0.25604 0.0644 3.9484 1.4273 8.2056 3.0293 3.6002 1.3547 5.5571 2.083 6.7589 2.472 0.60091 0.19451 1.0132 0.30403 1.3476 0.3649 0.33443 0.0611 0.59149 0.0731 0.88153 0.072 0.55356 0 0.91351-0.0273 1.3272-0.14706 0.41372-0.12022 0.88101-0.33567 1.6482-0.71804 0.95067-0.47389 2.565-1.4522 3.5879-2.1741 1.0229-0.72175 1.9227-1.3129 1.9994-1.3134 0.11448 0 0.16973-0.0262 0.16934-0.0731-0.00033-0.0469-0.0565-0.11552-0.16343-0.20226-0.21404-0.17334-0.63286-0.41923-1.2242-0.71149-0.55402-0.27382-1.0376-0.56574-1.4506-0.87174-0.41301-0.30589-0.75574-0.62585-1.0279-0.95498-0.27219-0.32923-0.47358-0.66796-0.6052-1.0116-0.13162-0.34352-0.19319-0.69185-0.18443-1.0409 0.009-0.3492 0.0874-0.69916 0.23629-1.045 0.14892-0.34592 0.36761-0.6877 0.65641-1.0214 0.28877-0.33371 0.64799-0.65946 1.0765-0.97211 0.42848-0.31265 0.92665-0.61243 1.4946-0.89531 0.63931-0.31832 1.1616-0.62388 1.1605-0.67876-0.002-0.10363-1.2924-0.98934-2.7155-1.9107-1.4231-0.92138-2.9791-1.8779-3.513-2.1215-0.44542-0.20324-0.79455-0.33131-1.1717-0.40898-0.37711-0.0775-0.78227-0.10474-1.339-0.10801-0.62118 0-1.0412 0.0218-1.5957 0.15688-0.55446 0.13549-1.2429 0.38116-2.4024 0.81981-1.432 0.54175-4.0269 1.5212-5.7658 2.1759-1.7389 0.65476-4.1655 1.5693-5.3929 2.0329l-2.2318 0.84349-0.40958-0.46484c-0.20117-0.228-0.40044-0.61178-0.54941-1.0206-0.14892-0.40876-0.24775-0.84283-0.24877-1.1697 0-0.18229 0.12092-0.62302 0.26978-0.9793 0.0986-0.23619 0.22287-0.46015 0.38005-0.67615 0.15725-0.216 0.34709-0.42371 0.57697-0.62618 0.45976-0.40505 1.0791-0.78938 1.9147-1.1802 0.8356-0.39076 1.8876-0.78785 3.2124-1.2176 1.3248-0.42971 2.9226-0.89225 4.8501-1.4139 1.2018-0.3252 2.1851-0.65629 2.1851-0.73582 0-0.108-0.97745-0.78927-2.1103-1.5162-1.1328-0.72698-2.4212-1.4997-3.0424-1.7906-0.44606-0.20902-0.77937-0.33459-1.1552-0.40833-0.37588-0.0742-0.7941-0.0949-1.4099-0.0949-0.69976 0-1.108 0.0175-1.6279 0.15818-0.51989 0.14051-1.1518 0.40528-2.2987 0.90448-1.3411 0.58374-2.7717 1.115-3.1796 1.1802-0.33424 0.0534-0.64333 0.0436-0.92288-0.0251s-0.53013-0.19669-0.74829-0.38204c-0.21816-0.18534-0.40393-0.42785-0.554-0.72403-0.15002-0.29618-0.26408-0.64625-0.33935-1.0476-0.0587-0.31298-0.0822-0.48033-0.0256-0.58287 0.0566-0.10255 0.19316-0.14029 0.45358-0.19233 0.30412-0.0611 1.4183-0.49942 2.4759-0.97472 1.0577-0.47542 2.2093-0.9108 2.5586-0.96753l0.63538-0.10363-0.72399-0.37091c-0.3979-0.204-1.1422-0.68072-1.6541-1.0587-0.51187-0.378-1.1986-0.82582-1.5261-0.99513l-0.59534-0.30785 0.31638-0.86247c0.17407-0.47454 0.60952-1.1921 0.96754-1.5944 0.28191-0.3168 0.58986-0.54818 0.92156-0.69512 0.33173-0.14696 0.68723-0.20902 1.0647-0.18644 0.37746 0.0229 0.77682 0.1297 1.196 0.3216 0.41914 0.192 0.858 0.46865 1.3148 0.82974 0.32564 0.25735 0.55403 0.41858 0.68855 0.48502 0.0673 0.0327 0.11102 0.0425 0.13193 0.0294 0.0209-0.0141 0.019-0.0513-0.005-0.11094-0.25173-0.62345-0.45384-1.2104-0.60586-1.7552-0.15206-0.54479-0.2536-1.0476-0.30455-1.5018-0.051-0.45414-0.0516-0.86007 0-1.2117 0.0514-0.3516 0.15458-0.64855 0.30982-0.88549 0.0999-0.1524 0.2617-0.30906 0.45881-0.45622 0.19712-0.14716 0.42974-0.28516 0.67149-0.40167 0.24174-0.11651 0.49222-0.21131 0.72597-0.27175 0.23377-0.0611 0.45041-0.0862 0.62359-0.0654 0.11589 0.0142 0.20568 0.0305 0.28224 0.0862 0.0766 0.0556 0.14026 0.1488 0.2048 0.31571 0.12895 0.33404 0.26082 0.96164 0.50543 2.1668 0.28238 1.3913 0.54722 2.5167 0.85133 3.4638 0.15207 0.47357 0.31408 0.90284 0.49296 1.2983 0.17887 0.39556 0.37475 0.75742 0.5947 1.0969 0.21995 0.33949 0.46383 0.65683 0.73909 0.96229 0.27528 0.30545 0.58197 0.59923 0.92684 0.89268 0.68971 0.58691 1.5332 1.1723 2.5869 1.8432 1.0906 0.69436 1.7277 1.0847 2.0919 1.2569 0.18214 0.0862 0.29629 0.11759 0.3643 0.10473 0.0679-0.0119 0.0898-0.0687 0.0885-0.15883-0.002-0.13887-0.5362-3.4326-1.1881-7.3196-0.65186-3.8869-1.151-7.1243-1.1093-7.1941 0.0415-0.0698 0.52428-0.22701 1.0732-0.34985 0.3557-0.0796 0.67672-0.12643 0.97081-0.13778 0.2941-0.0109 0.56127 0.013 0.81 0.0731 0.24872 0.0611 0.47878 0.15883 0.6984 0.29596 0.21959 0.13712 0.42932 0.31374 0.63604 0.53105 0.32133 0.33775 0.5978 0.73822 0.83756 1.234 0.23978 0.49582 0.44283 1.0867 0.61635 1.8038 0.17355 0.71705 0.31781 1.5606 0.44045 2.5625 0.12266 1.0018 0.22344 2.1618 0.31047 3.5117 0.11526 1.7866 0.33123 3.8761 0.47982 4.6433 0.12203 0.62978 0.28158 1.2081 0.48444 1.7421 0.20285 0.53399 0.44867 1.0239 0.74237 1.4775s0.63536 0.87043 1.0299 1.259c0.39452 0.38847 0.8416 0.74869 1.3469 1.0876 0.87698 0.58821 5.6425 3.1743 5.8492 3.1743 0.0384 0-0.002-0.31352-0.0918-0.69708-0.142-0.61178-0.19067-1.4199-0.15678-2.1766 0.017-0.37843 0.0542-0.74367 0.11086-1.0654 0.0568-0.32171 0.13272-0.59967 0.22646-0.8028 0.13288-0.28778 0.2909-0.5449 0.47131-0.76996 0.18038-0.22494 0.38314-0.41814 0.60452-0.5796 0.22141-0.16145 0.4616-0.29072 0.71745-0.38792 0.25584-0.0971 0.52757-0.16211 0.81132-0.19429 0.28374-0.0327 0.57972-0.0316 0.88481 0 0.30509 0.0338 0.61876 0.10036 0.93864 0.20018 0.31989 0.10036 0.64597 0.23433 0.97409 0.40167 0.32814 0.16745 0.6587 0.36851 0.98854 0.60392 0.48608 0.34691 0.92515 0.63077 0.97605 0.63077 0.092 0 0.11385-1.4642 0.0873-3.0778-0.0266-1.6137-0.10095-3.3766-0.20282-3.9738-0.0855-0.5028-0.18864-0.94549-0.32754-1.3587-0.13886-0.41334-0.3138-0.79745-0.54284-1.1835-0.22904-0.38596-0.51234-0.77367-0.86841-1.1946-0.35605-0.42087-0.78491-0.8748-1.3049-1.3929-0.65848-0.65585-1.3347-1.2633-2.0972-1.8772-0.76248-0.61396-1.611-1.2345-2.6144-1.9167-1.0944-0.74411-2.0042-1.3946-2.7529-1.9757-0.74877-0.58113-1.3368-1.093-1.788-1.5609-0.45119-0.468-0.76591-0.89193-0.96751-1.2964-0.20161-0.40451-0.29013-0.78993-0.29013-1.1808 0-0.23454 0.0359-0.47934 0.10316-0.72469 0.0671-0.24534 0.1658-0.4908 0.28947-0.72665 0.1236-0.23586 0.27285-0.462 0.4424-0.66818s0.35901-0.39251 0.56384-0.54873l0.65837-0.50214 0.78504 0.62422c0.43155 0.34352 2.2488 1.8366 4.0388 3.3181 1.79 1.4813 3.995 3.3045 4.8994 4.0512 0.90437 0.74684 1.7101 1.3581 1.7906 1.3581 0.061 0 0.11794-0.34832 0.1654-0.88734 0.0475-0.53913 0.0851-1.2688 0.10898-2.0322 0.0478-1.5267 0.0392-3.1874-0.0664-3.7237-0.11952-0.60774-0.35351-1.2581-0.64392-1.8353-0.29043-0.57709-0.63727-1.0813-0.98263-1.3974-0.29082-0.26618-1.3658-1.1125-2.3886-1.8813-1.0706-0.80443-1.6879-1.2894-2.0617-1.6652-0.18694-0.18795-0.31284-0.34832-0.40435-0.50813-0.0915-0.15983-0.14844-0.31888-0.19691-0.50346-0.0547-0.20781-0.0865-0.39208-0.0912-0.56509-0.005-0.17303 0.0176-0.33459 0.0709-0.49757 0.10677-0.32596 0.33721-0.65687 0.72466-1.0909l0.71547-0.80148 0.5284 0.48443c0.29069 0.2662 1.1982 0.96737 2.0165 1.5582 0.81828 0.59105 1.697 1.2687 1.9528 1.5059l0.46471 0.43124v-1.5249c0-0.44106 0.0165-0.81306 0.055-1.1329 0.0387-0.31975 0.0999-0.58718 0.19035-0.81916 0.0904-0.23196 0.20968-0.42881 0.36496-0.60652 0.1552-0.17768 0.34642-0.33662 0.5796-0.4936 0.26083-0.17559 0.52362-0.2944 0.78307-0.36299 0.25947-0.0686 0.51538-0.087 0.76208-0.0598s0.48434 0.0997 0.70693 0.21136c0.22261 0.11165 0.43056 0.26264 0.61767 0.44766 0.18713 0.18501 0.35332 0.40406 0.4936 0.65114 0.14027 0.24707 0.25464 0.52256 0.33674 0.8205 0.0821 0.29791 0.13257 0.61809 0.14515 0.95562 0.0126 0.33753-0.0126 0.69218-0.0813 1.0582-0.0896 0.47977-0.10851 0.74759-0.0395 0.82308 0.0692 0.0753 0.22666-0.0415 0.48967-0.33219 0.19082-0.21086 0.93604-0.81141 1.6561-1.3344 0.72003-0.52299 1.6085-1.2316 1.9744-1.5753 0.20998-0.19721 0.4034-0.34303 0.56778-0.43057 0.16438-0.0876 0.29998-0.11716 0.39319-0.0815 0.12927 0.0495 0.27458 0.16922 0.42009 0.33084 0.14546 0.16163 0.29068 0.36532 0.42008 0.5842 0.12942 0.21885 0.24271 0.45279 0.32362 0.67414 0.081 0.22135 0.12989 0.42971 0.12989 0.59869 0 0.32706-0.0448 0.6228-0.16147 0.91756-0.11668 0.29477-0.30562 0.58877-0.59405 0.91309-0.28842 0.32422-0.67614 0.67844-1.1914 1.0942-0.51521 0.41574-1.1577 0.8928-1.9548 1.4618-1.0706 0.7644-1.7093 1.2574-2.1175 1.6962-0.20412 0.21938-0.35041 0.42512-0.46473 0.6445-0.11432 0.21949-0.19669 0.45229-0.27175 0.726-0.1052 0.38367-0.13697 1.6277-0.10961 3.0109 0.0274 1.3832 0.11401 2.9052 0.24549 3.8458l0.12345 0.88353 3.2813-3.2078c0.90232-0.88222 1.8688-1.7814 2.6984-2.5192 0.8297-0.73767 1.5227-1.314 1.8793-1.551 0.65535-0.4356 1.3389-0.80204 1.9528-1.0587 0.61387-0.25669 1.1579-0.40352 1.5353-0.3997 0.21323 0 0.43979 0.0458 0.66886 0.12327 0.22905 0.0785 0.46078 0.19134 0.68461 0.33218 0.22382 0.14094 0.43986 0.30981 0.63737 0.50018 0.19747 0.19036 0.37633 0.40221 0.52642 0.6288 0.32526 0.49112 0.58554 0.94123 0.57828 1.0004-0.008 0.0589-3.0312 2.5764-6.7195 5.5938-1.8442 1.5087-3.5692 2.9533-4.8633 4.0657s-2.1571 1.8926-2.2764 2.0716c-0.2019 0.30306-0.3695 0.62815-0.50543 0.98913-0.13586 0.36098-0.23982 0.75796-0.31441 1.2045-0.0745 0.4465-0.11998 0.94276-0.13775 1.5025-0.0179 0.55975-0.008 1.1826 0.0263 1.8832 0.0675 1.3809 0.17324 2.9511 0.23564 3.4894l0.11354 0.97865 0.57894-0.4404c0.51837-0.39458 1.069-0.71421 1.6265-0.94712 0.55751-0.23313 1.1215-0.37942 1.6653-0.42873 0.34915-0.0316 0.67958-0.0229 0.98918 0.0251s0.59862 0.13299 0.86448 0.25342c0.26587 0.12044 0.50865 0.27567 0.72662 0.46276 0.21799 0.18709 0.41108 0.40625 0.57698 0.65378 0.16592 0.24752 0.30449 0.52396 0.41419 0.82571 0.1096 0.30185 0.1903 0.6289 0.23959 0.97876 0.0494 0.34985 0.0671 0.72218 0.0519 1.1138-0.0157 0.39164-0.0637 0.80291-0.14766 1.2301-0.12329 0.62694-0.19745 1.1649-0.16475 1.1953 0.0649 0.06 2.0825-1.0541 4.7103-2.6019 0.51474-0.30327 0.9845-0.6096 1.4139-0.92749 0.42938-0.318 0.81835-0.64767 1.171-0.99839 0.35267-0.35073 0.66918-0.72218 0.95374-1.1238 0.2846-0.40145 0.53762-0.83258 0.76276-1.303 0.22509-0.4704 0.42235-0.97997 0.59663-1.5372 0.17431-0.55735 0.32539-1.1626 0.45753-1.8249 0.26429-1.3244 0.4532-2.8762 0.60061-4.7286 0.16736-2.1033 0.26129-3.2293 0.37478-4.0198 0.11353-0.79047 0.24615-1.2454 0.49033-2.0086 0.17371-0.54294 0.38561-0.99938 0.63737-1.3698 0.25172-0.37058 0.5432-0.65509 0.8776-0.85592 0.33438-0.20095 0.71187-0.31789 1.1336-0.35182 0.42171-0.0338 0.88771 0.0153 1.4014 0.14499 0.43943 0.11138 0.69901 0.19341 0.8533 0.29738 0.15427 0.10363 0.20346 0.22941 0.22385 0.42796 0.0263 0.25571-0.48521 3.6032-1.1369 7.4389-0.65168 3.8358-1.1639 6.9997-1.1382 7.0307 0.0258 0.0305 1.1649-0.51262 2.5317-1.2084 1.0054-0.51185 1.6848-0.88603 2.2363-1.2543 0.55153-0.3684 0.97555-0.73047 1.469-1.2196 0.35846-0.35531 0.64513-0.66873 0.87893-0.98586 0.23379-0.31723 0.41446-0.63829 0.55992-1.0103 0.14545-0.372 0.2557-0.79495 0.34918-1.3148 0.0934-0.51971 0.17028-1.1365 0.24811-1.897 0.11888-1.1609 0.26934-2.0914 0.45095-2.7864 0.0907-0.34746 0.18935-0.636 0.29528-0.86509 0.10583-0.22909 0.21982-0.39862 0.34068-0.50804 0.12187-0.11028 0.2748-0.20072 0.45033-0.27043 0.17543-0.0698 0.37343-0.11923 0.58614-0.1464 0.42558-0.0546 0.90949-0.0218 1.3863 0.10691 0.34735 0.0938 0.54382 0.16113 0.64266 0.25004 0.0981 0.0894 0.0992 0.1992 0.0546 0.37811-0.0568 0.2268-0.22592 1.4559-0.37548 2.7312-0.14955 1.2755-0.36239 2.5568-0.47324 2.8475l-0.20213 0.52844 0.69969-0.54808c0.4703-0.36872 0.93012-0.65617 1.3738-0.86181 0.44378-0.20575 0.87121-0.32945 1.276-0.37091 0.40494-0.0414 0.78764 0 1.1415 0.12338 0.35389 0.12393 0.67942 0.33087 0.97015 0.6216 0.1777 0.17771 0.31603 0.37036 0.41749 0.57305 0.10143 0.20269 0.16537 0.4152 0.19493 0.63338 0.0294 0.21818 0.0241 0.44226-0.0141 0.66633-0.0382 0.22396-0.10803 0.44847-0.20935 0.66883-0.10143 0.22037-0.23215 0.4368-0.39186 0.64397-0.1597 0.20705-0.34778 0.40505-0.56182 0.58941-0.21414 0.18426-0.45414 0.35476-0.71814 0.50673-0.26399 0.15186-0.55232 0.28516-0.86181 0.39512l-0.88025 0.31244 1.341 0.49364c1.168 0.4297 4.6143 1.8304 4.73 1.9226 0.0742 0.0589-0.0294 0.43287-0.20094 0.84872-0.17106 0.41575-0.40943 0.87371-0.60316 1.104-0.24143 0.28691-0.50324 0.49233-0.82113 0.61178-0.31799 0.11945-0.69185 0.15306-1.1566 0.0971-0.46484-0.0567-1.0208-0.20324-1.7027-0.44444-0.68193-0.24119-1.4896-0.57719-2.4589-1.0115-0.91046-0.40801-1.6021-0.69295-2.1333-0.87502-0.53116-0.18197-0.90173-0.26106-1.171-0.25724-0.24424 0-0.53945 0.0633-0.88613 0.17978-0.34664 0.11684-0.74482 0.29084-1.1952 0.52189-0.90092 0.462-2.0108 1.1535-3.3345 2.0761l-2.0453 1.4257 1.3942 0.41487c0.76716 0.22811 2.6502 0.76145 4.1845 1.1848 1.4736 0.40658 2.9028 0.90469 4.0952 1.4132 0.59618 0.25429 1.1333 0.5112 1.5872 0.76014 0.45381 0.24895 0.82439 0.49025 1.0876 0.71345 0.20728 0.17564 0.39765 0.38531 0.56389 0.61375 0.16614 0.22843 0.3083 0.47509 0.41946 0.72469 0.11102 0.2496 0.19156 0.50247 0.23366 0.7417 0.0415 0.23924 0.0458 0.46495 0 0.66229-0.0829 0.39633-0.2953 0.94069-0.51599 1.3857-0.22058 0.44487-0.44913 0.79091-0.56312 0.79091-0.10033 0-3.7883-1.3565-8.1964-3.0141-3.6971-1.3902-5.7243-2.1438-6.9683-2.5496-0.62199-0.2028-1.0484-0.31822-1.3896-0.38324-0.34112-0.0654-0.59704-0.0796-0.8789-0.0796-0.39156 0-0.78551 0.0469-1.2091 0.15219-0.42355 0.10473-0.87691 0.26771-1.3856 0.50094-0.50873 0.23313-1.0728 0.53673-1.7198 0.9228-0.64697 0.38607-1.3763 0.85516-2.2146 1.4185l-2.3932 1.6082 1.1283 0.60251c0.58899 0.31472 1.0937 0.62323 1.5202 0.93076 0.42655 0.30763 0.77449 0.6144 1.0496 0.92749s0.47766 0.63185 0.61239 0.96294c0.13477 0.3312 0.20197 0.67472 0.20742 1.0365 0.006 0.40069-0.0695 0.79123-0.22445 1.169-0.15505 0.37778-0.38937 0.7428-0.70107 1.093-0.31164 0.34997-0.70027 0.68465-1.1644 1.0022-0.46415 0.31767-1.0037 0.61832-1.6161 0.89869-0.45773 0.20956-0.71284 0.33872-0.81853 0.43712-0.0528 0.0491-0.0684 0.0906-0.0532 0.13058 0.0157 0.0404 0.0615 0.0786 0.13131 0.12142 0.17909 0.11072 1.1378 0.76876 2.1306 1.4625 0.66644 0.46571 1.3067 0.88243 1.9154 1.2472 0.60871 0.36469 1.1855 0.67767 1.725 0.936 0.53949 0.25822 1.0417 0.46145 1.5005 0.60774 0.45886 0.1464 0.87442 0.23564 1.2412 0.26455 0.29287 0.0229 0.52115 0.0382 0.82577 0 0.30459-0.0382 0.68614-0.13026 1.2859-0.32029 1.1995-0.38007 3.2721-1.1529 7.3523-2.6774 3.8637-1.4437 5.9373-2.2114 7.074-2.5797 0.56836-0.18414 0.9024-0.26847 1.1093-0.28756 0.20684-0.0185 0.28627 0.0273 0.34517 0.10363 0.19265 0.25113 0.35094 0.53956 0.47269 0.84611 0.12171 0.30654 0.20727 0.6313 0.25277 0.95443 0.0458 0.32302 0.0513 0.64451 0.0142 0.94516-0.036 0.30065-0.11527 0.58058-0.2389 0.81982-0.15128 0.29247-0.3841 0.58483-0.69381 0.87501s-0.69644 0.57818-1.1546 0.85985c-0.45829 0.28178-0.98781 0.55724-1.5845 0.8244-0.59673 0.26727-1.2603 0.52549-1.9856 0.77193-1.0103 0.34341-6.2114 1.7937-7.2834 2.0309-0.23016 0.0513-0.4188 0.15372-0.4188 0.22779 0 0.11564 1.031 0.70941 2.2206 1.3278 1.1895 0.61854 2.5379 1.2617 3.173 1.4763 0.63003 0.21273 1.2012 0.36414 1.7717 0.44956 0.57033 0.0851 1.1397 0.10473 1.7663 0.0534 0.62673-0.0513 1.3106-0.17367 2.1097-0.37156 0.79909-0.19789 1.7133-0.47116 2.8008-0.82516 1.1988-0.39 1.8513-0.59498 2.2305-0.66556 0.1896-0.0349 0.31035-0.0371 0.39774-0.012 0.0873 0.0251 0.14121 0.0785 0.19494 0.15163 0.15905 0.21753 0.28473 0.62837 0.35192 1.07 0.0676 0.4415 0.0753 0.91364 0 1.2524-0.0643 0.29541-0.23421 0.58516-0.48774 0.85788-0.25352 0.27284-0.59127 0.52887-0.99316 0.75622-0.40189 0.22734-0.86792 0.42589-1.3778 0.58483-0.50979 0.15906-1.0635 0.27808-1.6409 0.34593l-1.0056 0.11814 0.79888 0.46931c0.43952 0.25789 1.0949 0.69884 1.4566 0.97996 0.36152 0.28124 0.96883 0.65967 1.3488 0.84087 0.19003 0.0906 0.36195 0.2052 0.48643 0.31768 0.12455 0.11257 0.20127 0.22265 0.20018 0.30261 0 0.2952-0.27251 0.88244-0.6144 1.4468-0.34177 0.56433-0.75665 1.106-1.0541 1.3089-0.21622 0.14738-0.44389 0.25495-0.68138 0.32356-0.23739 0.0687-0.48468 0.0982-0.74171 0.0884-0.25691-0.0109-0.52342-0.0589-0.79811-0.14759-0.2748-0.0884-0.5581-0.21687-0.84872-0.384-0.51153-0.29411-1.0891-0.71171-1.284-0.92814-0.15065-0.16746-0.26628-0.2784-0.34723-0.33218-0.0807-0.0534-0.12691-0.0502-0.13838 0.0119-0.023 0.12468 0.0928 0.48479 0.34395 1.0896 0.19179 0.46113 0.31331 0.82986 0.38727 1.2347 0.0742 0.40484 0.10033 0.84513 0.10253 1.4486 0 0.71737 0 1.1064-0.0753 1.383-0.072 0.27665-0.20805 0.44138-0.46604 0.71086-0.26587 0.2778-0.63 0.512-1.0292 0.6774-0.39916 0.1654-0.83355 0.2615-1.2406 0.2626-0.17411 0-0.28058-0.04-0.36698-0.2167-0.0862-0.1767-0.15269-0.4905-0.24546-1.0377-0.20749-1.223-0.49224-2.5061-0.79558-3.6312-0.30334-1.1249-0.62524-2.0914-0.90649-2.6807-0.22468-0.47073-0.51195-0.92738-0.87563-1.3816-0.36369-0.45436-0.80351-0.90599-1.3325-1.3667-0.52893-0.46069-1.1469-0.93044-1.8674-1.4205-0.72052-0.48993-1.5435-1.0004-2.4818-1.5425l-0.90252-0.52113 0.1096 0.5304c0.40619 1.9679 2.3449 14.12 2.2797 14.29-0.0498 0.1299-0.22501 0.2472-0.47127 0.3433-0.24629 0.096-0.56384 0.1714-0.8986 0.2186-0.33478 0.047-0.68698 0.067-1.0024 0.049-0.31534-0.017-0.59374-0.07-0.78175-0.166-0.24905-0.1277-0.47795-0.2744-0.6892-0.4457-0.21127-0.1713-0.40468-0.3672-0.58222-0.5947-0.17755-0.2275-0.33918-0.4862-0.48706-0.7824-0.14781-0.2962-0.28198-0.63005-0.40436-1.0075-0.24465-0.75512-0.44287-1.6856-0.60977-2.8416-0.16691-1.156-0.30294-2.5373-0.42468-4.195-0.16021-2.1813-0.4155-4.4681-0.56776-5.0819-0.13225-0.53258-0.29435-1.0281-0.49035-1.4919-0.19603-0.46385-0.42623-0.89651-0.69446-1.3043-0.26826-0.40778-0.57473-0.79079-0.92358-1.1553-0.34883-0.36447-0.73976-0.71039-1.1776-1.0443-0.32143-0.24513-1.8683-1.1121-3.3686-1.9173-1.5004-0.8053-2.9543-1.5491-3.0897-1.5492-0.0851 0-0.0824 0.31429 0.006 0.69785 0.11165 0.48043 0.16414 1.1389 0.15887 1.8168-0.005 0.678-0.0681 1.3753-0.18774 1.9331-0.0973 0.45371-0.24741 0.86727-0.44109 1.2327-0.19371 0.36557-0.43119 0.6828-0.70366 0.94331-0.27249 0.26051-0.58009 0.46451-0.91372 0.60316-0.33361 0.13865-0.69347 0.21207-1.0706 0.21207-0.23951 0-0.52848-0.0458-0.84281-0.12861-0.31435-0.0818-0.6537-0.2004-0.99313-0.34397-0.67888-0.28712-1.3586-0.67603-1.8392-1.0817l-0.58748-0.4956-0.1549 1.6292c-0.0854 0.89629-0.15489 2.7176-0.15489 4.0474 0.00005 1.108 0.011 1.7343 0.0761 2.2021 0.0657 0.46789 0.18667 0.77717 0.40894 1.2525 0.14341 0.30688 0.2834 0.56618 0.53365 0.88222 0.25023 0.31593 0.61061 0.68847 1.1959 1.2215 1.1706 1.066 3.2398 2.774 7.1206 5.9554l5.4244 4.4471-0.35247 0.6905c-0.15758 0.3088-0.33233 0.5792-0.52379 0.8107-0.19147 0.2315-0.39958 0.4241-0.62423 0.5783-0.22471 0.1541-0.4661 0.2697-0.72338 0.3465-0.25723 0.076-0.53065 0.1149-0.8198 0.1142-0.28921 0-0.59392-0.04-0.91437-0.1181-0.32045-0.079-0.65648-0.1945-1.0076-0.3499-0.70213-0.3106-1.4648-0.776-2.2856-1.3961-0.65343-0.4937-2.5269-2.2165-4.1635-3.8281l-2.9754-2.9301-0.1214 1.0121c-0.0665 0.5566-0.1291 2.0633-0.13917 3.349-0.008 0.9812 0.0167 1.7764 0.10961 2.4548 0.0929 0.6786 0.25385 1.2403 0.51986 1.7566 0.26599 0.5162 0.63653 0.9867 1.148 1.4814 0.51152 0.4948 1.164 1.0142 1.9935 1.6279 1.1591 0.8577 2.2891 1.7898 2.5107 2.0716 0.15316 0.1948 0.24198 0.3785 0.33279 0.5632a91.26 91.26 0 0 0 82.773 -90.786 91.26 91.26 0 0 0 -91.26 -91.26z" stroke="#f00" stroke-width=".65981"/>
 </g>
</svg>
