<?xml version="1.0" encoding="UTF-8" standalone="no"?>
<!-- Created with Inkscape (http://www.inkscape.org/) -->

<svg
   xmlns:dc="http://purl.org/dc/elements/1.1/"
   xmlns:cc="http://creativecommons.org/ns#"
   xmlns:rdf="http://www.w3.org/1999/02/22-rdf-syntax-ns#"
   xmlns:svg="http://www.w3.org/2000/svg"
   xmlns="http://www.w3.org/2000/svg"
   xmlns:sodipodi="http://sodipodi.sourceforge.net/DTD/sodipodi-0.dtd"
   xmlns:inkscape="http://www.inkscape.org/namespaces/inkscape"
   width="210mm"
   height="297mm"
   viewBox="0 0 744.09448819 1052.3622047"
   id="svg2"
   version="1.1"
   inkscape:version="0.91 r13725"
   sodipodi:docname="boule_merry_christmas.svg">
  <defs
     id="defs4" />
  <sodipodi:namedview
     id="base"
     pagecolor="#ffffff"
     bordercolor="#666666"
     borderopacity="1.0"
     inkscape:pageopacity="0.0"
     inkscape:pageshadow="2"
     inkscape:zoom="0.7"
     inkscape:cx="430.05762"
     inkscape:cy="970.3725"
     inkscape:document-units="px"
     inkscape:current-layer="layer1"
     showgrid="false"
     inkscape:window-width="1920"
     inkscape:window-height="1018"
     inkscape:window-x="-8"
     inkscape:window-y="-8"
     inkscape:window-maximized="1" />
  <metadata
     id="metadata7">
    <rdf:RDF>
      <cc:Work
         rdf:about="">
        <dc:format>image/svg+xml</dc:format>
        <dc:type
           rdf:resource="http://purl.org/dc/dcmitype/StillImage" />
        <dc:title></dc:title>
      </cc:Work>
    </rdf:RDF>
  </metadata>
  <g
     inkscape:label="Layer 1"
     inkscape:groupmode="layer"
     id="layer1">
    <path
       style="fill:#000000;fill-opacity:1;fill-rule:evenodd;stroke:#000000;stroke-width:2.77616429;stroke-linecap:butt;stroke-linejoin:miter;stroke-miterlimit:4;stroke-dasharray:none;stroke-opacity:1"
       d="M 180.67921,34.583957 180.2885,60.895091 C 94.269783,72.288685 27.727799,146.00082 27.727799,235.09828 c 0,96.97322 78.806161,175.77494 175.779521,175.77494 96.97314,0 175.77502,-78.80172 175.77502,-175.77494 0,-89.0572 -66.47842,-162.739811 -152.43999,-174.184596 l 1.44141,-26.329727 c -8.37159,1.63058 -14.61057,2.08095 -23.17217,2.25073 -8.42563,0 -24.43238,-2.25073 -24.43238,-2.25073 z m 22.31646,8.65878 a 7.0152401,7.0152401 0 0 1 7.01279,7.017225 7.0152401,7.0152401 0 0 1 -7.01279,7.017243 7.0152401,7.0152401 0 0 1 -7.01708,-7.017243 7.0152401,7.0152401 0 0 1 7.01708,-7.017225 z m 0.7907,33.886388 c 3.94639,0.0075 7.84564,0.198101 11.7187,0.488294 -0.98356,2.050397 -1.88688,3.963572 -3.58092,7.505491 -0.96237,2.012565 -0.56641,4.728431 0.6,7.742674 l -9.52848,-3.064501 0.7907,-12.671958 z m -6.74755,0.153333 -6.79875,7.417174 -7.5054,-6.180209 c 4.70733,-0.61673 9.47467,-1.042896 14.30415,-1.236965 z m 30.16614,1.604344 c 2.7626,0.414312 5.50353,0.891188 8.21706,1.446228 -3.76353,4.004459 -4.36661,10.742084 -4.36661,10.742084 0,0 -2.54903,-3.825148 -3.39926,-10.20263 -0.0928,-0.691809 -0.25976,-1.347711 -0.45119,-1.985682 z m -50.725,0.576641 1.43237,13.736846 -22.11194,22.111961 25.51119,-8.92848 12.32799,16.57815 6.80327,-20.40532 15.55961,-3.008704 c 5.18518,8.239064 12.37179,15.890224 15.46223,19.061374 1.46285,-2.01922 4.69639,-6.2108 12.76964,-15.62949 1.09214,-1.27435 1.92547,-2.48493 2.65046,-3.664402 l 5.8547,7.068392 -17.85697,15.72716 23.38621,-6.79868 14.88082,15.30397 -5.52924,-22.10729 12.32798,-9.356317 -13.60202,-0.850994 -0.49762,-8.416958 c 13.57273,5.823932 26.15523,13.487869 37.4437,22.688599 -4.11258,-0.40252 -9.73753,4.43632 -9.73753,4.43632 0,0 -1.27427,-10.20463 -10.20276,-6.8033 -8.92848,3.40131 1.27428,21.68412 1.27428,21.68412 l -0.42309,3.82716 c 0,0 10.62846,-2.9735 17.00579,-5.5245 5.92161,-2.36855 8.16874,-9.1336 5.73852,-14.51344 7.91063,6.85639 15.1308,14.4799 21.54455,22.76765 -2.11688,0.9399 -4.82947,2.21793 -8.01705,3.8132 -6.61399,3.31019 -12.02537,6.21752 -12.02537,6.4592 0,1.25505 8.53825,31.51414 9.30966,32.99355 0.49738,0.95386 0.90524,2.48643 0.90691,3.40399 0.002,0.91758 1.49213,6.94558 3.31092,13.39274 1.81902,6.44715 3.30758,12.73118 3.30639,13.9647 0,6.42332 -7.9111,11.56054 -17.78268,11.56054 -5.5152,0 -10.828,-1.60539 -18.47079,-5.58031 l -5.88708,-3.05985 -1.42308,1.46482 -1.42762,1.46482 1.45547,9.01684 c 1.49928,9.29365 1.57427,9.4678 5.01757,11.75119 1.0819,0.71677 1.29999,1.24326 0.96261,2.30654 -0.35476,1.11749 -0.72665,1.30643 -1.96688,0.99515 -1.66308,-0.41741 -1.66522,-0.39166 -0.36285,6.83587 0.34832,1.93434 0.28904,2.02607 -1.06952,1.63225 -7.87493,-2.28305 -18.24458,-3.10178 -21.65146,-1.70665 -1.23047,0.50392 -1.94427,1.65415 -3.25069,5.23619 -1.61593,4.43067 -2.65473,5.08911 -2.67854,1.69734 -0.0238,-3.49628 -2.78569,-1.40076 -11.15584,8.47278 -2.94308,3.47179 -5.44067,6.22293 -5.54781,6.11507 -0.1071,-0.10816 0.26951,-4.41943 0.83713,-9.58417 0.56666,-5.16475 0.8719,-9.55468 0.67428,-9.75159 -0.19762,-0.1969 -2.40974,-0.64354 -4.91543,-0.99515 -2.50569,-0.35162 -4.55258,-0.82967 -4.55258,-1.06491 0,-0.23522 1.12714,-1.21262 2.50641,-2.16703 2.85569,-1.97586 6.51374,-6.36 7.70088,-9.2261 0.96785,-2.3365 0.56118,-2.72194 -3.54354,-3.33887 l -2.75759,-0.41387 2.58568,-1.32068 c 2.4438,-1.2478 2.53046,-1.3707 1.50666,-2.26932 -3.51545,-3.08519 -9.30182,-3.96049 -12.15107,-1.83686 -0.85976,0.64086 -2.10094,2.08579 -2.76236,3.20869 -1.71737,2.91492 -1.62903,9.96567 0.17619,13.97864 0.72285,1.60679 1.19404,3.11549 1.04642,3.35286 -0.14757,0.23738 -1.36357,0.92906 -2.7064,1.53458 l -2.44141,1.1021 -3.25997,-1.65084 c -4.16377,-2.10667 -7.40755,-2.56035 -9.72372,-1.36253 -2.41855,1.25069 -6.7666,6.01451 -9.27706,10.17013 -1.14308,1.89217 -2.24141,3.45024 -2.44141,3.45977 -0.19999,0.009 -0.68189,-3.15036 -1.07427,-7.02188 -0.39261,-3.87154 -0.80642,-7.13499 -0.9207,-7.24975 -0.11433,-0.11478 -2.81521,0.25441 -5.99899,0.82309 -4.704,0.84021 -5.7409,1.21594 -5.529,1.99032 0.59119,2.13978 1.01428,7.86823 0.59046,7.86823 -0.25046,0 -1.07736,-0.5889 -1.8414,-1.30673 -0.76405,-0.71777 -1.59688,-1.10018 -1.84618,-0.85099 -0.24857,0.24918 -0.45118,13.93748 -0.45118,30.42195 l 0,29.97088 -1.3438,0.26043 c -1.61474,0.30967 -1.45331,1.11985 -3.18545,-16.41075 -2.31831,-23.46548 -4.82757,-37.91625 -7.26373,-41.88017 -1.61594,-2.62889 -8.1566,-8.64719 -11.58846,-10.6584 l -2.85046,-1.66944 -4.28758,1.30209 c -4.07257,1.23695 -4.33115,1.25377 -5.06423,0.25111 -0.56881,-0.77859 -0.59691,-1.26982 -0.10711,-1.86011 0.51856,-0.62497 0.37809,-0.79984 -0.63237,-0.79984 -1.7919,0 -8.37469,2.2647 -10.65372,3.6644 l -1.88332,1.15326 -0.35808,-4.96184 c -0.19524,-2.73093 -0.52976,-10.85019 -0.74404,-18.04296 -0.21428,-7.19275 -0.56024,-13.07998 -0.76738,-13.08117 -0.75666,-0.003 -11.25631,-1.23573 -13.19273,-1.54853 -1.62546,-0.26246 -1.95665,-0.56414 -1.80426,-1.6276 0.15476,-1.0815 0.78927,-1.40452 3.7202,-1.91592 l 3.53401,-0.61847 8.53801,-30.66377 c 8.2104,-29.48285 8.59206,-30.66845 9.96538,-30.66845 1.67855,0 1.65975,-2.63928 0.26048,35.77909 -0.47571,13.06271 -0.86952,25.57628 -0.86952,27.8085 l 0,4.05967 6.36137,0 6.36161,0 -1.25094,-2.0275 c -0.68834,-1.11383 -1.25094,-2.21484 -1.25094,-2.44603 0,-0.23118 1.81521,0.54568 4.03662,1.72524 3.63282,1.92899 4.5102,2.14377 8.7192,2.14377 l 4.67805,0 0,-14.22047 0,-14.2205 3.58997,4.82232 c 4.7883,6.43196 12.3425,13.45261 16.95032,15.75506 6.43233,3.21438 12.33108,2.28503 19.88433,-3.13425 3.6995,-2.65422 12.54489,-11.37587 15.597,-15.37841 l 1.5438,-2.0275 0.35809,2.62738 c 0.19525,1.44489 0.53905,6.84595 0.75809,12.00231 l 0.39999,9.37492 11.94632,1.1672 c 6.57232,0.64078 11.95132,1.02277 11.95132,0.84634 0,-0.17642 -0.52453,-2.14933 -1.1626,-4.38053 -0.63785,-2.23117 -0.99285,-4.05503 -0.79048,-4.05503 0.20239,0 0.99832,0.58888 1.76237,1.30673 0.76403,0.71782 1.51689,1.17627 1.67402,1.01842 0.15714,-0.15786 -0.76664,-6.23496 -2.05545,-13.50435 -3.51473,-19.82215 -5.43614,-32.7182 -5.43614,-36.36499 0,-4.11398 2.00903,-8.58123 5.03162,-11.23502 3.09164,-2.7146 6.1459,-2.68236 10.79323,0.11614 l 3.43188,2.06936 1.81355,-3.59929 c 1.79998,-3.56594 2.86807,-4.54498 4.33877,-3.98062 0.59451,0.2281 0.66404,2.0632 0.31166,8.33326 -0.7657,13.62816 -2.28141,32.21131 -3.47854,42.66609 -0.62833,5.48659 -1.33141,13.13165 -1.56236,16.98738 l -0.41857,7.00793 5.95232,-0.009 c 4.53901,-0.009 7.15542,-0.36506 11.03037,-1.50203 5.93138,-1.74043 6.4428,-1.79782 5.44091,-0.59059 -0.65214,0.78595 -0.24452,0.90215 3.16664,0.90215 l 3.91568,0 -2.2788,-9.04009 c -1.25118,-4.97259 -3.03877,-10.50033 -3.97115,-12.28132 -1.6426,-3.1373 -1.67213,-3.34877 -0.94403,-6.87308 0.49118,-2.38286 0.62498,-5.77304 0.37666,-9.82133 -0.45238,-7.37512 0.55642,-18.13344 1.89259,-20.17279 1.53713,-2.34613 4.65305,-3.32866 8.16113,-2.57624 1.63378,0.35038 3.75614,1.04323 4.71543,1.53922 0.95903,0.496 1.90665,0.90216 2.10664,0.90216 0.89642,0 7.40469,-16.60459 6.73827,-17.192 -0.0714,-0.0624 -2.94901,-0.82369 -6.39422,-1.68804 -7.49684,-1.88081 -7.38398,-1.92348 -12.53702,4.72931 -4.82426,6.22864 -6.83685,6.0193 -5.69663,-0.59989 l 0.57667,-3.34818 -1.80903,0.39991 -1.80879,0.39529 0.36261,-2.63668 c 0.19762,-1.45016 0.17143,-2.9214 -0.0596,-3.27378 -0.54928,-0.83665 -8.70682,-6.28092 -8.98897,-5.99882 -0.11899,0.11899 0.20239,1.84131 0.7162,3.82714 1.32331,5.10696 1.20307,5.43639 -1.16714,3.13892 l -2.10189,-2.04147 0,2.82271 c 0,1.55304 -0.20237,2.8251 -0.45118,2.8227 -0.24809,-0.003 -1.03285,-1.01779 -1.74379,-2.25537 -3.04116,-5.29477 -10.24396,-12.24884 -13.54155,-13.07651 -3.28497,-0.82445 -7.79278,2.67053 -11.58369,8.98428 l -2.1438,3.57606 0,-5.83142 c 0,-3.2049 -0.20237,-5.82223 -0.45118,-5.81746 -0.24809,0.004 -1.72974,0.3954 -3.29234,0.86958 -1.64666,0.49965 -2.98308,0.63068 -3.1807,0.31157 -0.18809,-0.30283 -1.7026,-0.73259 -3.36686,-0.9533 -2.8076,-0.37245 -2.99998,-0.5055 -2.66926,-1.82289 0.3238,-1.29082 0.16189,-1.41835 -1.76237,-1.41835 l -2.11593,0 0,20.07051 0,20.07514 -1.32524,0.34412 c -0.72974,0.19072 -1.43165,0.24388 -1.55783,0.11613 -0.12861,-0.12756 -0.84595,-3.56458 -1.59975,-7.64036 -1.75022,-9.46499 -4.19591,-18.41952 -6.29185,-23.04202 -2.93116,-6.46437 -8.76491,-10.27304 -15.0389,-9.8167 -2.47522,0.18 -2.67854,0.33674 -3.44593,2.59951 -0.4488,1.32279 -0.96736,2.81026 -1.15307,3.30632 -0.24881,0.667 -0.92261,0.21595 -2.59023,-1.73453 -2.23759,-2.61679 -2.27521,-2.63212 -4.47352,-1.9066 -2.87782,0.94978 -8.27396,5.91444 -11.33752,10.42585 -2.89044,4.25634 -7.23469,13.20923 -8.73301,18.01045 -0.87975,2.81864 -1.3157,3.45502 -2.39022,3.45977 -1.66522,0.008 -1.70759,-0.29964 -2.93448,-21.33536 -0.52025,-8.92475 -1.00714,-16.28804 -1.08333,-16.36423 -0.0763,-0.0761 -1.1707,0.18024 -2.43211,0.56733 -2.03784,0.62542 -2.38784,0.57407 -3.13426,-0.44643 -0.76262,-1.04318 -0.5688,-1.4261 2.11117,-4.18058 l 2.9483,-3.03197 0.26976,-15.18307 c 0.0833,-4.673223 0.0809,-7.661382 0.0453,-10.100353 5.14829,-1.441609 10.40252,-2.623879 15.75033,-3.543498 z m 54.98472,39.145827 c -0.84832,1.17101 -1.26022,1.80432 -1.26022,1.80432 l 3.40402,0.42316 c 0,0 -1.35214,-1.41509 -2.1438,-2.22748 z m 15.31795,-35.458172 c 5.37709,1.524947 10.63824,3.322096 15.76438,5.384994 l -6.40804,10.193363 -7.31493,-3.362141 c 1.83523,-5.415276 0.0357,-9.543147 -2.04141,-12.216216 z M 131.27967,94.572115 c -0.0477,0.129971 -0.13087,0.306785 -0.17143,0.427821 -1.20117,3.631951 -3.63662,16.586374 -3.63662,19.345064 0,1.21228 0.4988,1.57141 3.31568,2.39023 1.82309,0.53001 3.19592,1.15757 3.05068,1.39042 -0.14291,0.23286 -1.90592,1.20641 -3.91567,2.16702 -2.71855,1.29938 -3.66425,2.06593 -3.66425,2.99012 0,0.68328 -0.27096,5.12856 -0.59524,9.87713 -0.50022,7.32746 -0.91522,9.59953 -2.72973,15.02962 -2.22737,6.66474 -8.65086,21.74694 -9.24944,21.71671 -0.18809,-0.009 -1.81736,-3.32451 -3.61782,-7.36602 -3.54115,-7.94882 -11.932976,-25.76297 -12.318451,-26.14837 -0.130874,-0.13027 -0.952383,0.23096 -1.827611,0.8045 -1.449974,0.95016 -1.674023,0.9581 -2.539022,0.0931 -0.865225,-0.86514 -0.808558,-1.19204 0.665003,-3.70625 0.889278,-1.51765 1.44188,-3.04707 1.227609,-3.39468 -0.214287,-0.34761 -1.125708,-3.61501 -2.022839,-7.26372 l -0.195242,-0.8045 c 2.498782,-2.4433 5.081383,-4.79888 7.738023,-7.07302 l 2.71569,5.78956 -9.779429,16.155 13.178679,-9.77484 13.60679,9.77484 -2.12523,-12.32784 12.32773,-6.3755 -12.32773,-3.82714 -2.48784,-10.88161 c 4.9321,-3.28869 10.07491,-6.280261 15.37844,-9.007545 z m -19.70314,12.025545 -3.81806,7.86359 -3.45496,-2.34838 c 2.3664,-1.91021 4.79662,-3.74184 7.27302,-5.51521 z m 82.39779,28.7386 c 0.89332,-0.012 1.80808,0.0972 2.73426,0.3441 3.95759,1.05465 7.54421,6.78983 7.00804,11.21176 -0.17382,1.4316 -0.88215,1.74972 -10.70967,4.7665 -5.78733,1.77651 -10.76229,3.23136 -11.05823,3.23195 -0.3,8.5e-4 -0.37905,-1.90975 -0.17619,-4.32474 0.74904,-8.93445 5.94875,-15.14055 12.20227,-15.22957 z m 137.96371,7.74265 c 6.42255,8.95585 11.93798,18.60348 16.39674,28.82693 -0.93546,4.38027 -2.37259,9.28086 -3.81305,12.31388 -2.4926,5.24783 -9.42038,16.36423 -10.19824,16.36423 -0.25119,0 -0.76928,-2.7719 -1.14856,-6.16159 -2.82378,-25.23322 -3.05902,-32.44386 -1.57165,-47.65114 0.18332,-1.87375 0.19285,-2.16342 0.33476,-3.69231 z m -263.157762,9.42606 -2.864731,25.39505 c -2.246647,19.91925 -4.232104,37.33285 -4.408302,38.69942 l -0.320941,2.48789 7.138023,0.43247 c 3.925438,0.23933 8.219685,0.62135 9.54253,0.84635 l 2.404027,0.40921 -3.906154,2.19027 c -2.1495,1.20563 -6.726373,3.14585 -10.170137,4.31079 -6.010194,2.03325 -7.23517,2.78199 -7.258983,4.42703 0,0.41338 -0.659527,0.75335 -1.455464,0.75335 -1.678325,0 -5.506135,3.98572 -10.095855,10.51888 -0.551669,0.78531 -1.04428,1.44374 -1.515936,2.0275 -0.202388,-3.27882 -0.339534,-6.57456 -0.339534,-9.90502 0,-0.58028 0.0358,-1.15113 0.04287,-1.72992 0,0.009 0.111919,0.13959 0.111919,0.13959 l 11.904665,-2.55299 c 0,0 2.55092,-5.95297 0,-9.77947 -2.550936,-3.82651 -7.649693,0.42782 -7.649693,0.42782 0,0 -0.649991,-3.83445 -3.320217,-4.85022 2.693558,-23.35459 10.443242,-45.14922 22.163132,-64.24793 z m 156.415902,11.52336 c 0.12139,0.12139 0.0548,4.60688 -0.14517,9.97014 -0.24046,6.46601 -0.58617,9.74489 -1.02308,9.73297 -0.36237,-0.009 -4.42472,-1.59598 -9.03062,-3.52489 l -8.37517,-3.5063 -2.22759,2.81807 c -2.42736,3.07073 -5.78328,5.91449 -8.80278,7.459 -1.05833,0.54138 -3.12854,0.9812 -4.60377,0.9812 -2.25093,0 -2.92949,-0.29078 -4.22258,-1.82755 -1.8445,-2.19182 -2.58353,-4.75722 -3.1202,-10.83045 -0.315,-3.5671 -0.21667,-4.73234 0.46499,-5.4129 0.59619,-0.59481 7.14732,-1.68557 20.86577,-3.47372 10.99798,-1.43357 20.0979,-2.507 20.21932,-2.38557 z m -135.429429,3.49232 c 1.173319,0.001 2.378303,2.50814 10.500379,21.79574 5.0478,11.98703 9.17014,21.99415 9.17014,22.24218 0,0.24812 -0.97403,0.45106 -2.15759,0.45106 -2.03023,0 -2.13284,0.0964 -1.81355,1.65549 1.11093,5.42393 4.57686,27.48629 4.534,28.86413 -0.0286,0.90697 1.44832,12.45719 3.28306,25.66477 1.83474,13.20754 3.23926,24.10971 3.12021,24.22781 -0.11899,0.11839 -2.98521,-0.61116 -6.37541,-1.6183 -8.39683,-2.49452 -8.62445,-2.473 -8.09612,0.72545 l 0.41857,2.55764 -1.50213,-1.39508 -1.502128,-1.39508 -1.72046,2.39488 c -2.05998,2.86553 -6.231852,5.7759 -9.54229,6.65917 -3.258541,0.8695 -10.332526,0.77091 -12.997502,-0.18141 -7.353031,-2.62763 -11.347517,-7.97201 -14.113431,-18.87538 -1.111658,-4.38279 -1.446424,-7.29695 -1.446424,-12.59288 l 0,-6.88703 -1.818074,-0.68823 c -1.130461,-0.42669 -1.697369,-0.99018 -1.502127,-1.49739 0.171429,-0.4481 0.31166,-1.06355 0.31166,-1.36717 0,-0.30368 0.783797,-0.55339 1.743792,-0.55339 1.631647,0 1.829747,-0.26513 2.985451,-4.05967 5.459953,-17.92669 22.771452,-19.56364 32.923733,-3.11566 l 2.176412,3.52023 5.189708,-3.98525 c 6.26637,-4.81206 7.7904,-6.18949 6.84518,-6.18949 -0.39429,0 -2.11998,-2.09663 -3.83187,-4.65955 -6.726133,-10.07069 -7.740403,-10.8491 -18.573166,-14.22513 -2.809012,-0.8755 -5.466602,-1.71787 -5.905886,-1.87406 -0.558093,-0.19833 -0.149978,-1.0441 1.353322,-2.79945 1.183548,-1.38273 2.150448,-2.80368 2.148312,-3.15754 0,-1.29047 4.235669,-45.79612 4.548051,-47.69301 0.249998,-1.51711 0.617136,-1.94966 1.646178,-1.94845 z m 207.192089,6.88703 c -6.80255,-0.42517 -8.50396,6.38015 -9.77942,12.33247 -1.27548,5.95234 11.47679,15.30397 11.47679,15.30397 l 1.70188,0.85103 c 0,0 5.10353,-0.42716 10.63062,-2.553 5.52709,-2.12582 9.35158,-16.15631 3.39925,-20.83314 -5.95232,-4.67682 -11.0537,2.553 -11.0537,2.553 0,0 0.42737,-7.22917 -6.37542,-7.65433 z m 57.5097,13.95077 c 3.45616,11.20332 5.65566,22.95572 6.53827,35.07686 -0.61095,-0.18143 -1.26666,-0.25316 -1.97641,-0.13478 -5.1021,0.85031 -4.67805,4.67814 -4.67805,4.67814 l -5.10138,-6.80332 c 0,0 -5.5259,-2.97286 -7.2266,7.23114 -1.7007,10.20398 12.32798,17.85699 12.32798,17.85699 3.05115,-3.1686 5.30495,-5.7384 7.04493,-7.86824 -0.3219,15.73338 -2.91069,30.8953 -7.49612,45.16793 l -11.65346,0 -14.73201,0 0.32072,-7.84964 c 0.1738,-4.31644 0.44975,-7.97926 0.61403,-8.14259 0.16429,-0.16334 3.45902,0.502 7.32399,1.47878 4.94234,1.24906 7.09945,1.56828 7.26373,1.07886 0.22381,-0.66657 1.55119,-6.09067 2.33903,-9.56557 l 0.37215,-1.65085 -6.97541,0 -6.97541,0 4.31067,-4.66419 c 2.37045,-2.56296 4.73376,-5.47178 5.25495,-6.46386 1.05427,-2.00445 1.80451,-10.17563 0.98118,-10.68165 -0.69285,-0.42588 -9.46087,1.11482 -10.98395,1.92986 -2.00212,1.07162 -3.17639,0.78959 -2.9621,-0.70682 0.13328,-0.93035 1.23878,-1.89389 3.61305,-3.15288 6.43304,-3.41154 8.09231,-5.02987 8.91467,-8.70527 0.89761,-4.01085 3.74616,-7.23795 6.394,-7.2451 1.88117,-0.005 1.72807,0.2007 7.23113,-9.61672 1.76116,-3.14166 3.19948,-6.19591 3.19948,-6.78939 0,-0.59349 -0.87308,-3.92927 -1.93926,-7.41249 -1.26427,-4.13107 -1.75927,-5.56475 -1.3438,-7.04514 z m -104.7052,18.78702 5.95232,20.40997 -14.88082,5.95232 13.17892,2.54833 3.82712,18.28481 6.80326,-17.85697 22.53528,4.67349 -18.70817,-12.75099 14.02987,-14.45764 -19.13101,5.52915 -13.60677,-12.33247 z m -73.98074,1.27416 -8.50088,13.18348 -14.88081,-8.0775 10.20276,16.57816 -18.28007,17.85697 23.80931,-7.22649 14.02963,14.8808 -2.55283,-21.2563 12.75559,-8.08213 -14.02986,-3.82251 -2.55284,-14.03448 z m 149.42192,33.37954 c 0.21191,0.20451 -1.21402,7.25847 -2.40425,11.89534 l -0.59048,2.30188 -8.50539,-0.19524 -8.5054,-0.19523 -1.52999,4.91066 c -0.84165,2.70314 -1.6676,5.0521 -1.83665,5.21757 -0.16666,0.16547 -1.65522,-1.62164 -3.30639,-3.97132 -1.65093,-2.34965 -4.42067,-5.81485 -6.15685,-7.70081 -1.73618,-1.88593 -3.15758,-3.63148 -3.15758,-3.87831 0,-0.24667 1.26499,-0.30424 2.80878,-0.13027 1.54356,0.17405 5.39685,0.0903 8.56563,-0.18595 5.14401,-0.44829 6.75993,-0.91916 15.08081,-4.38984 5.12591,-2.13805 9.41871,-3.79407 9.53776,-3.67835 z m -245.93339,2.33442 -3.399252,14.45763 -19.13577,0.42319 c 2.125686,0.42516 17.856971,10.20731 17.856971,10.20731 l -3.822591,12.3278 13.178694,-6.80331 16.155088,15.30865 -4.678051,-20.40998 7.654201,-12.75564 -15.731745,-1.69734 -8.077545,-11.05831 z m 142.94889,10.57003 1.4507,0 0,12.62544 c 0,6.94475 0.1238,12.62543 0.27452,12.62543 0.14998,0 0.95309,-0.30889 1.7857,-0.68823 1.16832,-0.53235 1.72237,-0.51472 2.43213,0.0743 1.29402,1.07398 1.21307,1.31695 -1.48357,4.38054 l -2.40427,2.72972 0,8.13791 0,8.13331 2.70665,2.21817 c 2.77998,2.27786 3.09235,2.93304 2.12975,4.45493 -0.48357,0.76458 -0.83857,0.74628 -2.7157,-0.14877 -1.18808,-0.56662 -2.28665,-1.03235 -2.4414,-1.03235 -0.15476,0 -0.28381,4.29552 -0.28381,9.54232 l 0,9.53767 -4.06424,0.29298 c -2.23761,0.15999 -5.28329,0.83641 -6.76613,1.50202 -1.48284,0.66559 -6.62138,4.35527 -11.41633,8.20305 -4.79519,3.84777 -8.91754,6.99803 -9.16563,6.99861 -0.24857,8.2e-4 -0.45118,-0.77469 -0.45118,-1.72524 0,-2.60807 -1.65713,-6.77382 -3.43188,-8.6262 -0.86903,-0.90714 -3.40258,-2.87128 -5.63137,-4.36661 -3.23045,-2.1674 -3.98949,-2.9617 -3.73877,-3.92014 0.38381,-1.46813 -0.19286,-1.47291 10.9699,0.0326 5.04732,0.68079 9.3061,1.11187 9.46324,0.9533 0.15953,-0.15856 -0.0262,-1.80071 -0.40928,-3.6458 -0.55952,-2.69449 -0.92738,-3.35282 -1.87403,-3.35282 -1.64237,0 -1.96903,-1.2993 -0.94405,-3.75276 0.78166,-1.87045 0.73977,-3.04115 -0.39975,-11.18851 l -1.27427,-9.10519 -3.80854,-1.26487 c -2.09545,-0.69736 -3.6414,-1.44611 -3.43187,-1.66015 0.20952,-0.21405 1.78355,-0.65938 3.49687,-0.99517 l 3.11569,-0.61382 0.50237,-2.99475 c 2.30594,-13.72952 4.3952,-20.61526 7.06374,-23.28383 2.11285,-2.11283 3.5452,-2.09034 9.66777,0.14426 4.75805,1.73653 5.86304,1.7145 5.9059,-0.10244 0,-0.21976 0.84356,-2.58557 1.86474,-5.25942 1.61308,-4.22479 2.04594,-4.85953 3.3064,-4.85953 z m 52.54308,6.62196 c 1.92593,0.005 3.80353,0.36277 5.38042,1.16722 1.26928,0.64759 3.42664,2.44999 4.79448,4.00388 l 2.48783,2.82268 8.54707,-0.65569 c 4.70233,-0.3604 8.6604,-0.54673 8.79372,-0.41388 0.13328,0.13283 -0.22381,0.95249 -0.79046,1.81827 -0.56834,0.86576 -0.89238,1.71239 -0.72095,1.88335 0.17143,0.17095 2.91307,-0.55773 6.0966,-1.6183 3.18331,-1.06059 5.90019,-1.81539 6.03591,-1.67872 0.13568,0.13659 -0.27953,3.34549 -0.92999,7.12883 -4.02283,23.39727 -4.01878,31.8472 0.0238,43.59612 l 0,0 c 0.65548,1.90534 1.125,3.50889 1.04166,3.56676 -0.0833,0.0579 -2.58546,-0.68671 -5.56161,-1.66015 -7.45779,-2.43908 -11.95179,-2.76933 -15.19248,-1.11604 -1.37498,0.70142 -2.76093,1.27415 -3.08306,1.27415 -0.54571,0 0.66593,-3.89078 5.31518,-17.05249 1.85712,-5.25788 1.87047,-5.36914 0.95333,-8.52391 -1.08118,-3.71873 -5.3152,-8.73742 -9.79801,-11.61169 -1.56688,-1.00453 -5.84351,-3.03058 -9.50514,-4.50143 -8.74849,-3.51422 -11.11609,-4.75867 -13.72297,-7.21719 -1.60712,-1.51589 -2.16689,-2.53731 -2.16689,-3.95273 0,-4.07008 6.22946,-7.27064 12.00679,-7.25904 z m -127.6169,1.92054 c 0.31977,0.0167 0.63048,0.0507 0.93,0.10696 2.76211,0.51815 5.61446,3.6508 7.05446,7.74734 1.51807,4.31914 2.86853,18.21181 3.51091,36.12781 0.26832,7.4831 0.64665,13.76507 0.8419,13.96007 0.19524,0.19499 1.45856,0.50239 2.80854,0.68358 2.07546,0.27839 2.45546,0.54545 2.45546,1.7299 0,1.14482 -0.46453,1.5221 -2.55307,2.0554 -1.40546,0.35893 -3.36974,0.95117 -4.36187,1.31603 l 0,0 c -0.9919,0.36492 -3.79901,2.58599 -6.23614,4.93392 l -4.43161,4.26893 0.38141,-2.55765 c 0.25024,-1.68471 0.0763,-3.2848 -0.51166,-4.6921 -0.77308,-1.85031 -1.64879,-2.49135 -6.54755,-4.78045 -3.10998,-1.45337 -6.36803,-2.81876 -7.23565,-3.03661 -1.97855,-0.49666 -1.9545,-1.2718 0.10711,-3.67837 l 1.63213,-1.9066 -0.71143,-8.91454 c -0.9269,-11.76545 -0.92,-32.23112 0.0238,-35.36052 1.24474,-4.12999 8.05777,-8.24559 12.8532,-8.0031 z m 94.29316,11.42105 c 0.8838,-0.12636 1.49451,0.38095 2.18094,1.80428 1.87927,3.89829 5.87828,8.19131 9.09133,9.76089 1.72189,0.84113 6.91661,2.34924 11.54657,3.35283 10.64585,2.30766 13.63416,3.29392 15.26223,5.02693 3.8164,4.06239 2.21951,10.60014 -3.43187,14.05305 -5.08686,3.10795 -11.97512,0.84007 -18.68934,-6.15227 l -3.5995,-3.75275 -6.68709,2.92499 c -3.67709,1.60758 -6.93706,2.92038 -7.24491,2.92038 -0.61382,0 -0.63072,-11.72493 -0.0334,-22.84671 0.34214,-6.36335 0.47285,-6.92973 1.60427,-7.09162 z m -37.16941,3.48303 1.27427,11.90466 -14.02986,2.97615 13.18344,4.67351 -8.08207,21.26096 15.30843,-17.43381 17.00603,7.23115 -14.45747,-13.18347 13.60653,-15.7318 -16.5827,8.50529 -7.2266,-10.20264 z m 124.79883,7.21719 c 1.6645,0 1.74474,0.11222 1.4138,1.95311 -0.19287,1.07478 -0.53191,3.12594 -0.75334,4.55725 -0.30904,2.00498 -0.73713,2.73044 -1.86021,3.15751 -0.80191,0.30487 -1.57308,0.5534 -1.71594,0.5534 -0.45453,0 -0.28714,-2.43741 0.4419,-6.39411 0.67714,-3.67396 0.77785,-3.82716 2.47379,-3.82716 z m -3.41783,10.89555 c 0.31595,0.012 0.735,0.0682 1.28808,0.14878 1.23999,0.18095 7.39303,0.5003 13.6763,0.71148 l 8.12397,0.27437 c -1.68974,3.94154 -3.54496,7.79274 -5.53828,11.56053 -0.60547,0.18238 -1.03499,0.29657 -1.68355,0.49759 -9.00968,2.79326 -11.25918,2.93016 -13.74154,0.84168 -2.57616,-2.16785 -3.35758,-5.18222 -3.15283,-12.20691 0.0429,-1.47711 0.0785,-1.86255 1.02785,-1.82755 z m -209.55921,2.03217 c 1.43784,0 1.46832,0.11523 2.29735,8.86802 l 0.84167,8.86803 3.21806,0 c 1.76998,0 3.21783,0.20642 3.21783,0.46038 0,0.60117 -2.82235,4.85031 -4.44568,6.69171 -0.69713,0.7906 -3.2952,3.06291 -5.77542,5.05017 l -4.51091,3.61325 -0.40452,-2.64599 c -0.22143,-1.45509 -0.42714,-4.30482 -0.45094,-6.329 l -0.0477,-3.67834 -4.86399,-0.42319 c -2.67546,-0.23357 -4.98401,-0.30823 -5.12924,-0.16285 -0.605476,0.60556 1.17974,9.12846 2.31568,11.05366 1.025,1.73605 1.17762,2.76223 0.91142,6.1058 -0.22141,2.76814 0.17381,7.19834 1.26952,14.25301 l 1.45571,9.38422 c -4.80306,-3.77059 -9.397069,-7.78864 -13.727735,-12.08137 3.82235,-1.61763 9.623715,-6.81359 9.965615,-12.62543 0.42523,-7.22783 -11.0537,-14.45829 -14.02987,-12.33247 -2.976154,2.12584 -1.274272,7.23114 -1.274272,7.23114 0,0 -5.526367,-3.83046 -8.077303,-2.12981 -0.656429,0.43754 -1.284516,1.30344 -1.855456,2.33907 -2.997831,-4.00058 -5.803037,-8.15219 -8.417063,-12.43479 2.239261,1.24423 4.329717,2.22712 6.175651,2.85993 4.492347,1.54013 11.472042,2.28621 12.085839,1.29275 0.230955,-0.37474 1.161661,-0.67892 2.069502,-0.67892 1.951174,0 6.563037,-2.78743 8.328506,-5.03158 1.578545,-2.00681 1.745221,-1.98774 2.194974,0.26041 l 0.367379,1.84615 2.799493,-1.99495 c 5.61185,-4.00293 7.62946,-6.49264 9.89562,-12.21623 1.87522,-4.73596 2.32426,-5.41287 3.59926,-5.41287 z m 123.11097,7.51479 c 0.27309,0 1.15142,0.70563 1.95309,1.56715 0.80165,0.86151 4.08543,3.55105 7.29612,5.97555 5.09542,3.84773 6.65945,4.67475 12.32322,6.50106 3.56877,1.1508 8.24706,2.54367 10.39346,3.09707 2.14666,0.5534 4.12902,1.14627 4.40378,1.31603 0.27452,0.16976 -0.93143,1.24714 -2.67403,2.3949 -5.27637,3.47481 -7.54969,5.4952 -9.4911,8.42625 -3.05211,4.60779 -2.29116,9.9996 2.02284,14.31348 2.78426,2.78414 3.46139,3.0055 14.46224,4.71535 6.01757,0.93533 9.75587,2.27177 10.29563,3.67836 1.05236,2.74262 -1.3988,5.06758 -7.89136,7.49155 -4.56995,1.70629 -10.65062,2.16791 -13.67177,1.03701 -2.76641,-1.03549 -3.97735,-1.82087 -8.88207,-5.75702 l -3.85972,-3.09707 -2.0088,3.98528 c -1.46736,2.91053 -2.25521,3.88887 -2.92497,3.63185 -0.50452,-0.19357 -1.1657,-0.35343 -1.46951,-0.35343 -0.30952,0 -0.55332,-3.78091 -0.55332,-8.6076 0,-9.75661 -0.69428,-14.4812 -2.70188,-18.42432 -1.96713,-3.8637 -3.53616,-5.11019 -9.8261,-7.79846 -6.3647,-2.72035 -10.45156,-5.07684 -9.11897,-5.25945 0.49595,-0.0682 3.27259,-0.29725 6.16614,-0.51152 l 5.25948,-0.39062 0,-8.96569 c 0,-4.93085 0.22379,-8.96571 0.4976,-8.96571 z m 76.13858,18.14529 c 0.48118,-0.0319 1.21213,0.0465 2.1857,0.17216 1.78616,0.23071 4.95303,0.80556 7.04041,1.27418 2.7502,0.61739 5.5666,0.84725 8.04968,0.76263 -7.57018,10.72214 -16.4389,20.44899 -26.38571,28.96643 -1.60808,-3.45422 -8.09279,-7.72608 -17.17341,-11.1327 -6.01827,-2.25789 -7.60945,-5.94497 -3.91068,-9.068 2.97903,-2.51527 7.62256,-4.45244 10.67229,-4.45959 3.1633,-0.008 8.55205,2.36584 12.63012,5.56636 l 2.7064,2.12517 4.50614,-2.44141 c 2.48022,-1.34312 4.62139,-2.53431 4.75711,-2.64597 0.13568,-0.11162 -1.02738,-1.8517 -2.59022,-3.86437 -3.13806,-4.04081 -3.93139,-5.15885 -2.48783,-5.25478 z m -188.11204,10.25846 c 2.38378,-0.099 4.90996,0.85451 7.22183,2.98548 3.04473,2.80647 5.54091,7.63597 7.56136,14.61574 1.27404,4.40115 1.38665,5.91058 1.3438,18.07087 l -0.0429,11.31873 c -8.4342,-3.47167 -16.48745,-7.6668 -24.11144,-12.48128 -0.12139,-0.82439 -0.22856,-1.61647 -0.41855,-2.60414 -1.58784,-8.29688 -1.91023,-19.02385 -0.69762,-23.19545 1.58569,-5.4544 5.16948,-8.54482 9.14253,-8.70995 z m 94.69768,4.61773 c 4.15305,0.0373 8.83611,1.85729 10.0261,4.36657 1.03285,2.17781 0.33499,6.1743 -1.44643,8.2914 -1.96355,2.3335 -4.63042,3.46662 -13.69963,5.81283 -4.32496,1.11881 -9.27943,2.72373 -11.00703,3.56672 -3.27593,1.59842 -6.82803,5.18119 -8.45421,8.52393 l 0,0 c -0.86095,1.76941 -2.37284,2.51449 -3.2783,1.60898 -0.19048,-0.19191 -0.21191,-3.37461 -0.0381,-7.06839 0.27452,-5.85453 0.12621,-7.46846 -1.18596,-12.57893 -1.18165,-4.60182 -1.33402,-5.85932 -0.69284,-5.85932 0.44928,0 4.65329,0.81852 9.34229,1.81827 4.68876,0.99977 8.58968,1.74107 8.66825,1.65081 0.0763,-0.0902 0.70571,-1.28337 1.39499,-2.65064 1.47141,-2.91857 4.5052,-6.10582 6.54756,-6.88236 1.11665,-0.42462 2.44284,-0.61233 3.8271,-0.59987 z m -58.6535,2.56228 c 0.64213,-0.008 1.33428,10e-4 2.07855,0.0326 8.51563,0.35719 11.04633,2.42086 13.03465,10.60258 1.17189,4.82235 1.68616,17.69363 0.86498,21.72598 -0.37024,1.81887 -0.95285,4.66155 -1.29285,6.31505 -0.33974,1.65352 -0.6795,5.55638 -0.75332,8.67738 l -0.0477,2.10191 c -6.75518,-1.13114 -13.37154,-2.66483 -19.80554,-4.62233 -0.0666,-0.47962 -0.10244,-0.8318 -0.18093,-1.34859 -1.99404,-13.02733 -3.85045,-28.92275 -3.85045,-32.98891 0,-3.58734 0.25785,-4.79382 1.36713,-6.45455 1.94046,-2.90459 4.08853,-3.98405 8.58444,-4.04106 z m 67.82388,19.38691 c 0.18572,-0.015 0.31977,10e-4 0.39977,0.0512 0.25309,0.15619 0.92237,2.17499 1.48807,4.48283 1.01166,4.12818 1.00928,4.22587 -0.24166,6.24994 -1.61474,2.61265 -5.65114,5.93013 -10.00728,8.22167 -3.47354,1.82717 -6.36065,2.22405 -8.23112,1.13466 -2.8464,-1.6579 -3.84043,-8.15857 -1.66927,-10.91881 1.70737,-2.17041 15.48986,-9.02513 18.26149,-9.22144 z m 15.71772,12.27201 4.63638,3.02732 c 2.54975,1.66532 5.50519,3.47842 6.56613,4.02711 0.99642,0.5152 2.81403,0.99425 4.85019,1.42299 -5.37899,2.17845 -10.90799,4.06079 -16.56413,5.6454 l 0.21428,-5.85931 0.29763,-8.26351 z m -53.78949,7.31485 c 0.61522,0 4.10186,4.01529 6.44993,7.42646 1.86189,2.70454 4.45829,4.28322 8.27278,5.17107 -1.41332,0.0371 -2.8183,0.10695 -4.24092,0.10695 -3.72733,0 -7.41016,-0.17501 -11.07227,-0.42783 0.44595,-2.83417 0.69214,-6.59651 0.43238,-9.30051 -0.15714,-1.63653 -0.0858,-2.97617 0.15714,-2.97617 z m 40.33176,0 c 0.29262,0 0.53023,2.99452 0.53023,6.65452 0,1.32508 0,2.25988 0.0238,3.10636 -3.90186,0.75862 -7.85849,1.36112 -11.85798,1.82757 3.92996,-3.24529 7.91803,-7.23304 9.80253,-10.10967 0.53309,-0.81356 1.20951,-1.47878 1.50213,-1.47878 z"
       id="path5040"
       inkscape:connector-curvature="0" />
  </g>
</svg>
