<?xml version="1.0" encoding="UTF-8" standalone="no"?>
<!-- Created with Inkscape (http://www.inkscape.org/) -->

<svg
   xmlns:dc="http://purl.org/dc/elements/1.1/"
   xmlns:cc="http://creativecommons.org/ns#"
   xmlns:rdf="http://www.w3.org/1999/02/22-rdf-syntax-ns#"
   xmlns:svg="http://www.w3.org/2000/svg"
   xmlns="http://www.w3.org/2000/svg"
   xmlns:sodipodi="http://sodipodi.sourceforge.net/DTD/sodipodi-0.dtd"
   xmlns:inkscape="http://www.inkscape.org/namespaces/inkscape"
   width="210mm"
   height="297mm"
   viewBox="0 0 744.09448819 1052.3622047"
   id="svg2"
   version="1.1"
   inkscape:version="0.91 r13725"
   sodipodi:docname="boule_renne.svg">
  <defs
     id="defs4" />
  <sodipodi:namedview
     id="base"
     pagecolor="#ffffff"
     bordercolor="#666666"
     borderopacity="1.0"
     inkscape:pageopacity="0.0"
     inkscape:pageshadow="2"
     inkscape:zoom="1"
     inkscape:cx="141"
     inkscape:cy="627.68125"
     inkscape:document-units="px"
     inkscape:current-layer="layer1"
     showgrid="false"
     inkscape:window-width="1920"
     inkscape:window-height="1017"
     inkscape:window-x="-8"
     inkscape:window-y="-8"
     inkscape:window-maximized="1" />
  <metadata
     id="metadata7">
    <rdf:RDF>
      <cc:Work
         rdf:about="">
        <dc:format>image/svg+xml</dc:format>
        <dc:type
           rdf:resource="http://purl.org/dc/dcmitype/StillImage" />
        <dc:title />
      </cc:Work>
    </rdf:RDF>
  </metadata>
  <g
     inkscape:label="Layer 1"
     inkscape:groupmode="layer"
     id="layer1">
    <path
       id="path4526"
       style="color:#000000;font-style:normal;font-variant:normal;font-weight:normal;font-stretch:normal;font-size:medium;line-height:normal;font-family:sans-serif;text-indent:0;text-align:start;text-decoration:none;text-decoration-line:none;text-decoration-style:solid;text-decoration-color:#000000;letter-spacing:normal;word-spacing:normal;text-transform:none;direction:ltr;block-progression:tb;writing-mode:lr-tb;baseline-shift:baseline;text-anchor:start;white-space:normal;clip-rule:nonzero;display:inline;overflow:visible;visibility:visible;opacity:1;isolation:auto;mix-blend-mode:normal;color-interpolation:sRGB;color-interpolation-filters:linearRGB;solid-color:#000000;solid-opacity:1;fill:none;fill-opacity:1;fill-rule:nonzero;stroke:#000000;stroke-width:0.15;stroke-linecap:butt;stroke-linejoin:round;stroke-miterlimit:4;stroke-dasharray:none;stroke-dashoffset:0;stroke-opacity:1;color-rendering:auto;image-rendering:auto;shape-rendering:auto;text-rendering:auto;enable-background:accumulate"
       d="m 480.24805,280.40234 c -0.3661,13.91119 -1.23255,27.72561 0.11328,41.53321 0.41843,4.29392 1.0719,8.57514 1.74414,12.85156 -2.10483,-1.09249 -4.18166,-2.19286 -5.95313,-3.41992 -3.46346,-2.39899 -6.00701,-5.19399 -8.32422,-9.44141 -0.79583,-1.45872 -1.57274,-3.11919 -2.52539,-4.45508 -0.95264,-1.33589 -2.14509,-2.3999 -3.72461,-2.41406 -1.15498,-0.0102 -2.37845,0.51176 -3.46484,1.26758 -1.08639,0.75582 -2.03374,1.75322 -2.55859,2.8164 -0.87529,1.77311 -0.42066,3.59801 0.59765,5.22852 1.01831,1.63051 2.59059,3.15296 4.11133,4.57031 6.76312,6.30333 12.96896,10.76899 20.46875,14.5 4.54822,2.26264 9.56532,4.2545 14.5918,6.03321 1.05404,0.37294 2.10766,0.73464 3.16211,1.09179 0.15521,0.32073 0.27199,0.64507 0.27929,1.00977 0.0216,1.01215 -0.63005,2.36373 -1.57617,3.03125 -0.79643,0.56182 -1.891,0.73122 -3.17187,0.68945 -1.12505,-0.41035 -2.24928,-0.82413 -3.3711,-1.24219 -6.00118,-2.23582 -11.94235,-4.59298 -17.44336,-7.52343 -4.40026,-2.34414 -8.52736,-5.05892 -12.25195,-8.10352 -5.09301,-4.16315 -9.42573,-8.93984 -12.48828,-14.35937 -3.1238,-5.52801 -4.91472,-11.71281 -4.05273,-17.58204 0.66875,-4.5545 2.94184,-8.98349 6.19336,-12.89453 2.83856,-3.4141 6.40941,-6.41849 10.52929,-8.48242 5.57817,-2.79451 12.25279,-3.87368 19.11524,-4.70508 z M 451.21094,536.2207 c 4.85614,1.09747 8.63623,2.23109 11.94336,4.03907 5.06007,2.76623 9.12171,7.15124 12.2832,11.76757 4.95882,7.2408 7.66267,14.96722 7.7793,23.57032 0.0527,3.89552 -0.43346,8.01767 -0.27735,11.92578 0.15612,3.90811 0.97099,7.63611 3.68555,10.62304 2.16736,2.3848 5.40335,4.21969 7.37695,6.51172 3.24856,3.77277 3.4608,9.0667 3.42969,14.08399 -0.0319,5.09906 -0.2968,9.81491 0.32617,15.00976 0.30264,2.52315 0.81244,5.25554 2.72071,7.22852 1.64411,1.69993 4.13979,2.70819 5.86328,4.05078 2.16191,1.68406 3.26756,4.00169 4.04297,6.57617 -0.0123,-0.001 -0.0248,-0.003 -0.0371,-0.004 -14.68562,-1.56991 -29.11961,-5.0036 -43.85547,-5.31446 -17.32906,-0.36547 -34.90578,3.58063 -51.96875,2.41602 -7.77286,-0.53056 -15.4895,-2.12221 -23.32227,-3.375 -3.68054,-0.58871 -7.38313,-1.08783 -11.09765,-1.48242 0.25501,-3.71089 0.0755,-7.37824 -1.21485,-10.8711 -1.40493,-3.80289 -4.02418,-7.29758 -5.75976,-10.88867 -1.57896,-3.26717 -2.47375,-6.66402 -2.82227,-10.33594 -0.15513,-1.634 -0.187,-3.38995 -0.86133,-4.90039 -1.17516,-2.63143 -4.13907,-4.06397 -7.63086,-5.02539 -3.49179,-0.96141 -7.58146,-1.45469 -11.19336,-2.04297 -5.5298,-0.90064 -9.94741,-2.01619 -14.16211,-4.67382 -0.6324,-0.39896 -1.22364,-0.83021 -1.49609,-1.21876 -0.39706,-0.56625 -0.34926,-1.22286 -0.004,-2.07812 0.34554,-0.85526 0.99556,-1.82347 1.64649,-2.77539 4.94375,-7.22807 8.90594,-12.59217 11.5293,-19.07227 3.43169,-8.47691 4.53258,-18.62718 10.18945,-26.32617 1.1681,-1.58971 2.55419,-3.08263 4.0293,-4.53906 13.28288,1.74689 26.63097,3.38777 40.08203,3.44727 15.28806,0.0675 30.67944,-1.90491 45.37109,-5.47071 1.13877,-0.27634 2.27369,-0.56121 3.4043,-0.85547 z m -142.71485,12.4336 c 0.56623,5.47493 1.22591,10.95961 2.19727,16.46484 1.36242,7.72157 3.26174,15.40368 2.45508,22.9043 -0.45914,4.26701 -1.79812,8.53317 -3.25586,12.76953 -0.49782,1.44626 -1.00733,2.88668 -1.52735,4.32226 l 0.46875,0.16993 -0.0566,0.49609 c 2.85934,0.32916 5.68002,0.78436 8.44532,1.42187 9.2294,2.12782 17.96324,6.32983 27.48632,8.13868 2.56059,0.48636 5.16617,0.78212 7.77735,1.03906 0.6753,3.11457 1.30423,6.45229 1.66015,9.04297 0.23036,1.67651 0.35096,3.07266 0.67969,4.29687 0.32873,1.22422 0.89331,2.28605 1.96094,3.14258 0.76381,0.61288 1.7289,1.10234 2.62891,1.6211 0.9,0.51873 1.72702,1.06638 2.21093,1.68554 0.81476,1.04232 0.88265,2.53628 0.7168,4.04297 -0.10717,0.97442 -0.32845,1.90635 -0.58594,2.82813 -2.10486,0.0594 -4.20943,0.16824 -6.3125,0.35351 -13.61069,1.20041 -27.04174,5.16367 -40.23437,4.3457 -13.53402,-0.83911 -27.05299,-6.75033 -40.92188,-6.76367 -6.07268,-0.006 -12.1446,1.12555 -18.17578,1.9375 -9.26983,1.24798 -18.51863,1.76583 -27.93164,0.96289 -3.53222,-0.30125 -7.13236,-0.79946 -10.60352,-0.48242 -1.9719,0.18004 -3.86265,0.67899 -5.7207,1.29492 -0.90212,-3.94529 -2.3951,-8.26105 -2.66211,-12.04883 -0.49165,-6.98059 3.16903,-12.49831 6.15039,-18.53515 4.4383,-8.98706 7.11572,-18.7232 12.77344,-26.92774 2.58716,-3.75172 5.81973,-7.21088 9.33789,-10.54687 16.72024,-3.0974 33.14326,-7.84237 47.90625,-14.86719 8.1034,-3.85591 15.68455,-8.40359 23.13281,-13.10937 z m 72.375,-456.822269 c -18.50494,-4.03e-4 -33.50626,15.000919 -33.50586,33.505859 0.0145,11.40432 5.8288,22.01816 15.43165,28.16992 l -12.98243,0 c -3.92598,0 -6.73922,3.17724 -7.08593,7.08789 l -2.10157,23.71094 C 195.15339,204.38929 86.750375,328.64492 86.585938,475.49805 86.586247,638.02712 218.34202,769.78289 380.87109,769.7832 543.40017,769.7829 675.15594,638.02713 675.15625,475.49805 674.98304,328.6516 566.58218,204.40594 421.11523,184.32422 l -2.10156,-23.46484 c -0.3503,-3.91033 -3.16078,-7.00807 -7.08594,-7.0879 l -12.91992,-0.26367 c 9.57897,-6.16648 15.36832,-16.77772 15.36914,-28.16992 4e-4,-18.50494 -15.00092,-33.506262 -33.50586,-33.505859 z m 0,8.011719 a 23.250526,24.052132 0 0 1 23.25,24.05078 23.250526,24.052132 0 0 1 -23.25,24.05274 23.250526,24.052132 0 0 1 -23.25,-24.05274 23.250526,24.052132 0 0 1 23.25,-24.05078 z m 0,103.49414 a 270.19559,272.15942 0 0 1 150.99805,46.56836 c -4.48764,2.26041 -8.89742,4.62429 -13.13867,7.20508 -7.5762,4.61005 -14.6414,9.86282 -20.88086,15.6914 -1.97797,1.84772 -3.84619,3.76684 -5.68945,5.70118 -0.41099,-2.73533 -0.79451,-5.47569 -1.03516,-8.24414 -0.71261,-8.19866 -0.41037,-16.60169 2.49219,-24.26758 0.50582,-1.33638 1.09193,-2.65456 1.73828,-3.95899 l -0.44922,-0.22265 0.41406,-0.28321 c -0.48709,-0.71154 -1.16157,-1.3317 -2.00781,-1.69531 -0.58503,-0.25139 -1.22574,-0.37166 -1.88086,-0.39258 -0.65511,-0.0209 -1.32517,0.0572 -1.97266,0.20508 l 0.11133,0.48828 -0.43359,-0.24804 c -3.28994,5.76299 -6.15581,11.62987 -7.50586,17.80664 -1.13713,5.20196 -1.1832,10.56376 -1.24609,15.89062 -1.05293,0.0406 -2.1049,0.0976 -3.14454,0.22656 -3.36444,0.41707 -6.55275,1.4109 -9.8164,2.31446 -6.74873,1.86846 -14.09084,3.39366 -18.6836,8.36133 -1.21565,1.31481 -2.08342,2.65237 -3.83789,2.90429 -0.48631,0.0701 -1.03792,-0.006 -1.16601,-0.0957 l -0.002,0 c -0.0762,-0.0528 -0.12993,-0.13747 -0.17188,-0.31836 -0.0419,-0.1809 -0.0536,-0.43462 -0.0488,-0.70117 l 0,-0.002 0,-0.002 c 0.0153,-1.56441 0.3853,-2.95593 -0.0176,-4.45312 -0.33962,-1.26335 -1.22838,-2.48579 -2.61132,-3.35157 -1.34247,-0.84038 -3.1123,-1.39082 -4.54493,-0.95507 -0.91317,0.27781 -1.55579,0.9671 -2.00586,1.75781 -0.45006,0.79071 -0.73222,1.70315 -0.94531,2.55859 -0.73421,2.94792 -0.66065,5.39939 -0.88281,7.81055 -0.50593,5.4955 -2.56514,11.30547 -3.23242,17.49414 -0.61139,5.66949 -0.0438,11.62729 2.71679,16.37695 2.68582,4.62076 7.29146,7.92343 10.57032,13.15625 l 0,0.002 c 0.14418,0.22978 0.27195,0.4473 0.33789,0.61523 0.0659,0.16793 0.0599,0.25357 0.0488,0.2832 -0.0141,0.0378 -0.15926,0.20176 -0.4336,0.32617 -0.27433,0.12444 -0.64321,0.21729 -0.97461,0.24415 -0.65994,0.0533 -1.23284,-0.12371 -1.79101,-0.39844 -0.48862,-0.24058 -0.95713,-0.55758 -1.47657,-0.8711 -1.03945,-0.62731 -2.19839,-1.16546 -3.51757,-1.40429 -1.07536,-0.19441 -2.2597,-0.20117 -3.29688,0.20508 -0.758,0.29696 -1.39571,0.8031 -1.84375,1.42187 -1.04901,1.44796 -1.01824,3.3961 -0.25,4.81836 0.91406,1.692 2.81195,2.49341 4.97852,2.96094 2.16656,0.46753 4.66476,0.6123 6.96484,0.87109 7.08223,0.7969 12.57376,2.65804 18.03906,4.61914 6.42352,2.30491 12.78283,4.73936 20.90821,6.625 1.89428,0.43962 3.85764,0.84878 5.4375,1.4668 1.57985,0.61801 2.72713,1.42075 3.17578,2.60156 0.25172,0.66142 0.27316,1.42888 -0.0645,1.96875 -0.23858,0.38178 -0.71915,0.74056 -1.27343,0.96094 -0.56684,0.22525 -1.22075,0.31696 -1.89258,0.33789 -1.70976,0.0523 -3.41761,-0.35391 -5.10156,-0.88281 -2.34737,-0.73725 -4.63108,-1.70783 -7.07227,-2.19141 -3.17613,-0.63021 -6.49299,-0.40285 -9.82422,0.0312 l 0.0586,0.45508 -0.46485,-0.13672 c -0.35483,1.20724 -0.71725,2.43644 -0.89258,3.69922 -0.21897,1.57945 -0.13333,3.1559 0.11524,4.7207 l 0.49609,-0.0781 -0.11914,0.48633 c 0.18185,0.0443 0.36415,0.0879 0.54492,0.13476 5.45481,1.414 10.6241,4.10341 14.37891,7.61719 1.58341,1.48169 2.91018,3.12879 4.14062,4.84961 -0.39415,1.24919 -0.76242,2.50486 -1.07031,3.77148 -1.32486,5.44979 -1.70081,11.00871 -2.38672,16.51367 -0.82633,6.63218 -2.11604,13.28476 -2.08398,19.96094 0.004,0.80726 0.0306,1.61457 0.0723,2.42188 -0.95688,1.16405 -1.89577,2.3484 -2.80664,3.56054 -4.49015,5.9758 -8.30324,12.48059 -14.4707,16.47266 -5.50384,3.56257 -13.02281,5.21198 -20.49219,6.46289 -19.36019,3.24233 -38.11808,3.85268 -57.0957,4.01562 -10.2814,0.0881 -20.62205,0.0454 -30.99219,-0.0625 -3.73414,-1.27379 -7.37782,-2.50842 -10.59961,-3.6582 -10.65183,-3.80131 -16.81648,-6.72746 -24.76562,-8.8164 -11.12573,-2.92376 -25.66207,-4.19109 -37.91016,-0.94336 -5.17959,1.37345 -9.90405,3.58696 -14.20312,6.29492 -1.0684,-2.59145 -1.93748,-5.19287 -2.33008,-7.83008 -0.71789,-4.81905 0.0663,-9.86535 0.98633,-14.87891 0.70151,-3.82277 1.48277,-7.63243 1.57226,-11.49414 0.0534,-2.31141 -0.14209,-4.61767 -0.44531,-6.91797 l -0.49609,0.0645 L 262.1875,407.5 c -3.59714,1.48762 -7.08198,3.15188 -10.23242,5.30469 -6.78139,4.63404 -11.95069,11.48014 -13.20508,18.74219 -1.14021,6.60109 0.98275,13.42445 4.51758,19.36718 1.95268,3.28288 4.34742,6.28888 6.91211,9.17969 -3.12743,3.6583 -5.68656,7.6399 -7.44922,11.8457 -3.17995,7.58748 -3.8357,15.81333 -3.08008,23.82227 0.92596,9.81349 3.97292,19.32104 8.0293,28.45508 0.53911,1.21398 1.09752,2.41947 1.66992,3.62109 -0.7274,2.90254 -1.5946,5.78986 -2.68359,8.65625 -2.52098,6.63564 -6.17527,13.14072 -11.83985,17.90234 -5.12521,4.30821 -11.98878,7.24978 -18.50195,10.52735 -2.32542,1.17022 -4.59665,2.38127 -6.83789,3.61523 l 0.24219,0.4375 -0.49805,-0.0586 c -0.80706,6.88697 -2.00022,13.68635 -4.05078,20.30664 -3.58923,11.58786 -9.8297,22.69662 -16.23828,33.62305 -2.08166,3.54916 -4.17945,7.07701 -6.28321,10.59765 l 0.42969,0.25781 -0.42187,0.26954 c 2.71426,4.24601 5.42826,8.49035 8.14257,12.73632 -0.89567,0.59155 -1.82766,1.12814 -2.89453,1.48047 -3.0767,1.01604 -7.13408,0.91501 -10.40039,1.87891 -0.95152,0.28081 -1.81416,0.66536 -2.61523,1.11914 A 270.19559,272.15942 0 0 1 110.67578,475.49805 270.19559,272.15942 0 0 1 380.87109,203.33789 Z m 157.32813,51.18555 a 270.19559,272.15942 0 0 1 112.86719,220.97461 270.19559,272.15942 0 0 1 -65.89258,177.875 c -0.69778,-0.70615 -1.45988,-1.37145 -2.30078,-1.98633 -3.50616,-2.56385 -8.29026,-4.23926 -12.97461,-4.50195 -5.68479,-0.31893 -11.10869,1.44978 -16.54102,2.72461 -7.84221,1.84032 -15.86332,2.71278 -23.91406,2.86914 -2.25117,-3.37727 -4.43063,-6.77904 -6.375,-10.26954 -5.83956,-10.48253 -9.64667,-21.79142 -10.26367,-33.50195 -0.41001,-7.78078 0.61884,-15.86289 -2.09571,-23.19726 -2.33241,-6.30186 -7.33708,-11.85415 -10.34765,-17.97461 -4.85337,-9.86715 -4.75166,-21.44126 -0.50391,-31.59961 1.60551,-3.83935 3.79159,-7.44792 7.0293,-10.375 2.84083,-2.56818 6.51347,-4.6267 10.48437,-5.77735 6.60944,-1.91517 14.12761,-1.33509 21.12696,0.0117 1.46181,0.28108 2.89764,0.59902 4.32422,0.9336 1.22602,2.8698 2.27234,5.77297 2.91015,8.76953 0.7304,3.43203 0.93783,6.99663 0.5,10.34179 -0.57544,4.39828 -2.25846,8.42927 -5.5,12.80078 -0.99773,1.34551 -2.16421,2.74234 -2.96875,4.1543 -0.80454,1.41197 -1.26888,2.91452 -0.64648,4.33203 0.34539,0.7867 0.96189,1.45141 1.56054,2.10547 0.59866,0.65406 1.18217,1.296 1.50391,1.91797 0.51397,0.99352 0.4878,2.09678 0.0937,3.2793 -0.3939,1.18251 -1.16412,2.41385 -2.07227,3.5332 -1.52958,1.88548 -3.49833,3.46335 -4.38671,5.35742 -0.87003,1.85494 -0.52919,3.8304 0.21679,5.88672 0.74598,2.05632 1.90146,4.25158 2.81836,6.69336 0.44333,1.18066 0.83993,2.44956 1.32813,3.50977 0.4882,1.06021 1.07341,1.98274 2.05469,2.26172 1.08397,0.30818 2.22836,-0.25988 3.41601,-1.04297 1.18765,-0.7831 2.44137,-1.85099 3.64844,-2.83399 2.16051,-1.75933 4.22596,-3.29397 5.80078,-4.86719 1.57482,-1.57322 2.68482,-3.22144 2.77539,-5.16796 0.10008,-2.15873 -0.97982,-4.41068 -1.27539,-6.60547 -0.19958,-1.48267 -0.0666,-2.92639 0.68555,-4.07422 0.9313,-1.42059 3.0447,-2.56262 4.29882,-4.16992 1.21825,-1.56125 1.40467,-3.45278 1.24414,-5.36133 -0.16051,-1.90855 -0.65719,-3.87973 -0.88867,-5.73047 -0.47459,-3.79074 0.10032,-7.2753 1.25,-10.70898 1.79598,-5.36375 5.02443,-10.59402 6.86719,-16.18946 1.80676,-5.48591 2.2453,-11.29773 0.25195,-17.13476 -1.18393,-3.46675 -3.21908,-6.97808 -6.31445,-8.88477 -2.99862,-1.84708 -6.84196,-2.0904 -10.96289,-1.8125 -4.12093,0.2779 -8.54397,1.0887 -12.73437,1.46484 -5.50853,0.49463 -10.66414,0.22367 -15.67188,-0.38867 1.53058,-2.79606 3.03519,-5.60636 4.46875,-8.44726 6.54982,-12.98011 11.86047,-26.53246 13.21875,-40.74805 1.18112,-12.36066 -0.62771,-25.21258 -6.64062,-36.40039 -1.28945,-2.39927 -2.78601,-4.70918 -4.38672,-6.97266 0.67338,-2.04066 1.75465,-3.75778 3.56054,-5.01758 2.13828,-1.49167 5.36394,-2.39134 8.78321,-3.09765 5.50182,-1.13651 11.37145,-1.74679 15.37109,0.22265 1.41414,0.6964 2.63902,1.72923 3.7832,2.9336 l 0.36133,-0.34375 0.37891,0.32617 c 0.97541,-1.13044 1.98667,-2.22901 3.08594,-3.26367 1.08447,-1.02074 2.22433,-1.9493 3.6914,-2.54883 1.44994,-0.59252 3.31521,-0.88738 5.02734,-1.31445 1.71218,-0.42707 3.33104,-0.9837 4.17383,-2.32422 0.63696,-1.01317 0.73689,-2.33206 0.47461,-3.57617 -0.26227,-1.24412 -0.8942,-2.43793 -1.8789,-3.17969 -1.39343,-1.04975 -3.27045,-1.03281 -5.19336,-0.84375 -1.92292,0.18906 -3.94449,0.56838 -5.65039,0.47852 -4.38451,-0.23102 -7.33556,-3.54937 -10.93555,-6.25391 -5.22111,-3.92241 -11.32449,-6.13023 -14.28516,-10.98047 -0.82801,-1.35645 -1.44291,-2.97252 -2.14843,-4.48633 -0.70553,-1.51381 -1.50483,-2.94421 -2.79102,-3.86719 -1.55013,-1.11234 -3.65298,-1.36965 -6.12695,-1.17578 -2.39115,0.18739 -5.19042,0.82784 -8.23828,1.60547 -0.68943,-0.49719 -1.24354,-1.01428 -1.48438,-1.55273 -0.28185,-0.63002 -0.26835,-1.39621 -0.0586,-2.28516 0.19541,-0.82803 0.57262,-1.74896 0.95507,-2.68164 3.09736,-1.09566 6.20021,-2.19434 9.23829,-3.43359 5.59893,-2.28396 10.95536,-5.02766 15.87109,-8.21289 4.57229,-2.96271 8.74822,-6.29566 12.9043,-9.625 l -0.3125,-0.39063 0.48828,0.10938 c 0.12629,-0.5593 0.17074,-1.14805 0.10156,-1.76172 -0.15021,-1.33994 -0.7991,-2.83672 -2.125,-3.42969 -0.76674,-0.3431 -1.63213,-0.31577 -2.50586,-0.19336 l 0.0703,0.49609 -0.32226,-0.38476 c -2.42307,2.02378 -4.86132,4.02056 -7.44141,5.87891 -4.982,3.5883 -10.52076,6.68398 -16.32226,9.33984 -2.82968,1.29541 -5.73343,2.47227 -8.65821,3.62109 0.12542,-2.47914 0.12596,-5.12848 -0.47265,-8.48633 -0.13532,-0.75805 -0.29816,-1.56548 -0.56836,-2.25781 -0.27021,-0.69233 -0.66064,-1.33652 -1.36719,-1.54883 -0.7612,-0.2288 -1.53649,0.11385 -2.27734,0.60547 -0.74086,0.49162 -1.46683,1.18656 -2.06641,1.92188 -1.89503,2.32398 -2.42702,4.97413 -3.02148,7.08008 -0.29724,1.05297 -0.61094,1.96801 -1.07032,2.65039 -0.45937,0.68238 -1.03807,1.1509 -1.99804,1.39453 -0.2581,0.0654 -0.57301,0.10105 -0.88672,0.13672 -1.59772,-2.04045 -3.17746,-4.08409 -4.65625,-6.17774 -3.27416,-4.63559 -6.08762,-9.50868 -7.96485,-14.6289 -2.64829,-7.22316 -3.44571,-14.97255 -2.42773,-22.48243 0.71807,-5.29714 2.34015,-10.47948 4.74219,-15.44531 5.06807,-10.47769 13.61356,-19.99183 24.07422,-27.20312 5.26019,-3.62628 11.02568,-6.65962 17.0332,-9.41797 z m -350.9668,410.76562 386.92188,0 A 270.19559,272.15942 0 0 1 380.87109,747.6582 270.19559,272.15942 0 0 1 187.23242,665.28906 Z" />
  </g>
</svg>
