<?xml version="1.0" encoding="UTF-8" standalone="no"?>
<!-- Created with Inkscape (http://www.inkscape.org/) -->

<svg
   xmlns:dc="http://purl.org/dc/elements/1.1/"
   xmlns:cc="http://creativecommons.org/ns#"
   xmlns:rdf="http://www.w3.org/1999/02/22-rdf-syntax-ns#"
   xmlns:svg="http://www.w3.org/2000/svg"
   xmlns="http://www.w3.org/2000/svg"
   xmlns:sodipodi="http://sodipodi.sourceforge.net/DTD/sodipodi-0.dtd"
   xmlns:inkscape="http://www.inkscape.org/namespaces/inkscape"
   width="210mm"
   height="297mm"
   viewBox="0 0 744.09448819 1052.3622047"
   id="svg2"
   version="1.1"
   inkscape:version="0.91 r13725"
   sodipodi:docname="boule_sledge.svg">
  <defs
     id="defs4" />
  <sodipodi:namedview
     id="base"
     pagecolor="#ffffff"
     bordercolor="#666666"
     borderopacity="1.0"
     inkscape:pageopacity="0.0"
     inkscape:pageshadow="2"
     inkscape:zoom="0.71180556"
     inkscape:cx="507"
     inkscape:cy="492"
     inkscape:document-units="px"
     inkscape:current-layer="layer1"
     showgrid="false"
     inkscape:window-width="1920"
     inkscape:window-height="1017"
     inkscape:window-x="-8"
     inkscape:window-y="-8"
     inkscape:window-maximized="1" />
  <metadata
     id="metadata7">
    <rdf:RDF>
      <cc:Work
         rdf:about="">
        <dc:format>image/svg+xml</dc:format>
        <dc:type
           rdf:resource="http://purl.org/dc/dcmitype/StillImage" />
        <dc:title />
      </cc:Work>
    </rdf:RDF>
  </metadata>
  <g
     inkscape:label="Layer 1"
     inkscape:groupmode="layer"
     id="layer1">
    <path
       style="fill:none;fill-opacity:1;stroke:#000000;stroke-width:0.15;stroke-linecap:round;stroke-linejoin:round;stroke-miterlimit:4;stroke-dasharray:none;stroke-dashoffset:0;stroke-opacity:1"
       d="M 375.87109 99.832031 C 357.36615 99.831628 342.36483 114.83295 342.36523 133.33789 C 342.37973 144.74221 348.19403 155.35605 357.79688 161.50781 L 344.81445 161.50781 C 340.88847 161.50781 338.07523 164.68505 337.72852 168.5957 L 335.62695 192.30664 C 190.15339 212.38929 81.75037 336.64492 81.585938 483.49805 C 81.586247 646.02712 213.34202 777.78289 375.87109 777.7832 C 538.40017 777.7829 670.15594 646.02713 670.15625 483.49805 C 669.98304 336.6516 561.58218 212.40594 416.11523 192.32422 L 414.01367 168.85938 C 413.66337 164.94905 410.85289 161.85131 406.92773 161.77148 L 394.00781 161.50781 C 403.58678 155.34133 409.37613 144.73009 409.37695 133.33789 C 409.37735 114.83295 394.37603 99.831628 375.87109 99.832031 z M 375.87109 107.84375 A 23.250526 24.052132 0 0 1 399.12109 131.89453 A 23.250526 24.052132 0 0 1 375.87109 155.94727 A 23.250526 24.052132 0 0 1 352.62109 131.89453 A 23.250526 24.052132 0 0 1 375.87109 107.84375 z M 375.87109 211.33789 A 270.19559 272.15942 0 0 1 646.06641 483.49805 A 270.19559 272.15942 0 0 1 617.96484 603.60547 C 617.33822 598.0085 615.30086 592.52111 611.99023 587.74609 C 607.03129 580.59365 599.23528 575.04057 590.35938 572.69141 C 579.49644 569.81633 567.0173 571.74015 557.47852 577.18164 C 550.98497 580.88599 545.85411 586.21932 541.61523 591.9707 C 540.33589 593.70646 539.13801 595.48037 537.96484 597.26562 C 536.41731 594.27747 535.1072 591.18468 534.46484 587.79492 C 533.62973 583.38778 533.92306 578.47891 536.0957 574.94531 C 539.87004 568.80655 549.31448 566.81739 556.6543 562.69531 C 566.85352 556.96747 572.98902 547.12368 575.93945 536.95117 C 578.74292 527.28542 578.67074 517.32257 576.97656 507.29492 C 575.56675 498.95049 573.03398 490.56136 567.9082 484.04492 C 560.99758 475.25948 549.37274 469.87858 539.4082 463.4043 C 534.03277 459.91172 529.13961 456.09978 525.67578 450.5918 C 522.88393 446.1527 521.02086 440.6118 522.82617 436.35742 C 523.74794 434.1852 525.62721 432.34872 527.69922 430.58008 C 527.16808 433.36927 526.92904 436.16381 527.57617 438.97656 C 528.42971 442.68647 530.82486 446.42669 534.41602 448.12891 C 538.33013 449.98422 543.66467 449.41847 547.56641 447.16602 C 552.71378 444.19449 555.36517 438.28912 554.93164 432.71484 C 554.33438 425.03459 547.88069 417.98278 540.20117 415.37109 C 531.97435 412.57332 522.34181 414.86971 514.95117 419.70703 C 506.67624 425.12319 501.21337 433.72649 500.2207 442.34961 C 499.16394 451.52938 503.1723 460.73158 506.5332 469.80664 C 509.80574 478.64302 512.46368 487.35714 511.26758 496.7832 C 510.48382 502.9597 508.04558 509.44196 503.37695 513.16211 C 497.33668 517.97542 487.5626 518.16605 478.65039 517.98047 C 470.82525 517.81736 463.66495 517.36379 456.55664 516.05273 C 444.44921 513.8196 432.49539 509.09579 421.30859 503.52734 C 412.41541 499.10051 404.00779 494.1396 396.05859 488.59375 C 386.00847 481.58218 376.69336 473.63757 367.65039 465.47266 C 360.30025 458.83624 353.12959 452.05502 346.60742 444.75781 C 338.23013 435.38562 330.92112 425.16157 321.88086 416.33594 C 312.72257 407.39544 301.78717 399.88951 289.79102 394.17578 C 279.6593 389.35013 268.77198 385.80157 257.70117 384.05859 C 245.51462 382.14005 233.10654 382.40877 220.34961 384.54102 C 209.26345 386.39401 197.9124 389.65475 191.41406 398.0293 C 186.32333 404.58951 184.20923 414.28769 188.25781 421.15234 C 191.34669 426.39024 198.0236 429.97865 204.56641 430.78711 C 210.31122 431.49702 215.95271 430.06399 221.40039 428.37891 C 224.27299 427.49032 227.09196 426.53077 229.88086 425.5332 C 230.95939 426.44213 231.99509 427.38778 232.97461 428.37891 C 240.41847 435.91188 244.62571 446.12915 247.17773 456.31836 C 249.79566 466.76813 250.67301 477.18761 251.91406 487.63086 C 253.16037 498.12254 254.7748 508.63851 257.70117 518.94336 C 260.60408 529.1659 264.79812 539.18135 271.37891 547.84766 C 275.72138 553.56625 281.10206 558.69765 287.16016 562.78125 C 293.00563 566.72132 299.48073 569.68504 305.04688 574.3418 C 310.85152 579.19837 315.66685 585.8963 316.09375 592.64844 C 316.40461 597.56591 314.38855 602.51197 310.83398 607.09961 C 306.68555 612.454 300.4424 617.31934 294.52539 616.73438 C 292.34406 616.51867 290.20526 615.56301 287.68555 614.80859 C 286.00792 614.30637 284.16169 613.89324 282.81836 614.32812 C 280.28534 615.14829 279.54436 618.98264 278.24023 622.05469 C 274.28304 631.3786 265.13229 633.68125 256.35156 636.07031 C 245.59041 638.99836 235.38757 642.05633 225.19922 644.79492 C 214.61432 647.64012 204.04374 650.14019 190.66992 648.12305 C 178.13533 646.23243 163.13705 640.37313 163.5332 631.66797 C 163.63387 629.45283 164.73016 627.05366 166.04883 624.61328 C 166.1879 625.09456 166.32921 625.58335 166.4707 626.08008 C 167.19755 628.635 167.94075 631.42227 169.96484 632.93359 C 172.10008 634.5276 175.66016 634.70036 178.61523 633.84766 C 182.48633 632.73073 185.31927 629.85597 186.60156 626.38477 C 187.57379 623.75425 187.65585 620.7818 186.60156 618.46289 C 184.51482 613.87234 177.97455 611.84148 171.46289 611.15039 C 162.10771 610.15748 152.81213 611.9296 147.83984 617.39648 C 146.30884 619.0799 145.18767 621.11484 144.40625 623.3418 A 270.19559 272.15942 0 0 1 105.67578 483.49805 A 270.19559 272.15942 0 0 1 375.87109 211.33789 z M 504.48633 581.48242 C 516.20961 583.25168 517.44054 589.82452 519.5 594.52344 C 522.32028 600.95833 526.19378 607.05154 531.03711 612.48438 C 535.88989 617.92786 541.71487 622.70933 548.91797 625.42578 C 556.03192 628.10861 564.48932 628.77606 571.41602 625.95312 C 575.12322 624.44228 578.39226 621.93201 580.35742 618.55859 C 582.61653 614.68047 583.15191 609.66217 580.93359 605.88086 C 579.51948 603.47045 576.98662 601.56316 574.01172 600.86328 C 570.04529 599.93013 565.29449 601.14308 562.76367 604.03125 C 561.15447 605.86773 560.44248 608.38161 560.74414 610.63477 C 561.08674 613.19352 562.74154 615.41527 564.4668 617.61914 C 564.95701 617.49848 565.44678 617.37507 565.93555 617.23828 L 564.7832 618.0293 C 564.6761 617.89293 564.57361 617.75558 564.4668 617.61914 C 563.61692 617.82833 562.76459 618.00108 561.89844 618.0293 C 558.82705 618.12931 555.60515 616.56337 553.5332 614.33203 C 550.39278 610.94997 549.89232 606.03963 550.9375 601.6543 C 552.30364 595.92222 556.31073 591.08812 561.60938 587.92188 C 566.88881 584.76705 573.4509 583.26785 579.49219 584.22266 C 586.58431 585.34361 592.95903 589.84482 597.08594 595.58008 C 601.49833 601.71202 603.34199 609.25592 601.99023 616.18164 C 600.49122 623.86165 595.06353 630.78232 588.43359 635.99023 C 581.63066 641.33398 573.56047 644.87386 565.07031 646.81836 C 555.05837 649.11139 544.46154 649.18573 534.20898 647.61133 C 524.63551 646.14122 515.3632 643.23348 507.09766 638.63086 C 499.32125 634.30061 492.43636 628.46908 487.48438 621.46289 C 485.12784 618.12882 483.2092 614.52912 482.29297 610.63477 C 481.35089 606.63076 481.4681 602.3167 482.86914 598.48633 C 484.3725 594.37621 487.16842 590.63147 490.36914 587.39258 C 494.63348 583.07739 492.73364 582.17046 504.48633 581.48242 z M 481.89258 584.2793 C 479.84685 586.3868 478.0255 588.61001 476.64648 591.0625 C 474.84433 594.26737 473.79697 597.86288 472.77734 601.47266 C 472.64879 601.23397 472.51662 600.99612 472.38281 600.75977 C 470.48826 597.4138 468.06015 594.30922 465.36914 591.44141 C 463.3928 589.33522 461.27562 587.35612 459.08789 585.44141 C 466.70973 585.2607 474.31671 584.91866 481.89258 584.2793 z M 370.49414 585.38672 C 386.4171 585.46977 402.34505 585.5443 418.29297 585.5918 C 408.19949 591.29977 398.31033 597.25869 388.94727 603.86914 C 387.00124 605.24308 385.07733 606.64475 383.16797 608.06445 C 382.62753 605.71716 381.97325 603.39186 380.94531 601.13477 C 379.42524 597.79711 377.08732 594.61007 374.06055 592.37695 C 373.62875 591.903 373.17571 591.42024 372.69336 590.92383 C 371.43982 589.63387 369.99052 588.25529 369.77344 587.11914 C 369.6496 586.47052 369.92787 585.90039 370.49414 585.38672 z M 435.43945 588.68164 C 438.37915 588.66511 441.24795 588.95202 443.99219 589.7793 C 447.32706 590.78461 450.47911 592.58677 453.23242 594.73242 C 457.57778 598.11878 460.93257 602.36177 463.37109 607.11133 C 465.80041 611.84285 467.31924 617.07745 466.97656 622.17578 C 466.57797 628.10635 463.66177 633.85378 459.31641 638.68164 C 456.8335 641.44019 453.88281 643.89804 450.07617 644.45898 C 446.53541 644.98071 442.25329 643.86122 440.16211 641.57031 C 438.45774 639.70318 438.21017 637.05774 438.58594 633.93555 C 438.91175 631.22816 439.70609 628.1635 441.96484 627.95312 C 442.68748 627.88572 443.56046 628.11107 444.21875 628.57227 C 445.29207 629.32442 445.79591 630.70405 446.69727 631.25391 C 448.28384 632.22177 451.10162 630.61716 452.78125 628.57227 C 454.38537 626.61928 454.95094 624.26353 454.13281 622.79297 C 452.71765 620.2493 447.16154 620.34956 443.0918 621.34961 C 439.25703 622.292 436.74183 624.03321 434.07812 626.30078 C 431.35476 628.6191 428.47701 631.48701 428.2207 634.55469 C 427.99797 637.21883 429.75323 640.0336 431.375 642.60156 C 432.39043 644.20942 433.35263 645.72067 434.07812 647.34766 C 434.28672 647.81557 434.47595 648.29276 434.65039 648.77734 L 345.74805 648.58594 C 352.17563 643.32288 358.60393 638.05994 365.12695 632.9043 C 368.4157 630.30501 371.72847 627.73314 375.05469 625.17383 C 375.55826 627.50207 376.17548 629.81135 377.16016 632.05664 C 378.97528 636.19551 382.03754 640.11886 386.12695 642.32031 C 389.90257 644.35282 394.55449 644.9179 399.20508 644.25977 C 404.62641 643.49256 410.04654 641.0637 412.28125 636.73242 C 414.65884 632.12405 413.43068 625.36136 409.41797 621.90625 C 407.0135 619.8359 403.6086 618.95264 400.07617 619.05469 C 396.21978 619.16622 392.21022 620.45094 390.48633 623.50195 C 389.48828 625.26836 389.25642 627.62746 390.48633 629.20508 C 391.33398 630.29237 392.87639 631.00911 394.34766 630.91602 C 395.7696 630.82592 397.12469 629.9799 397.83398 628.86328 C 398.46333 627.87253 398.58324 626.6681 399.32812 625.7832 C 399.72713 625.30947 400.30476 624.92803 400.94727 624.75781 C 401.63946 624.57444 402.40864 624.63628 403.06641 624.87109 C 405.83948 625.86022 406.66583 629.9031 405.55664 632.74023 C 404.8249 634.61195 403.25096 635.95827 401.44727 636.61719 C 399.00733 637.50849 396.14607 637.14132 393.47461 636.27539 C 389.4969 634.98633 385.93676 632.59314 384.13477 629.54688 C 382.39949 626.61334 382.29544 623.07469 382.63477 619.37109 C 384.83448 617.69287 387.03542 616.01499 389.23633 614.33398 C 396.88575 608.49143 404.52459 602.6071 412.67188 597.41406 C 417.13743 594.56774 421.75568 591.92861 426.46289 589.41016 C 429.48962 589.01794 432.49975 588.69817 435.43945 588.68164 z M 359.47852 596.32031 C 361.14609 596.26627 362.89297 596.5926 364.57031 597.11328 C 368.56627 598.35402 372.16195 600.70243 374.00781 603.72656 C 375.7638 606.60362 375.93762 610.09144 375.66602 613.75 C 371.99379 616.56618 368.32872 619.39628 364.60742 622.16406 C 354.62885 629.58582 344.24034 636.55695 333.36719 642.78906 C 329.33682 645.09934 325.23813 647.30872 321.09375 649.44531 L 253.66211 650.11523 C 258.4068 648.25282 262.98201 646.11138 267.20117 643.38672 C 271.48825 640.61814 275.40639 637.24759 280.43164 635.6543 C 282.7011 634.93473 285.1972 634.57776 287.4707 634.88086 C 289.29872 635.12461 290.98184 635.79508 292.81836 636.68555 C 294.08164 637.29805 295.41696 638.01481 296.47852 637.97461 C 298.67522 637.8913 299.69885 634.56438 300.98438 631.78711 C 304.01544 625.23774 308.51028 621.74135 313.65234 618.63867 C 320.05891 614.77301 327.47033 611.51767 334.20312 607.55469 C 337.84096 605.41327 341.28028 603.06529 344.69336 600.68945 C 344.2879 604.69829 345.7955 609.12283 348.83789 611.67383 C 351.27188 613.71483 354.68811 614.55702 358.21875 614.41211 C 362.07317 614.25392 366.06451 612.91931 367.74414 609.84766 C 368.71658 608.06933 368.91489 605.70908 367.66211 604.14648 C 366.79884 603.06958 365.24712 602.37151 363.77734 602.48242 C 362.35681 602.58948 361.01344 603.45307 360.32031 604.57812 C 359.70531 605.57646 359.60124 606.77993 358.86914 607.67383 C 358.47742 608.15233 357.90565 608.54267 357.26562 608.7207 C 356.57617 608.91256 355.8076 608.85916 355.14648 608.63281 C 352.35934 607.67741 351.47452 603.64524 352.54297 600.79492 C 353.24732 598.91449 354.80167 597.54788 356.5957 596.86719 C 357.50577 596.52189 358.47797 596.35274 359.47852 596.32031 z M 479.3457 630.98438 C 480.33438 632.59876 481.404 634.15265 482.63672 635.58398 C 486.19377 639.71388 491.11592 642.81827 495.65039 646.21094 C 496.68015 646.98138 497.68931 647.76723 498.68555 648.5625 L 465.14062 648.66602 C 465.4688 648.37541 465.79098 648.09418 466.10547 647.82227 C 469.12902 645.2107 471.4773 643.53833 475.25 637.83789 C 476.61604 635.77391 478.16864 633.18295 479.3457 630.98438 z M 168.27344 657.32422 L 582.9375 658.28516 A 270.19559 272.15942 0 0 1 375.87109 755.6582 A 270.19559 272.15942 0 0 1 168.27344 657.32422 z "
       id="path4153" />
  </g>
</svg>
