<?xml version="1.0" encoding="UTF-8" standalone="no"?>
<!-- Created with Inkscape (http://www.inkscape.org/) -->

<svg
   xmlns:dc="http://purl.org/dc/elements/1.1/"
   xmlns:cc="http://creativecommons.org/ns#"
   xmlns:rdf="http://www.w3.org/1999/02/22-rdf-syntax-ns#"
   xmlns:svg="http://www.w3.org/2000/svg"
   xmlns="http://www.w3.org/2000/svg"
   xmlns:sodipodi="http://sodipodi.sourceforge.net/DTD/sodipodi-0.dtd"
   xmlns:inkscape="http://www.inkscape.org/namespaces/inkscape"
   width="210mm"
   height="297mm"
   viewBox="0 0 744.09448819 1052.3622047"
   id="svg2"
   version="1.1"
   inkscape:version="0.91 r13725"
   sodipodi:docname="boule_etoile.svg">
  <defs
     id="defs4" />
  <sodipodi:namedview
     id="base"
     pagecolor="#ffffff"
     bordercolor="#666666"
     borderopacity="1.0"
     inkscape:pageopacity="0.0"
     inkscape:pageshadow="2"
     inkscape:zoom="1"
     inkscape:cx="419.2698"
     inkscape:cy="586.88535"
     inkscape:document-units="px"
     inkscape:current-layer="layer1"
     showgrid="false"
     inkscape:window-width="1920"
     inkscape:window-height="1017"
     inkscape:window-x="-8"
     inkscape:window-y="-8"
     inkscape:window-maximized="1" />
  <metadata
     id="metadata7">
    <rdf:RDF>
      <cc:Work
         rdf:about="">
        <dc:format>image/svg+xml</dc:format>
        <dc:type
           rdf:resource="http://purl.org/dc/dcmitype/StillImage" />
        <dc:title />
      </cc:Work>
    </rdf:RDF>
  </metadata>
  <g
     inkscape:label="Layer 1"
     inkscape:groupmode="layer"
     id="layer1">
    <path
       style="fill:none;fill-opacity:1;stroke:#ff0000;stroke-width:0.186;stroke-linecap:round;stroke-linejoin:round;stroke-miterlimit:4;stroke-dasharray:none;stroke-dashoffset:0;stroke-opacity:1"
       d="M 380.87109 91.832031 C 362.36615 91.831628 347.36483 106.83295 347.36523 125.33789 C 347.37973 136.74221 353.19403 147.35605 362.79688 153.50781 L 349.81445 153.50781 C 345.88847 153.50781 343.07523 156.68505 342.72852 160.5957 L 340.62695 184.30664 C 195.15339 204.38929 86.750372 328.64492 86.585938 475.49805 C 86.586247 638.02712 218.34202 769.78289 380.87109 769.7832 C 543.40017 769.7829 675.15594 638.02713 675.15625 475.49805 C 674.98304 328.6516 566.58218 204.40594 421.11523 184.32422 L 419.01367 160.85938 C 418.66337 156.94905 415.85289 153.85131 411.92773 153.77148 L 399.00781 153.50781 C 408.58678 147.34133 414.37613 136.73009 414.37695 125.33789 C 414.37735 106.83295 399.37603 91.831628 380.87109 91.832031 z M 380.87109 99.84375 A 23.250526 24.052132 0 0 1 404.12109 123.89453 A 23.250526 24.052132 0 0 1 380.87109 147.94727 A 23.250526 24.052132 0 0 1 357.62109 123.89453 A 23.250526 24.052132 0 0 1 380.87109 99.84375 z M 380.87109 203.33789 A 270.19559 272.15942 0 0 1 651.06641 475.49805 A 270.19559 272.15942 0 0 1 649.9668 497.25391 L 624.68164 488.13281 L 637.37109 441.81445 L 596.46484 466.97461 L 568.16211 428.17578 L 562.32812 475.84375 L 514.34961 473.78125 L 547.98047 508.0625 L 516.45312 544.28711 L 564.22266 539.36914 L 572.88867 586.60352 L 598.82617 546.1875 L 635.35352 565.75586 A 270.19559 272.15942 0 0 1 473.51172 730.92383 L 462.47266 698.37695 L 506.5957 679.41797 L 461.41992 663.12305 L 474.10938 616.80664 L 433.20312 641.96484 L 404.90039 603.16797 L 399.06641 650.83594 L 351.08789 648.77148 L 384.71875 683.05469 L 353.19141 719.2793 L 400.96094 714.35938 L 406.79297 746.14453 A 270.19559 272.15942 0 0 1 380.87109 747.6582 A 270.19559 272.15942 0 0 1 110.67578 475.49805 A 270.19559 272.15942 0 0 1 137.46875 358.11719 L 211.55078 427.48047 L 141.24805 525.94922 L 256.25195 504.77734 L 285.2793 624.24805 L 341.31836 516.04492 L 447.81836 566.55273 L 402.69336 452.79492 L 506.4668 396.30859 L 394.16016 362.66016 L 417.06445 241.71094 L 322.14453 313.50977 L 258.03711 233.10547 A 270.19559 272.15942 0 0 1 380.87109 203.33789 z M 245.90234 240.11719 L 240.875 342.35742 L 143.70312 345.12109 A 270.19559 272.15942 0 0 1 245.90234 240.11719 z M 261.11914 260.66602 L 320.83008 335.55664 L 396.18945 278.55664 L 378.00586 374.57812 L 467.16797 401.29297 L 384.7793 446.13867 L 420.60547 536.45312 L 336.05273 496.35352 L 291.56445 582.25781 L 268.51758 487.4082 L 177.21484 504.2168 L 233.0293 426.03906 L 163.66602 361.09375 L 256.31055 358.45898 L 261.11914 260.66602 z M 575.85352 454.625 L 594.79492 480.58984 L 622.16992 463.75391 L 613.67969 494.75 L 643.91211 505.6543 L 614.38281 518.34375 L 624.70703 548.7793 L 596.375 533.60352 L 579.01758 560.65039 L 573.21875 529.03906 L 541.24805 532.33203 L 562.34766 508.08789 L 539.83984 485.14453 L 571.94922 486.52539 L 575.85352 454.625 z M 648.01172 513.81445 A 270.19559 272.15942 0 0 1 637.8125 558.99219 L 625.73438 523.38672 L 648.01172 513.81445 z M 410.57227 628.57031 L 429.92578 655.10352 L 457.89844 637.89844 L 449.22266 669.57227 L 480.11523 680.71484 L 449.94141 693.67969 L 460.49023 724.78125 L 431.54102 709.27344 L 413.80273 736.91211 L 407.87695 704.60938 L 375.20898 707.97461 L 396.76953 683.20117 L 373.77148 659.75781 L 406.58203 661.16797 L 410.57227 628.57031 z M 435.56445 721.17969 L 461.35352 734.99414 A 270.19559 272.15942 0 0 1 420.62891 744.45117 L 435.56445 721.17969 z "
       id="path4153" />
  </g>
</svg>
