<svg xmlns="http://www.w3.org/2000/svg" height="546.769" width="546.876"><ellipse style="isolation:auto;mix-blend-mode:normal;solid-color:#000;solid-opacity:1" cx="267.492" cy="141.678" rx="77.207" ry="53.386" color="#000" overflow="visible" fill="#fff"/><path d="M208.002 485.854v-65.203c2.34-.895 4.623-1.963 6.815-3.257 31.087-18.327 34.355-70.395 7.293-116.288-27.059-45.895-74.196-68.24-105.282-49.912-31.087 18.33-34.354 70.394-7.297 116.288a140.252 140.252 0 0014.517 20.287v48.44l-67.002-38.345V157.71l-23.485-15.503C12.167 181.187 0 225.948 0 273.55c0 147.904 117.359 268.317 264.08 273.177l.025-28.178-56.103-32.695z" fill="#008D55"/><path d="M276.588.017C183.85-1.011 93.244 45.276 41.23 129.077l23.82 15.043 65.134-39.875 40.953 24.27c-.807 6.729-.835 14.136-.809 16.683.375 36.085 49.247 63.517 102.522 62.965 53.275-.552 91.218-32.827 90.949-64.58-.304-36.084-35.005-64.336-88.26-65.924-18.029-.538-35.406 3.063-43.32 4.575l-29.87-19.106 71.038-40.531L482.799 144.32l24.017-13.181c-23.105-37.99-55.828-70.867-97.082-94.62C367.676 12.307 321.878.52 276.588.018zm-43.395 103.38l33.141 19.067 32.996-19.055 33.197 19.034-33.06 19.091 33.027 19.123-32.871 19.102-33.21-19.123v-.012l-33.104 19.12-32.85-19.048 32.969-19.166-33.239-19.074 33.004-19.058z" fill="#D02026"/><path d="M489.865 236.551l-44.532 23.277c-1.614-.27-11.499-9.522-13.723-10.764-31.526-17.563-77.938 5.66-103.867 52.201-25.93 46.54-23.719 99.753 7.805 117.32 31.527 17.562 78.47-3.509 104.403-50.049 4.182-7.508 9.767-24.938 12.378-32.559l37.938-21.932-.225 83.273-208.851 121.97.101 27.481c44.448-1.233 89.223-13.354 130.301-37.406 127.63-74.736 172.237-236.855 102.294-365.92l-24.022 13.19v79.918z" fill="#122E51"/></svg>