<?xml version="1.0" encoding="UTF-8" standalone="no"?>
<!-- Generator: Adobe Illustrator 16.0.4, SVG Export Plug-In . SVG Version: 6.00 Build 0)  -->

<svg
   xmlns:dc="http://purl.org/dc/elements/1.1/"
   xmlns:cc="http://creativecommons.org/ns#"
   xmlns:rdf="http://www.w3.org/1999/02/22-rdf-syntax-ns#"
   xmlns:svg="http://www.w3.org/2000/svg"
   xmlns="http://www.w3.org/2000/svg"
   xmlns:sodipodi="http://sodipodi.sourceforge.net/DTD/sodipodi-0.dtd"
   xmlns:inkscape="http://www.inkscape.org/namespaces/inkscape"
   id="Layer_1"
   enable-background="new 0 0 612 792"
   xml:space="preserve"
   height="546.76904"
   viewBox="0 0 546.87573 546.76904"
   width="546.87567"
   version="1.1"
   y="0px"
   x="0px"
   inkscape:version="0.91 r13725"
   sodipodi:docname="fablabs-ch.svg"
   inkscape:export-filename="bitmaps/fablabs-ch-600.png"
   inkscape:export-xdpi="98.739998"
   inkscape:export-ydpi="98.739998"><defs
     id="defs4210" /><sodipodi:namedview
     pagecolor="#ffffff"
     bordercolor="#666666"
     borderopacity="1"
     objecttolerance="10"
     gridtolerance="10"
     guidetolerance="10"
     inkscape:pageopacity="0"
     inkscape:pageshadow="2"
     inkscape:window-width="1916"
     inkscape:window-height="1036"
     id="namedview4208"
     showgrid="false"
     inkscape:zoom="0.89208315"
     inkscape:cx="174.57721"
     inkscape:cy="239.13503"
     inkscape:window-x="0"
     inkscape:window-y="20"
     inkscape:window-maximized="0"
     inkscape:current-layer="Layer_1"
     fit-margin-top="0"
     fit-margin-left="0"
     fit-margin-right="0"
     fit-margin-bottom="0" /><metadata
     id="metadata49"><rdf:RDF><cc:Work
         rdf:about=""><dc:format>image/svg+xml</dc:format><dc:type
           rdf:resource="http://purl.org/dc/dcmitype/StillImage" /><dc:title /></cc:Work></rdf:RDF></metadata><ellipse
     style="color:#000000;clip-rule:nonzero;display:inline;overflow:visible;visibility:visible;opacity:1;isolation:auto;mix-blend-mode:normal;color-interpolation:sRGB;color-interpolation-filters:linearRGB;solid-color:#000000;solid-opacity:1;fill:#ffffff;fill-opacity:1;fill-rule:nonzero;stroke:none;stroke-width:10;stroke-linecap:round;stroke-linejoin:round;stroke-miterlimit:4;stroke-dasharray:none;stroke-dashoffset:0;stroke-opacity:1;color-rendering:auto;image-rendering:auto;shape-rendering:auto;text-rendering:auto;enable-background:accumulate"
     id="path4138"
     cx="267.49188"
     cy="141.67786"
     rx="77.206924"
     ry="53.38628" /><g
     id="g3"
     transform="translate(-28.822,-7.2919492)"><path
       id="path5"
       d="m 236.824,493.146 0,-65.203 c 2.34,-0.895 4.623,-1.963 6.815,-3.257 31.087,-18.327 34.355,-70.395 7.293,-116.288 -27.059,-45.895 -74.196,-68.24 -105.282,-49.912 -31.087,18.329 -34.354,70.394 -7.297,116.288 4.366,7.403 9.258,14.182 14.517,20.287 l 0,48.439 -67.002,-38.344 0,-240.154 -23.485,-15.503 c -21.394,38.979 -33.561,83.741 -33.561,131.343 0,147.904 117.359,268.317 264.08,273.177 l 0.025,-28.178 -56.103,-32.695 z"
       inkscape:connector-curvature="0"
       style="fill:#0e9a48" /><path
       d="M 286.58789,10.017578 C 193.85097,8.98955 103.24434,55.27651 51.230469,139.07812 l 23.820312,15.04297 65.132809,-39.875 40.95313,24.26953 c -0.807,6.729 -0.83459,14.1366 -0.8086,16.6836 0.375,36.08499 49.2465,63.51684 102.52149,62.96484 53.27499,-0.552 91.21822,-32.82708 90.94922,-64.58008 -0.304,-36.08399 -35.00477,-64.335824 -88.25977,-65.923824 -18.029,-0.538 -35.40631,3.062219 -43.32031,4.574219 L 212.34961,73.128906 283.38672,32.597656 492.79883,154.32227 516.81641,141.14062 C 493.71141,103.15063 460.98837,70.273482 419.73438,46.521484 377.67597,22.306847 331.87801,10.519638 286.58789,10.017578 Z m -43.39453,103.380862 33.14062,19.0664 32.9961,-19.05468 33.19726,19.0332 -33.06054,19.0918 c 0,0 22.02253,12.75059 33.02734,19.12304 l -32.87109,19.10157 -33.21094,-19.12305 0,-0.0117 -33.10352,19.11914 -32.84961,-19.04687 32.96875,-19.16602 -33.23828,-19.07422 33.00391,-19.05859 z"
       transform="translate(18.822,-2.7088945)"
       id="path7"
       style="fill:#cb2026;fill-opacity:1"
       inkscape:connector-curvature="0" /><path
       id="path9"
       d="m 518.687,243.843 -44.532,23.277 c -1.614,-0.27 -11.499,-9.522 -13.723,-10.764 -31.526,-17.563 -77.938,5.659 -103.867,52.201 -25.93,46.54 -23.719,99.753 7.805,117.32 31.527,17.562 78.47,-3.509 104.403,-50.049 4.182,-7.508 9.767,-24.938 12.378,-32.559 l 37.938,-21.932 -0.225,83.273 -208.851,121.97 0.101,27.481 c 44.448,-1.233 89.223,-13.354 130.301,-37.406 C 568.045,441.919 612.652,279.8 542.709,150.734 l -24.022,13.191 0,79.918 z"
       inkscape:connector-curvature="0"
       style="fill:#35469d" /></g><path
     id="path11"
     d="M 356.263,536.48309"
     inkscape:connector-curvature="0"
     style="fill:none;stroke:#010101" /><g
     id="g4336"
     transform="matrix(1.2694175,0,0,1.2697467,-87.012414,-49.426462)" /></svg>